<mxfile host="app.diagrams.net" agent="Mozilla/5.0 (Windows NT 10.0; Win64; x64) AppleWebKit/537.36 (KHTML, like Gecko) Chrome/136.0.0.0 Safari/537.36 Edg/136.0.0.0" version="27.0.3">
  <diagram name="Page-1" id="VZytVeE6OioziKJPoLYK">
    <mxGraphModel dx="1418" dy="794" grid="1" gridSize="10" guides="1" tooltips="1" connect="1" arrows="1" fold="1" page="1" pageScale="1" pageWidth="850" pageHeight="1100" math="0" shadow="0">
      <root>
        <mxCell id="0" />
        <mxCell id="1" parent="0" />
        <mxCell id="jT0Mf4S58ZT9GU4pF-9o-1" value="" style="shape=image;verticalLabelPosition=bottom;labelBackgroundColor=default;verticalAlign=top;aspect=fixed;imageAspect=0;image=data:image/png,iVBORw0KGgoAAAANSUhEUgAAA9MAAAE6CAYAAAAV2QEmAAAAAXNSR0IArs4c6QAAAARnQU1BAACxjwv8YQUAAAAJcEhZcwAAFxEAABcRAcom8z8AAP+lSURBVHhe7F0HgFU12nVXV9eyv7uu666rrr2BXUFBlN6LdBAQUOlFUASlCIICUkRAqnSkS1F677333uvAMPX1Nuf/TvIy8xhGbDDwhpyZ7917k9z0L8m5yc29AT+LUDoJigQiJL19ioiFhYWFhYWFhUVmIBQKIRgMqmMgEFBHCwsLC4vMw28k05GS3t6SaQsLCwsLCwuLzACJMyUlRY+/EhIScOLECUWuLSwsLCwyB7+BTP+SWDJtYWFhYWFhYZEZIGkmkTZk+vTp09i6daudnbawsLDIRFyCTBNsoNOT5ozEwsLCwsLCwsIis0ASTeJsZqLPnj2Lffv2qXMLCwsLi8zBL5BpCwsLCwsLCwuLaxVmJtrlciEpKUmdW1hYWFhkDiyZtrCwsLCwsLCwsLCwsLD4jVBkevPmzfj888/RpEkTtGzZEh988AGaNm2KFi1a4OOPP0bz5s3RrFkzJbSj2YcffphqxnO6/eijj6xYsWLFymUUtq/XmmQUT0pGbrOKZJReSkZuKRm5pWTk1sr1JRnVC0pGbikZuaVcys6KFStWrFxeIeclV+Y529+2bdvizJkzmkwvXrwY9913HwoWLIhKlSqhYsWKqFChQuqxQoWKqFy5sthVDl9XQLly5ZRbfV4+wq0VK1asWLFixcr1LRwX2bGRFStWrES/lC9fXolp0wsVKoTbbrsNa9eu1WR61apVePLJJ3H06FFeWlhYWFhYWFhYWFhYWFhYpEN8fDyef/55LFmyBDdwN8jVq1fjiSeewJ49ey76biERDPJan7vdXrHnpxi46YU20+f6HitWrFixYsWKFStWrFixYiUriPlyQiAQUNyX3/R/7rnnsHLlSj0zvXTpUjUzvX//fuWA5NkQ5V+DQCCY+mkGCwsLCwsLC4vrHmlzEhYWFhYWUQwSar/fn8p3jxw5omamyaEVmebM9FNPPZWOTKfgxMlTWL58JRYuXIrVq9ZixfI1WL5sFZYtXYWVy9fKcQXmz1+Aw4ePhpm7DixN9Kz1hWZWrFixYuUi4V/4XH6UXGAfKeqPq4FC4s4cacYv/2tbdZ3qltdiacyU8L6LH4IqcwRFwj6p+3QYWmgQCX2tnKX+6ft5sw5Lx0t6FnF14ZPa1PiYMMVtqpn2VPkjPZN2o+IQ6SbNrXbK3zQYe5UG5b/OM32Dvo822jzsD4/KtdgpMxqG/Qv/hm3DbrXfOp/oXrujjT7XbgltHzZXx8g46fuNa94fdqj84K+6R53Tbaq1lrA9L4wbdR4pYX9SzcNu0q7Df6lpSSfKjs55NPfqa57zoOKvL5V5pIQN9XXYr8j70/IhIl7hOGv3F8ZLjJSYc30Z/lOzAjTRUFfKHe+N9Cd8jz4JH3U8TFxS4xC+R37CdpH38RDxp+4XHQu7owP+8T89aGT8Si/yo++NFP6lN7NixYoVK1dEODNNMu3z+VSbzZnpZ555Jo1Mr1mzGo8//jgOHDigHBByn5ivx6QfponDVUKal2CZEOk5cxcKuV6GlSuFTMv1+Ak/YM6ceSqgi6G6B31qYWFhYfHziGgqL2g5w3yA43JyA9Jfv1wE4RfC4pWxuhfweuATSfA64RbHnmAAoYA0/D4/nGLuFfc+vxcBj7gXluP1eRAMupXnmzeuxDs1qqBqjbexccsWFVhKigPeUDI8QgRCDJCv+oR8Ep5fTgPigpGiCCRuQXHkCfjknpDc45OYuRAIJoqTAPweia+E6Qh6JN4unDlxCI3q1EHDek2QlOhRpCsYlLQgSbxyq/BCwaB0WB7Vr3gcXvhc4l8gAX7xMxCSuMtNTEeku0BA3LIfCgTw06jhKFMkP+bNn6+iGPQHEQx44PY7JV4SRkDSLnmU4pc8CkrcJF0BSR8kDfSCee2ViMT6XfClBMRc0i2dqJ/+iAOfmAMSrsTFL/4EJM0hyS+Ax6DkN+AK+sRc7pVzpDCvWTISZ/GcD6vlNvXgOijlFwyJfyGxF3/5gMMl+Rjv9cIraQn5pKSl3AISR6+49fvdKm8Dkpd+8VWcIeiTMvXIfRKmPySmfh883gSJq/gXkDKUeDOPfAEvPIwzy8XJuhBEgHFm/ssAgeSP6fVKXvhVPkv+eiUdch8lKHYeccv0eaV+hVgnfHIUCUjcUiQ9PomvQ/xxSRoDEqbfL2mQ9EjOSdqlcFlmTqmnHslbKXUvKwBXzdFPl5SPL1nyOkmcSf6Kf0y7V8rMJ365JOyAmIckjfQrhfXRLf47JV9ZTJIPAYmLW8rRL0JDd+wxfPhRU1R4rwGOxSYq/QlKnBhoUPKG1Zh65Ze0snxUXMQ4RemWlAvTJemmvnklTKku6h5JnJSXW5UfV+eFPJIHXkmbeKDClz+31NlQKEnVNxUU4yRx9ri9SJZ0uVV6GKAEQ3/FY5YJ65AavLG+6FgpuQAXGVhYWFhYXGmwPyOOHTumJqK571h4ZnrVRWSaWLV6ncgGeGXA4fEG4JDONynZrY7xCQ4lGzZuFXK9JHxHejBA2+JbWFhY/CIimsoLBs/hZpQET7iFGuv7SLiCTviCyfC7EhSZ9vvciPM5ERuSQTpJklMG6tJue+T8nMuBJIeQ1TCZdnmFnArRgkhy/AnMm/MT2nRojxlz50oYQjJDiRJGMpwSjk+YU4r4Q5ITEMIXFDO/kICgEMigEAE5VaTLL4QjwUNCL/eGhPj6ziHgEvdC9pJcAfHLjzj3GSFXHgzp3w+33HA7pv24VAguiYxHSEWsiIQh4YWEDHp9LrhcQqQ9fiHTTjgcJyW8eOmPHOKHpMEh5I9kVEgyyZFPyM05l1AYtwdndmxBnmcfQ7GSJSVMyQeSYCE+npBT4p6sSRKfLkvf5pOOMUHS4gu4EPRIfCWDQyTmkg8nJC0JniTJXzEXO69PSKiUhT/gVCSJ+Ufy6vRImn2xkuZk8SeAZN6viJd4xverhPwyTwOKBAqRljD9kk6fV+LLcEm4/EJ+3eJGCLFDwjgvaUp2k8wJIXV54BS/3UK2nY5ECSdWVQ3C4ZS64GA5BZHk98Ih+ZYi8fXx4QOE4EuCSHb5RN0reeUU4u4REswHCV6XS8wcKg9TJD+Cku9uIc1uIf8eyWeXEN5AQOIsZnyA4Je6Fe92SBlLmUg6vKwTUrY+iYNPwg0Is3dLfsdLHZPcUXml91iRtEqYJMIpEseg1Fe3hJkkaXWzXnukvrokfNZj1zlxL/Wa4Ul5pgj59gYdSJR642I9k/zy88GQmPPBQ9Ah8UsWEi2BeaTOJ8ULUWdYfOAh+b9g4jDcdPOf0H30OCQJo5WsQFDSGpLwSfSDch8fxLhZ5yStASHnjHiKxDXol3ILJEsavGIk9kKp+RDBL6Q9KPmd4hXyL3WB9V8KXMovBIekiQ813KKfHqnTwUAckh0JYiZ5kcInS+Kf+HE2MVnpi1cINv10Sd2SQKWeSHqog5ZMW1hYWFxzMGT6+PHjePrpp9Pemf45Mr1p8zbMm79YOtEUOKWjS3Z4lJBQe6VHoixfsVrcLArfkR4M0Lb4FhYWFr+IiKbygsFzuBlNT6a9Qop8MtgPkOyFZ7cIzlZGwiM3nXNzZjQNXC7tDwpB9MXJVQCHDu5FbFyS8tsjJCQUEMJGoi2Derb/MrKX8IWgcWaXM6thX2guTiReQjLVjJwQQCGFDt9p4ffnlSsDzv4m+mgmJEcwbdJ0LFu5GU4huh4hSB65j4SWZDNAAiPx40ReODAhR07pc+IkVM7OCgkW8uL3ChHxCDkW0kSi65Qo+Zziv8eB2GN7MWjoEJyR/oobZ/p9HiFSbrmXZIYk3ysEUkiUN4B4EisSPSFZnNkk2Ur2JuOc5AUJqILkuVOIltMbkrhyhpsk1Cl5wk05SeyFHMWdluiKvcTZSeInpIqz2khxigeSNsn3gJhzdtsrfvklbLW6QM1qe1UwfB8rWQh0nE9yVPIz4BRz8c/hS0CypJU4e+YYevftiXGTp8Il6eDMvo8znUIWVU3gjKeUHyVFSGJI8ovkjOReem+pP+JKouV1CPmX/Ah4Jc+E9JJwO32SX0L6PJI2l0cIoRBG8ZC+wiv5wTPG1C0DCpcrHgGHkGCXnEuehziDL/UtWewSxT/hyLreSprckk9ezuSKn0EJz8uHEGLpJDmVvPAmOSWuktd8SPEr4Zf0epOk3OQ2j5SbeAW3yyl+Shl7HZL3HmxeORsTpk4Ea/o5iVuiy6NWaAQlXUH1oEDSLeLiAxn1cIiRFseShmAgSephgsTfK2UudU3MnFwpIO5ZJkEPib3kHx/OUE8EzP9kSYfPL+kIyb0+h5SdH3ESdkD8Elvljkj0+OGQOHokf/T4zJJpCwsLi2sZv5pMsxEnSKYXLV6Onbv2YdXq9Vi5ah3WrtuENWs3YvWaDWK/HQsWLhEyvVC5vxgM0Lb4FhYWFr+IiKaSp6mXQkp4wRllLm/mImvOApPsBkMeOOPP4vMPm6Nc2bIoXbUCSlapiLcqVEKFchUwuN93QhKEYMn9587FoUGtmmhY/12ciz0jRE0G/D4nFsybhurVquDDD1vjfBJnHzkzLURWyG+SEAAPZ+6EDIDLg4WE+qUjET4pZEGIIIkHuYcQTRJFzsq6AnFIchzDubPHMHLAd6heoQbmLlqOZCEuJGgeTywG9OuNWjVrY+HSNUJmvUKoXWpGlcuauWTWK6Tb7YgVIpOC6VN+xOIFC4WTMl4+IcZCXiRBfH5AkublTLikg8t0XSRDPi8OrVuDdyqWQ+du3XAqUfwV0u1XM48O+MS9ms2W+JBT+iS8ZCGRnDUmIfV7JS1ChjgDnixpdgspG9n/W6xfs1Y9zHALafOJWy639nlJzoWcCVFMEeLMBwBOj1uIOJcEk7ySejKiDglLyDeJNEmaCCcz+QAgKGmSWKBPt06oXr4cDh48Aoek2y2BBcWfkDBSP2eCIWnkwmipAxMnjMcNN9yAb/oPEILGBwkkfT4htFIvxD7EGdgUiZuwTD40IEH0SV75pUy9kmguv1ZPXfgQxMeHCyRwUq/ETZLkryfEMnHC4U6QMvdi/frV+Pbbb3D27GksX7USg0eNR4KLlNqHFKeUazwXN0vahMTz1QKHpI+EmrPXnO0OSrkyJ5KdSXAlC6GUcH2SAXzEkyRpC7JCkfBLWo4e3o7aNd5G2bJVUblcNVQoWw5vVSyFslKvy5UrjxHfDcfQb0eJm8Y4dOSEqhd+yUfORnt8XKGRLGlNFL88OLh9K96tURGfd/sSu+ITESN5GpsopN0tEpB64ZZykTiShLuk3N0+n84nFRcqnUvyJUHCIDmWtIlbSTEXC8j9ks8eljlXKbiwdOZM0cHymLVwufjH8nXClXhCLZ9PlMSfkjJIjD+IXh2aonTJkpg3a6mUXQrihag7+fBDDZcsmbawsLC4lvGbZ6ZXrlqL+QuW4K2yFcX+CTz19LNKsmd/Ho888gQqVnob4ydMxuIly8J3pIfqHfSphYWFhcXPI6KpvGDwLCSHF9xMiSRMkWn5VbOOQSFCjgQUeSWHIlfp5c83/AWt23eGVwiCIyEJ5YsVxjs1KiNOCHiKDNgP7t+BOrWrCbnth/Lla2Dw0DESBslY2kw2V72SDIWEhBqQRpG8Br1iyQuSRjJTkjTB5KnDUOPtt/H0/Q+oeOQrWAw71QaXIcyZNxkfNGuCYcPG4KNWn2HPocNwyf0uEmMhF1xCHgjFK3/GDRuF22+9DRPGT1HXxn+Cy3r5rq9mhRpeIVDO+HPo0eZTDO37NT79rC3GTJupbiPpcrq1v0SaT+p5gJApPlwQYugSgqTeKeeMLNC1Y1vcdcstmDFjrrqOhEuIs9sdOZMaET8R0iC+Vw0hu+DMN6dpI+AjYWa+CUWrVb60lNcNWLdus7YMg2SahD8EPUPuEPL6+Wed0LdPX3WtkVZeXALP5ePp4eSybiGcQtVUzxwSMhzyOLRlBtDkNEnSFw+vpLN/v76oXbsW6tSrhxUbNsPh5Yx32v3Mw0jEi71bGGKKkPFIBNRMt84nxtoj9U0RU3HP+rF147KL6nGkvFe5ukh93HTD37Fx8y7ljwGXobPcuAQ/KS4Gn3/6Kfr16Yp2nduj73g9O83VE0jmWcZIljqgykUtu9arKNKDcXaLYqQIweYqjhQkoJ8Qdsbv28Fjw65YrhrJktzjku4JE/qjddPa+OrLTni7Qg0cPnISTqmcnKHnQxDmoiXTFhYWFtcufhOZZjtNMj1r9nz8MPlH9B/wHQZ/NxzfDRmBYcNHo0/fARg5aix+/Gk2Fi1eqm+6CJZMW1hYWPwqRDSVPE295CCb/+nINDetSpGBfDApFqVey4V/33knqtWsjroN6qNBg8Z4v/J7uPOOu5D9udyISfQg4HLgp/Hf48epk4WQJajZWb4HPXP6NIwYPkII61ScjdfEJ+hzYdnypeg/ZCSOn4sT0hqAN/4Mxo8ZhXGTp+EUX/VhvChqVlEToRQht9N+nIgBA77GmhXL8PXn7XHrn/6MMROnilOdopMxxzB4xHDpR0Zi6OgRSOTyazFPEv7nFP7Bd2uDKQnYu2cr3ipcWBGUmrXqYuH8FThz6gyGfjcE8+etUH5xZnjbtlUYOOhbbNq6CR6/XkK7ZsFCDB8yEP0GDcA30m+5XBI3RlPsx48agukzf8KJc+cwdsxYDBo0CBs2blL3cXYw6AsK4eP7tMnYtHEt3syVA3fccBM++qgVlq9YiX0H9mPAwCFYvnprmED6sGbxCvTvPQRbd+/A4FHDMHfBMjWDTRqkNnrjMmCSU68LU6ZNw+DBgxUZPnj0iPKBG5Q1rlEF995xJ9Zu2IkZs+Zh0MDBWDJllnpW4PEHsXHbGgwaMhh79h1TdYHEa8782Rj2/Uhs2rwewwYPxLq1q6Wj18Xy/ZRJkv5+GDJoII4dP6WC4YZogRRJH3mikEVPwjlM+344pk2agtOx5zFU/BowoB+Wr9T5G0whWQ5h167tGDLkO/Tp0xuDBg/C2UQnkt0etZR64aQfMXXMVBw9G4vJU6fI/d9izrzZKm/4cIQJSIqPx/DvJ2CA3Hv61GGsX71Uwvoe+0/HgKujg3wvP8h4ebB/zxa0/Kg53n+/HipWrISbbrwJ2bK/gLr1GojZ+xg/chQaVq+PB+95Usj0bkydMR3fMsxF89WIgzP0AV+8nPixcO4iDGU9GDwAi7ZvVfWMM+IpjlhMGzUQc2b8gBOnT2PU2PHoL/m9dv06cQE41DQxcC7mOIYO6yflNRDxsbGYM2eupGMcTsUlSD7qsPQS/SQM6/OVqqvDR+sHP6eOHceA/t9i6tQZ6r1w5sThAxsxYnBPjBwxDBvW6zrHBwpOIe/eAB9I/VoyzSsdRwsLCwuLzMNvnplevWadEOmfsHvPAWzZuhO7du/Hnr0H1ZFmu/ccxNRp0zFnrt4x9WIwwAu7AAsLCwuLDBDRVJrBMwfU3GSL7IgESr1PLOZqhjFIouOC//wZ5HrkEbyePTsc7rSZQt85H3I88zoefOR5nHcE4U6IxWP/+SeeeDwb4uNixM8kdOrQGrfeenvqrF/N95rgTCyJthe1a72jzJZt2Kb8SzxxAHff+X+454FHsftsnJASiZPfjxSPUBQhKI7E82jTsnmqX9ke/S/yPP8c/nHzbRj7wwzlx/5921CsdOlUN5Raderi0Olz4PvO3I1bUwcv+n7dBn8R+7/86RblrkyZ2lgyb7E6r1C+tvKP6Ph5C2XWo3cPuUrBrOlTJZ5/T/Wf0uyj9vB6hDy64pD94ftw40034ZU330i1f+yhR7BIiDIJIGfh1RJfyel2nzZU9nfdeIc61qpTR/rEser8g5ZfMniBD83rNFZmnYVs8liidBUh8HpmUu+a7kVS7Bl82roV/vSnPys3lByv58bOPZxdDaHZO1Vxx19vRd4Cb+Gv/3ePsr/rr7dhxoSflD9fdGmvzIYMn6quQylJyPNmTvz1jrvQ9au+yu6jD+qpmfIOX3bFDX/+U2o4L7z0Grbs3qfyVi0zD0+aes+fQr5nn8KNEqecefLjhpt03B743/8wZ/FicR3Apo2r8NCD/0v1i1K6UnU41Mx2MirkeRM3ilnONwvghptvUvb/uOsfmCRjA+Ls6cOoUbVq6r2v53oJ997zT/zp5tsxe/lq5Ua4oxRdCP4A3ylOm8net2+XuqdRozZhEyIFdStVkbz6G97MVwg333GrcnPbHbdj6o8ztQtfEoYPHoq/3XFnarj/kzHOsKk/aPukk8jx+H/wt9v/ipy53pR036jc3Hff/ZixYLGqB4cP7EHZ0sVT738z12v4x9//jr//60Gs2b5HYiH+pDCubol6Er77uotyN3HyLJw/E49cOcTfP/8V34+byCCxY9M65H/z1VT/Hnz4QYz5YZIaJXFJv1p6LyHz/X/zyTqWlyXTFhYWFtcOfhOZ5vtTixYvU7PS6zdsUe9KL1+xRgnfl+b1uvWbMWHiZEumLSwsLP4oIppKM3jOmEzrnZH9/iQhDQnCic/jrVdfxZ233ILs2Z/Gsy+8gJyvvIYXHnsBd99+H74dOBoBuT859hRyPPkQXnohN+JiT2Ltiim4+S834oOmLXHmTAyGDRuMP/35FvT/joQjBQ0b1BUycBtWbNmhrs8e3IZH77sPDz/5AnbEnNdDeS6z9pJQBDB76gRFEl5/83Ws2bAaC+ZOxStPPIK/cmb6h1lC/l2oXL6QuLkRvfoPxc6dO9G5axt1T+OPu6oNq5zBIFxevhvsEsJ/HO0a1MBfb7wd7Tr2x8mTZ7Bh1Ur87eabUbNmI2aJcPggvu2rZwR79u0leZSMFh80QKnipbBj21bMmj8TDz/+GP525/9w6OBJhPzJeO2Zp5T7Rp9+ih07dqD9Rx+p6w8/aS1kXoim+Ml3jlNCLpw/txMf1KyE/9x6N77uPQpnYs5g1sxJ4v4OtGwj4TEPQg60bdZS4nkvBghxeipnDlR/pw6SkvTS66DaYMyNUYP7CZG+AfXqN8SuXbvxSSsdbpde3SR7A/j0/ZrqOneBMtiyfQemT5qEv8t1lTJV4fQH0G+AJuqjxurl5v5ADEqWKoT7Hn4WI0fOQPaHn0antk0xYkQf/Pmmv6BGnbrYuXsX2rXU4bT56mt1HzmbWlnOEnTGoFKY4FWoVhvbd+4QP1qr6/cbN4XXF4tvvu6AXLlyYePmTVi6dAny5csr9jcJ2V4uHoXwXtGiyn35mnWxbft29OraTl9Xrq7egR/8jS6f+k1aYIeU+bChffH3O2/H3+++DwvXbdH1nNxRGHVI7T7OmXzOIQPr1+sl33XrtlfXapo+mIDG1Ssq86IlSmLrtm0YPW6Muq79TkOVvtVL5qoZ7TcKlMaGbduxduNaZHsuG/527z+xde8WYa8xKJHrGXXPh606YtvObWjfRudTo5btVB3o1lHnQ8tP26l60qNzB9wupPt/j76EtbsO6tFNihDpgEPi7sW4Id/iz3/6E77q/g2qlq2GW2/5F4ZN0A8UAq5Y1C5dFH//251Ysno1DhzZhxdfewGPZH8ScfEOtamdWukhvloybWFhYXHt4jcv8+by7e+GjMTUaTMw7ceZmDhpqnpHesrU6cqM36AeOGioItMc9F0M1d3oUwsLCwuLn0dEU8lTJZcg0yEhcUhxIBB3BuVfe03NDnLwHyk33vBXjBz7k5ppSzp3DLmeegSvv1oYzqRzaNm8Cm6/7a9o3+4rzJk9D4MH98Y99z6EslWbqPdkWzTjbOstWLplK0OE4/huPPW//+GRbDmw9Uxc+A1ekhshPkEnvvyMs643YPT48cqG6NWxDe74y82Y+NMCHDu2D4/89x/IIwRH3wskJh/EqxL3J54rhj2nEyVt4hU/QaRm3YVAtm0icfgzho3XD2zXr1qKWyRdNWs2UNdejxcDvu2u0jpk5HAxcagHBdOnz8KAgf1x74P3Krv/3pddyPtBuONO4vWnH8XTTz2FnUKMia3Ll+JvEkbtevWRLCSKG6Jxsymo5bvxaFunqpDaWzF9tl4CPP3H0eLn/6Ht5/1UfLm5WMuGzfCnG+7Eom178O3ECULM2yI5mTt+643ZAs5YNHq3Kv5519+xect25c/WzeswYPh3iHVwQy4nmlYuiztv/CvG/KTT6jp3Fq/d9z8UzVcMR2KTMHjQtxLunzB0pHl3+zzeKlMYf7/nKcSLFz0+74m+3dugUcOquOvf92H19p3K1c6NqzFg6EgcT0rmvCe4qZuaCWbsHSfx1ivP4vH/Po5tuw8r93s2bsAdN96Kyu+8B483Bg7HCcyeMwujRo/GM89kV/l5+z//g5VrNwI+D2rmy4cH7/y31JO96v6je9fhP3/7K6rVeBenY2NR7+0yuP2vt2DhcnGv4EflSiXwt3/ej3mrN+t6bsh0SpKQU870kkwHhUwvVGl+7/0vlDuw5gRj8O5bhXDfnXdixYqVyvRc7Fnc//f/oUKpGnAkudFZ6uKfb7wRUxfomW9i8KB+uOH2m9FrcC8JKwGvZ/8fHn/oUWzedUzZb127GLdJ2hp9/ClOxp9D5RJ5cfff/w+7Dmh7lnP+V3PgPw88h5VSl1SU+T58CuuKD2MH9cYtN/0Zt4dnw9+uUlctK6e7bWvm4Ln/uxm5X8mNCdPnYqbk51tVy+G2u/+OGTM4ftKrMuj615FpwUUGFhYWFhZXGr+JTHMTmjVrN6j3okeMHIvhI75X70qPGj0Oo78fL+ffKzvKwkVL1A6sF8OSaQsLC4tfBzNk5uA5/JciQ2lu+xw+hkQ4f+dTs51OMXcgGHcaRZ7Jhqfuvw+du36BAQP6Y1D/QRgxaBhey/E6br39X5gvpMUvBPqNbI8jz2tF4XXGoVyJV9SgnzPF+qjlzSJVkRB/HM0a1ZPrO7Bq1x6JUwDOY7vw7IMP46Gnc2Dz2QRwGylFJkJuESGUH9TF/wmJmrV4idhozJ40FvfddTfGTJ2DbVvW4tF/34nq7zfTe5YJqfK4jqBMmdK495E82HYsVhMU7qDM5bMBF4Z/3hJ/EUL/9VC9VHblsjn421/+hPfrfADhqQo9u3VQ8R45fgLc7lP4qGl9df1k9ifRvUcXPPzYQ/jHXY9i9/ZDCDhi8PqTD+Lll17CkSRuHJaC1TOm4Z4b/oLGH3yEBOmyfFIE3pAXXt85sU9A+/eq4p4/34bJ0/V7xLOmjhL/b0Sr1nqmlwSvgxAw5lW+KrXRoFMnrNu8RcxT4HA6SY8QcJ9BUyHld97xN2zapMm0plm8m/2kD21qv427brkDizfvUTZnj+zDK//6F8oWLYNTDj406ClhkEzrpcyh0FlULF8YN/7lTpSr0BRdP+uCowe3oEmjGrjlb3djSfidXBMOHw14Jc8VmVZGQvUcx/DWC0/ilcdfxqlYF7zBAHYuW66Wtddt2Bwezxl069oCNwpJvO/+/6FHjx7IlSMHbr71b1ixer14HcB7efPh2fsexVYpP77Lf3jXCjxw562oWKkaTp87hw/erYhH738A2/ccZ6AKVauUFEL+P8xYvkFyR1Vv+fFJTBMkbtwZnRFMwfoNC1RZ1q7TOZwKvnt+Bo2rlMZDd/0LWzZuEfMgTh49iGz/fAxVilfDubPn0LR+Vdz933uwYNNulbucip87ZSL+8n+3oU2XzyTe8Xj9mUeR46WcOBqjl5VvWDQDd0pYTVp8jDNJZ1GtZH488dDDOHY2vGldigcFcr6E/z70AlbuOsjHSFo/uTJD4v5dry+FTN+Iv/zlVjx87/249z8PYtYqvZnckllj8eBNF+vazVIfBn03RrlxSl6mMJWWTFtYWFhcs/jVZFrNhkhD7XC6EHs+EfEJyUhITFISn5CE83FJYp6ApORkdU1zOzNtYWFh8UfA9lKLHkKLyKCau25z6o7HkBz5kSGvkM0Al3lzN+/Es8j7+KN4/ekncCbmuN5gip+ycofQqE5TGbTfit7DvhceEo9XHr5fyFABuB1x+KzVu7j91lvx9df9sWfvAWxctwKTpk7F0vVb4HKeRIsmJKW3YUV4htN1dBue+u99eOiZV7E+Ji78tWjOFHJpbhK+6khCeQP6jhihbIjOrT/BX2+8EeOnz8PpE0fw9H/uxkuvF4PZFzwuZhtefO5ZPPl8Eew9naRTHUqEnwRdMOTTFvjzDX/G4PA71+tXz8b/3fwn1HinvromOnfUS8UHjxqNQ3tW4r93/x/eqlANiS69y3aegrnwf39/GLt3HBI2eR55HrsfL73wAnafP6vs18/5Cf++4SY0bdYC5yX7kyS7nUF+gzhG0pWADnWq4Z4bb8aMhRuU+9mTR+HWP9+Olp/yHW3CiQa1aksc7sCHXw/GlnOxqtcLBTxwup1wcUMp7xl88H4FtVv3woV6tvTQ/h34sO0n2LBnq/KjRbWy+Mett2HhtgMqbxNiDiHHv/+JIm8UxJH4JHw3oIdK54jvF6n7kxOP4PXcL+KOu/6L4WNmIUH6ZJZHvfeqK3czFumNQY/v3YoPP2mD5bv3qwcxfIWLY4EQt75KPoQKLwqZfuRl7D5wRuyBXStW42833IK6jT7CsaPr8eqLDyDvm3lx4kys8q9GlSri/02Yt2iZ8HEv3n7pJTxz70PYcOis1EsfDu9ZhX8Lcaxd832cl/HBR3Wq4KYb/4K5S/TMNDc1K14sD/729wexYO0OiYdUb/VDMh2vyLSKiMCQ6Vp1vlTklfkE32nULFEED9xxD3ZsZN0M4cyRPXjmb/9FhQJvITExFl2/0O/uD52Z9grasK++xJ9vvgl9hg+WsJzIlU3S/UIuHDvH+eMUbF42D/+Se5q3+ggxCadRvWhe/P22W7H9kJ6Z9iaInr3wDO575Dms2H1IbRymNnLjyhGpL0N6dcBNf/4zmjb9CMtnzpE6chNKVHwbiQE/9u1ci6f/fQfyvPYGVq7bJvq2BzPmzMWkKT/i4IkzUkdCSObn1SyZtrCwsLim8ZvIdIAdRDpkOPksoFtLpi0sLCz+CNheavklMs2Z6UDQgaD7PFJkkF8pT27c9qcb8M9/3ok77rwD//zHP/DYvx8SQvEn3Hbnv7Fu5z4EHfF49fGHkfOlN9Tnozau+EkN/qtUrYm1a9diQP9v8M97/o0Bo7hMO4BObVoqQlKzaVMhgLPQ/O1S6vq53IWw4Vw8abTaUTzoJ4lzY8GcKfiT+PfUKy9h/MxZGDriezx2/334y5/+hJGTp/MlXzStxo2o/oIW7btg/vz5aNG0liKYn3XtjyRJuivEHa9j4OMnl4JBjPmyC24WMt3gk9bYtms7jhxYh7tvvwkPPvQkvv9+KkYMH4V779bLakeNn4Rzx7cg++MP4ulnX8GchfPQie9kC7F78OEXhbyeRCj+BHLcdw9ez/UqdkseEBuFTP9d8umDDz/GuUAKHCTTKUmSNu6A7ULPFo1xt6Tr0w5fYf/+A9iyYr4K7838ZTBv/iIhud3VTuo3/uU/mLH9CEg5nRBiyO9m+/xwK6aYiBkTBuIvN92EcuWqStoXoFULLmG/AU0+bS72HrSoUV7I9O2Ys3mvItPxMQfxsqSteP5COOP2YNqkocp9lRrtsWDBErT99AN1/Z9HnsSJWP0ZLy45njR+LG686WYUK1dR3M1H++Z6E7UazVpIjWJcOBiQ7CUxdR5C+ReewPP/ew77D59TvfWu+Yvxrz//DQ2atERszFYUfCMb/vPv/2Lq9FkYMWw47rztNtx0+51YtnotBwt47808eOJf/8WafSdUrT2wfYncfwMqSTo9UubTRunN0Sq+XU/yawG692yPf/zjr7jrX49hzsrwO9OMliHT/JRWKplepO6tWbdjmEwnS+STUa9CZfzvjv9i71aOWUI4fXg7nrntn6hW5C34fInYtmU2br3jFmTLnQc/zpuLuZPG49UH78dj2Z7G7qOH4XGKLmTLjueyv4Kj5/RjoY1zp+M+CathkzqiZz6M7N5Zhf1eo8aYM3ce2n/8Ie7mO9OPZcPSnXvV6gq1kZuKqxtDvtErJCZNnEYDdPqklVzfiMVqhYAf775dHH8S+9FjJou+rUfBgsWRO09hHDmXgGTJRy/1nJ5ZMm1hYWFxzeI3kemgEGTV4YZ4ntZqmzN6RvMMOXQqaGlbfAsLC4tfhmkvOXgO/3EZaUiIdMQxJBII+aX95dxYEJ6keOR7+SU1kE8v/77nXnTt0ZueI/n8OTz4r3/g6aeeQXysEFZXArp37YI7/+//Ut1XqFIVx07HSLsfwNqVy6WjeCHVrlyR/Lj1r7fg4ceexp6YWCH07AM4Q04iF4DblYQeX/fEX27+i3J///+42Zm+f8yEySoOMSeOo0q1Wql+Utq3bY1Ep0tIJ9Rni0jQ/SRU0rnsXrEKD9x7v3KXI/crOB97HB0/I0nR9z7wwP+EGL+mznv17ivZ4UKfXlwOre2fe+EZFClSCLfd/k/MmTEPvvgY5Hz6MWR76ikciolRcVo9dxZuErf89FJSIASf8BhfihtBIdQsiwVTJuLu2/SO0W+VLYfk2DNoXF8TVMqz2Z9E/jx55PxmzFy5Xj1k8AkhCnFGWtLgVx2vG25HDPr27oNbbtF+UfIVLoA9B/mucRDVyhTHLTfehCUbtskVcObEQfz3tluQK8erOJuUjJjTR1GkoN7si/J67tfw1NNP4LZ/3IWd+6TvlvwjCeM3ofsNGIJbbtU7kFPy5C2ArXv3qfSwz1YiZeaKO6qW/j/yn4dx9LjOj91C9G6/4RZUrV5bHDkwbcr3uOMOveP7Qw8+hLLcjf1PN2LQkKHKo5Kvvop/3HI71m7V70zv274O/3fjDShdoiQ8HheciTH49EOukNBxqVG7OnK/8Rruuf8JzFuu30Nn3EkiOVvOTeXCYxUh0yvUPVVqNAw/Bggg4IlH+SLFcOdN/4eN4W9ynzqyF/f99XYUeT0vEhNixa8ETJ4xAffer+sOJfcz2bFyzRrl3u1MRrZHn8Tjj2XHgWP63fnV82eqBzt169aWsLxIjDmFZg35qoO+v0mDhsj54ot48PFsWLNzjyL3fvJfKSzufj8g/GmsQQOHKP/27tiGv//9H8hboAhcbhc2rFuOokX0p94ofEAxYeJUVdb8PJhf6ovKCMlT6jkRbgVoquQCXGRgYWFhYXGlcQkyvfoiMm1hYWFhcfXB9jgj4Y7Dfr8ffp8Py5Yuw+zZs9V3cGdTZs/FjJkzsXatXpocDAipE3dLlyzCihXL4HaHZzIFmzZtFPczMX/+HCQm8v3QFCRzUyzBgQMHMWP6dMybNxfnzp2VcJZiqYSV7HBcEA8zsg8EAuL/Cvw4bZraAfnYsaOYNXsWTkin45Pw6So5ORnTZ8zErJmzJL6zxA+SciFJwZDaeyMQ8Ct/uLmYWGKNEKAZM2ZgyZIlKiyv14NFixZj6tQp2LZtK2KEFE+XOO7bt0/yI6DyhDO/MyX9hw8fkjQlSDhzcOjQIYmDF4sWLsTy5Svglfg4JB0xZ05j8g8/YPv2HULk+RBZCD3zVuy9Xq8QQjfmzZ2Ln376SfWVRFJSEn788UdMmTIFO3fuwIkTx1V452JjJa8ZB59KA0G/DDniOTfNYnymyr0nT+nvPzNvNks5zJVwYs+fV+l2Op1YMH++CpPxIJhWlhXLOfZ8rKR5DxZIehISEpQfDNuAHTzrxCwRE46UmIoD89vn9cHlckqdWCKyVOqEW5VncmIi5s+bj61btzEaUi4BbNiwXvJ7Kvbs2YNkIfaz587G1u1blV+bN22SPF0kJDaJk8RIiI3DPInj5g1r9ey8x4H486clD+dg1Zq1Kh616jbEX//vX1i0Qudn5IjD1CumJz4+TuUJy0alL1wuGzdsEP/mqXQTDkeyyqt169ZJefFxhvZxy7ZtmDVrFn6S+nHwoB7f0N7lcmPJomVSn1erc4Z3Lua01MmfsGvXNslHN5yORJw7e1LSNh+bJP1EgaIl8eBjT2LrLv1pLJ8/KBKQvPOousa4Hjt2TO6Xup4SxMaNG1XdZT0j4hPilRvWpW0SN8Ir8VFlElF2FhYWFhbXJiyZtrCwsMgi4ACcbTVJ0KXA5tznC4RJhgbJdIjLxtXS0jQEAl5lFhAyQNL6sxBP2aFogqM7lkuB8SS5pHvuSh4J2pEAGzc8p9/qQYFIJGh/qfDo/6VAsm3AGdD07plHJK4Mh/Ghvek4DUhyDerWrYucOXMKUTuortUKgnB6WD4E7zdlRUkPnSbtlqAb3kOSZ2DMLgX643K5lNtI/wyYFpO3dMNrtWt5OtAfA5/Pr/yMhD/CPrJO+b2SDn8IoUBaGvne+FedO+Cfd/0Dn7Vrjb1792Ldxs145LGn8dATzyBWiDkRmSs850MNxiMyLow7r82DBYJ1n2aRcWLa+V54RnnA+Op6FVEPxK32Ny2/gxLvVi2b4a5//hODvu2DA/v2YdGiJfjHv/6D1zj7nexQ8fSKPyTU/og6qcoq6Je8S8sbxoVhpI+Teogk5iwTHi0sLCwsrm2YvtiSaQsLC4soBwffhhRpAqFJG2d3SRC8auZREw8SUIrL5VAkWQ/iSU446Peqa9IYnnNmloSas6v0Q8/kuZTfPDdhpScHxoxk05grYiHmJEAmniRAxm0kuaMb2pv+h+a0Z9h0S3ueMw6c3aZbiiZHaUTLEGCe88hr2hnhPTya+zhryDCN8B5zn7mmOxNv3k/Q/xdffBG33367mhWnWxMHQ9qMW9rxnPcTdGPsTXyMmHgQxoxuTDrMPfTDnJvw6L8hmCb9JhzjN814buJCf3kPxbg1eW7y0tjxnPYkih4hn7z2eFhP/Oq954AQy6DUP79H4iBu+J7/mtUr8NRjD6cub6b8657/YsQYvUN7+tEGr/l6Gf1mfJkOE3eTXsLYm7rJ+Bm3Jq94pDmFoHuTXq7WCAS0HxTuSxDwSzp9LvE7gAUL5uL+++67IN4PPfoEZs/XG8BxJQXfgOPR69P5zXgwXOoVH9Y4w/VV55M+0g2PJm8ZtrGzsLCwsLi2YdpqS6YtLCwsohxspw1J4ACeDbwepHOWlw0+yQeJEwfwhlCTCKWRTyOadKT5EQna6/vSZjYjYe6JjA/JAd0bM95vzEyYxs6QPrqhmQmLbow5z+mOQn/ozpCoSImMozHjOe+ne4JmvN+4NfGkG2Nm4sF7SbwYLs14TXv6Rbdcsjtt2rRUQs57aMdz4yfN0oNmtDNu6K+JJ/1lGhmuuWb4xr1xZ/KObnlOMfEzbnhkWJT0YfGa8TZ+R5Jp2lF4bcJiPMyqAD58CQZ1+CrPpE4FhFAGFZlmGHw4I+dePYt/YP9ujB41AuPHjcPwEaPU5mXMFc7oph9t8Fq9ax5Ohw7XkFRdD0ze0FyFL24pBK9px6NJv0mvuYfnYiTkWesLl2l73E6xl7oYZH7qurJzxzaMGzdW4j4SQ4cNx6ZtO1X8GG/1EEHu5TJvdYwIj7pkriksI8abdjzXbnT6jDBuFhYWFhbXNtheE5ZMW1hYWEQ5DOHhwJwDcU0QzMBckwwi/aCdQre05wCf12Zwb9p+4zf9NQSE7ujGnJv7KHTLo3FLd/SbR5oZ9xRDhngeaUe3jJPxg2IIiIkviYixp525Nn7wnOC58YNmkfHjfeY6MmzjL4+GCJlrIySfJo48GtA/zsgbO0OYCB5NvlHoL93Tnbk2YUWe04/Ia7o399E/2pv0M1zmKd0ZMeA9Jr28z+Qz/WVe8Jx2vKZ/dMtz+mvyitcmj3jO94FJqGmvrxkvceOVuqb8EndBkmyXHNOWZRtwKHI+MVltzpY22gjXPYr4x3jRf4LhmvzguZHIByomj829RGTa6J52lLS0pKWVm6XJFVJCck9Ayo+b4GUAv+iWR9LJpegk0STODMOAfjFck9f0P1KYJhNPk/88p52FhYWFxbUN01ZfRKZXrVqFp556Cvv371cOfi8u1SGYTswg8tzi+gXri6kLtk5kDXAwaQaLFlcOJn8NiSBoZvLeSKSdgbGj/kUO+Am6N+d0Q3tCk4+M2/dIf0gOeKQ/vMfYGzFh0z7Sb+PWpIdujVnkPYaomDDMjHOkexOWcWPujfTPHI2dcUsheGQ4tDfxoxtD0CKFdubckCOamXB4n4HxJ/LcxMOkK9I+0s6cG3sTNq+NW3O/OY+MnznSLj2JM/cQGR1pz3v0dZp+mzDCl2LAE5pJPUhhWQop5e7zQk75vjxfqWapk0invWvMe4wH9EKnk6DfJo6R50wLQXeRcTFxjYSx55H5mHqu8s7YMc60kzAk7iqN6qGA5Gt4lUfYqbqPZJoIG6WGYeJgzs21yfdIMwNjdylE3vNLbi2ufbAMI/XRIrph2iPC6ml04PeWD9ti4sSJE4pMc9NVRaZ5QoMjR44oBxYWFhYWFhYWFhYWFhYWFhfizJkzeP755zWZJjNftmwZnnzySXz//ffqMyScqaYlP0WyVH0K5ZeFbjnVvXz5cixevFgd6Q/9ph3NjDn9pnlG/li5voT1jXWC56wXrEOmfliJLjFlOH/+/FRdp5mxs5JZwnb7Ylm2TJdF+jJjO802mmW3cOFCdW76gPTurVwbYvpZlh/LyfTVph+mG5Yl7SjGLK2OXBmJjGOkrFi6WGSRnIu75RLf5auwdNkKkeVYRrsli+UYTsPS5SKZENclErclGdullyWMtzpnvCLlQndXSpiH7Ct55LUpU9aDyHy2Eh1iyjCyr6TuGjsr0SMsM5ZhZD9KXeWR5pHlbuXaEpYfdY+fVDTlZ8o0sowjheVKtyzjcePG4ZFHHlHlrGamFy1ahAceeAAPP/wwcufOjZdeegnPPffcbxLe88ILLyjhp0Jefvlldc7dTo053ZDFm+uM/LFy/QjrBuXZZ59VdeO1117DK6+8os6NnZXoEVNu1H8en3nmGaXn1PmMyt/KlZJnRZ65SJ5/nnYsi/TyHHLkyCG6l0PK60Vpu19Resjjiy/qNtzKtSm5cuVSQj2j3pk+lv0vy5XlaPrcC+tI5srzUicpPH9W6tyzz78kouP0vLT/Lzwr9VPVU9q/oNyYe6+UPP+slozs0suzSneunpjyZl/JsmWZs2wj64KV6BGWIY/UWeqm7SujW7Jnz47XX39djWFfffVVpZvsUyks1/Tlb+XqC8uFesgyYr/JMqM+8nip/tLwFSO33nqrIteKTJNtZ8uWDdOnT8ehQ4fUZz52796NPXv2/Grh+9b8hiTv4/305+jRo8psx44dyv7w4cPqe5w8p2Tkj5XrR1gHWF8ofDJE2b59OzZu3IhNmzZZiUJhGW7btk3p/JYtW1TZsg3IqPytXClh273rItm7l3b7LpC9e/dh8+atWL16nZTfFmzduh3r128UHdyszjdtsrp4LcvatWuxYcMGdU7d27x5szqn7pl+dufOnVLWe66qHu6VOrlX1UNeyzghLKl2u3fIUccz0u5Kyt7dWvYovYgwD8tuMY8UxvtCufC+KyUst/R95fr161U7a/vK6BVThhzzbN26NbWs05e/lWtbWGZsY41esg1m+2t1M7qE5WXE6GNGwrImx+WG3bNnz1avSJNDKzLNae5HH30Ux44d4+VlAafJ69SpgyJFiqB48eIoVaoUvvzyS5w6dSrswsIiDb1798abb76JkiVLokCBAihYsKCVKBKWWaFChZA/f37ky5dPLV+ziB7Uq9dAyrAgihYtLuVZWM4LoXDhIheVs5VrQ6hv7Fupbzyy3eQ5zd99912cPn06XLIWWQ0cR7GvLFGihCrvjOqHlWtbChcurPSVfSaXi1pEN0jG2A7nzZtXlSvLl+MgnmdU/lauDWH5sMzMNc/Ztnbo0CFcspcGOTNXlaTOTPPdmyeeeCL101hmp7LfArOTHT8d8sEHHyj/qlSpgn79+mH8+PHo2LGjiiQD7tu3r3Jrdqc0Yswsri+w7OvVq6eWyIwdOxajR4/GyJEjrUSRjBgxQul5//791YO5wYMHq7I1O+daZCbYlrIdTS9pO1eyuQ03ufB4vHj11Vxo1eoTTJz4A4YPZ3mOEj38PsOytnJtCNvJUaNGKd0bMmQIJk2ahM8++wyPPfaYmhkhuFNw5A7YmQlWLyMa+uxis6Ac0urnhfZXECagdIFFGkeK/r1YlzITbE8rV66sSDTbW9tXRqdMmDABvXr1woMPPojJkyenlq1FdGLKlCnqNdmePXuqMezQoUOVcB+qjMrfyrUhbD+HDRumxqsTJ05U70Bz4rdMmTLhkr0Q7EfNVzUI7ubNpd+p70xfju9Mk0zzm4lNmjRR71/PnTs3bJMGfgfz888/x7333qsiTTBiJoI8suO3uP7w/vvvK0JtEd1ITk5W7/OxgSJ+T1tikbngp6X4vheJmUV0g8tG+U4Xl44SRv+ueT20zcSvAsdH5cuXR+vWrcMmFtEKrh7hu5s//vijurZ9ZfSCZcj3bOPi4sImFtGKNm3aoFy5cuGrjGEeTl/0nenLQaaJGTNmKKI8Z84cdW2+Y2mejvOckWjbti34wj5ZPUk4zXk0EbS4/kAyTbGIbpw7d06tMLBkOnpgyLQpM9sORweoW0ZMmfGdvagk0xa/ChxHVahQAS1btgybWEQr+ClaEjBLpqMfLENuHmder2F7bMszOpC+nFq1anV1yTTJcNWqVdGwYUN1zVlqkmmaswNg4DQjWOE4NT5w4EB1TTu6M+cW1x8smc4asGQ6+mDJdHSCumXElJkl01kblkxnHRgyPW3aNHVtdTR6Ycl09ILlFFlWV51Mc0DGbcKHDx+urukHAzRkmsu4eTSkuW7duqhfv/5Fy7xtBbw+Ycl01oAl09EHS6ajE9QtI6bMLJnO2rBkOuvAkumsA0umoxcsp8iyuupkOiYmRjUM8+bNU9cej0cdDYGOJNUENyTjRhqJiYnqmjDLwi2uP1gynTVgyXT0wZLp6IQZBFAsmb4+YMl01oFd5p11YMl09ILlFFlWV51McxdvfvCau4oShjyTIDPgSCJN8PMd3KyM5qbi8dzi+oQl01kDlkxHHyyZjk6YQQDFlJkl01kblkxnHVgynXVgyXT0guUUWVZXnUyzkedMsyFEvKYYMk0xZJnhcAOyyN1jTeWzFfD6hCXTWQOWTEcfLJmOTpj+kmLKzJLprA1LprMOLJnOOrBkOnrBcoosq6tOpgku8b7//vvVN9ciwSXfhkgTLVq0UB3+2bNnwyYatvJdv7BkOmvAkunogyXT0QkzCKBYMn19wJLprANLprMOLJmOXrCcIsvqqpNp3sOl3e3atVOfxxo/fjwSEhLCthpnzpzBJ598gkcffTSVcLNz4H0mQb8nbIvohyXTWQOWTEcfLJmOTkT2mZZMXx+wZDrrwG5AlnVgyXT0guUUWVbXBJmmcGD2+eef44knnkDBggXRpUsXtZy7WbNmyJYt2wVP4szGZGYnb8IO5K5PWDKdNWDJdPTBkunohOlzKabMLJnO2rBkOuvAkumsA0umoxcsp8iyuupkmp7zO9Lm3rVr16JTp07qe9I33XST6gD69u2rZqfplgTazEjzmp0EjyaSFtcXLJnOGrBkOvqQWWSaNUFJ6omIOugT9Rs2s/hlULeMmDKzZDpr49oi01KnTLXiqa1ivwl2mXfWgSXT0QuWU2RZXRUyHemOnpMgG1Js8P3336vOnZ/OMnC73UoI496Qa4vrE1eTTF9Y3y9V93+NXrDuc38Aigxywyb6TpppExIImilzFb5R6FRThbQzQfgiQ/1URia0tBAvws8YXy5YMh19uLxkOlz3UoudJ1LfQ9K2S1uPYED8D0J6CpEQQqwfIan7QV3/gyliniJueF9EVU4Rc2NArcqoXl1kEjbgwUhGiPTrQjfh8FLD/nm/MjLToJ7TDyMZu/o9oF9GTJlZMp21kflkWtffkNIBqUOsRjxIdWOV0nbUZL+cU7c5QSKWtBe9Flsx//m6F/ZOge4vMAgjA6MwWOc5ZmTcxE2EI3OPioucsZ0xZqrNSQdtomzVWWbAkumsg19PpmmWXi5EpImuv1p+a/2IdM/z9HqY3jdeUyJ1xUDdH/YvvV0qLjA0rtJL5NnPQbvI2A1NtU5fLkSmjcg0Ms3Z59+CWbNmIVeuXBd8FuuXwA6DiIzHHxvgWVzryGwyzTpm6pefA/zUusYBgR8B9XCHD3rMJ9s4YNUDBdbFkAz+/T5p4MLVMq2min6kOKXCuqSLD4CPjNxiGeBgJOgU0iDmKT74ZPDhljB9vDEgAxGJg5c734udP+hFQMIMBTgY4b1yq0fciDBAn8+r4huQuAXEkkRELsRKBjUp1E+JJ+MrxmYoQ1FQ6dSRTjW7jLBkOvpw+ci06JTUbFXH6IUcRHtUnQxJnYbHAzgdyk1cyI0zQR88Uu/hlLoaLzoleuBIcSA+5BAX4he7DLklJHrmcieKPy7RDZcchYqLfobk3mCAX4uQUCQ8hs76HhIdSaGBmHOATv3hkNsj+hygjqiBTkjOg/DxVaMwwVfn1EnqnlxTF1NCHunzkuVazlVqGI4WAxIGhq3MmfRw8rWOij4H3BKGR+Lqhc/rCudPWOT/94K6ZcSUmSXTWRt/lEyzFmQkSm/Cov/0FWu2V+quy5skrqSWs08SFfdJp+YTvfRK3XYF46Q3S5DqnCy6koSg9E9UOLcjCJf0g27WfaUYEpYoidJPOSH9dkm9dAc8St/8XtEx8ZP3pj5ckz/RciWMjfpXfZ64kTYkJSVeziVM0SWv7h6lXfDD5ffCK/f7PcliL+2KjFvdon9Ovw/JftFzv6TDI366+Zqh1mfqaCDolrik7eFjwHPVbvA8A/k9sGQ66+CSZFodpGIqUb2EkpQU1jP2TMZO6pjcw/4nKBU5KP2h3yf9hfRZFL/UaeoO7fQDXtZR8UfCClInJBzeT10IiplHFILnrLUc47K/Y1SoR3w4RjfsOwPSV/pE3KIXHjkmiR565ch+089xJf0UHWLbw1h6ac6wVJR1HLRii4H4p3QlnD5pMFKPOt0qdDkLpzn1PuWVstO9NV1IuGJGcxVxgm5l3KD9o1sdPy3KRQagu5+1TL3fINPINAde+/fvV0u4+W50hw4dlPA8IylbtqzymxuT8f3pjh07KnNzjBSajRw58oIZahOXS8XJIvqR2WRaNSJSz0hMRZWkYZHOXBqrFBlAB+ToccsAQPQlII2JJtUUdrwyIJbe1+eTDl6RaV0vU9WVZDaULOJSAwBpCiHUWgYO0mgEhUgIoZbhifz5xVwaTt4kjaZH9MorHT2Jh1/Ew8ZLWiyvhOFhHISIpPgkXLcMzsWdTxoUaolETUiH/Ei82AiRqIhDiQ8bLMZL0sajUR/qEUccPFW/lxeWTEcfLj+ZlvvDCqE6VTELyYA5kJSIFGeykFaHkGmXItNu0aNQotRQkaBfBt6iFUlS/72ia26HENkEqdPSewdDohdCsv1yr9OZpAbMJNLUR3byAYkz67nqhjnYoPKKGauf0+ODUwYWXtETn+iOrpMctPj1fSJ+v0cGH6Lbcp9H9JEz5Gpw7XeIU4YhA34Jgakx3biBNtfha51TSRedE7Lhk8G53M92RbUtQj6CfIBAR1RKOvydYDqMWDJ9feDKk2n+8k9VUBmEC5H2JyuS6XY5ZBwrdV26Gg7evd4AXDLY96QkyQA7AZ6QENsUl4z7pX9K9MHjFPugSwi1R/RONEO8ZJUPqjrLuWz1HE0G8TJ49wgxls4s6BbxiC7JuY4FibT+UxrGflv6RL9P2gXxO+CJkTjFKQLiEXMVP78QfPHTwX5b2hSfxyn9aVAItUPiw4fYQgiERAcdfoQkjoyaU34CfABOgi5hReoWwaMl0xY/h18m0/yhTrGHUCM3MeHjJGoBzWjPGs+xIkms1HfpH1Ok3/R5kuXcI9ZSt6VfNA+jAtL/8cgHVSooER79Uu+9oh8k0sZX/eCYky0SohBRHyeMRCfo1iNu+aDZyaPYSw8u41Mh2OwXqYcSBh8mM04+CYtkmnac/NFhSrrEDUXpiQqR15LOC4i0Fuoxf8VC/tkoUORULnX7wxhIXOWPd6ixK4VgODIW4BM9jse16HB5f8YIh/Uz0Pem2WfqMu8dO3agRIkSqVK0aFEULlwYhQoVukCKFy+OZ555BnfffTfy5s2LYsWKKfclS5ZU96R3TzfsJNhhmDiYhP7+AZ5FNCAzybSpT3zaFgjIQFcU0ut1q/OgNGAkq7RnlSOR1o2Vds/BO0k4SXZQPbXTfqaqK6fTQpyZFjIupmpmWkQ1HtJRy0hB3MnAXhpTzkzzCZ94pAYT6ulhwCmNlRdJKhzOQqcoMu1zOxShDsggQMVT/PBLnCR64q94IoOdFDYwMmBnQ8SngWyWaEXRcaPwQhuoS5pfRlgyHX24fGSa97FCptUvdoghqYtBqc8hIax+d5KaXXbDgyTRBa9X7GXwnCIdPR87+WQw7pZ67ZdO0+mUgbAMrgMy0A2KXgX4kEjEJX4oHSCZ9nmFBPPBF0PSoStdZL0Lp8Pj86sBg8tNwqx1myulOBhwid6pWQDRe3bKHOhzxYdP7HwS35B03Ckk0zyq1OiHUxwumBRSeM2rSOi+Sw9EfDKoD0qbEBAmQjNtp+X3ItIPU2aWTGdt/FEy/XNg9dB1yWgQhQN3nyLS7Pvcoj8+0aWA9I/UPT6Iph5xkO4Xd94Up+iPS3RZzJO98LpE50RvkoXceqXPZBj0nUNres9ZJz4C9lPv2Oeyr/WzT5M+zy9thuil0jgelc7ouLmlvfJ4hEjzwZRPiIYQDqcQe3WP+JMScMEr+ZTklgE5H+L53HrWTXTQIf18klfMSbwlju5EIftCwJ1BuZZ+MyBtk1/uIYxumfPf3y5mDLsBWdbBL5JpJfxJ0y1FphXRZP+hnbD/8cl4j4SZJJRjOq6uUGRaaihXUam+TtzxoWxQjUUpQorZt7Eei73q0+RI3VTuRczsNPWNZJqTN7TjONMvOsce2CvXbhkPe0Q04WU66Icm315x5xb3FK/olEZaukw62Fcas0ihuWi5pJ6+i37xj/kSdkJdJ5mm0KXxT/8Q0gZIfNQqTImj7ksZR/oTdnIR6PnPWobvTbPPNDJt3m3mAIzvPTscjtRzfk86Uuh2xIgReOWVV7Bv3z4ZOMnAR8x55D3p3Rs/6D/jENl4sROxyLrIPDJNxWPjokkpB7rh7v0CsC3zeUXtpfFgfSQ42ObTQNZr1kfObhsdTVNXKrsQZhlEsLngUzw2g2wi1Po4DtqlkRTtEDup47xJ/PX6ZEAghFm7BuLZkIZ9JOEOyMA+hcvnOAIJgxrh9Ug6PGLOBkY1h4wrj3rAHhFFfRIh5vRywpLp6MPlI9MCVdysuarG6zOp31pDhC47E0WHhKSmcLm3ruuEwxcvHXys2PFVCG3mFR1yiK65SaalIqsHWOzovQ7lh4FaLSJ6yRBY+9kFU8e1comZ6C/1lUfqbkbgyhS+3mHg53RVGOohVZhMMz3aV4ZGNwyR5+F6Hj4QJh/9MpjXAyeuaOE6FdP5a/m9iPTDhGXJdNbGlSPTrJOGsJp6LcJ+JUykI5sFn+ir03FeLc2OrPNcVcWZ4ZA3mVfKzCV9mVsG9XyFwvRQDIbqyUe+Bl4huZxBZr/oFUu61f2mCPWZN4n4/E4hBUb/Zdgt97nFU5f0oX5vgrjnerCMweXfThJ2IdqEJE/CTIGLGso+m/GnIe0kHpH6k6EO0SgD418DS6azDi5Jpi+A1CNVq2UMqnsq+UurRtQGEmmuvOKsNCdf4HcpQp0RNB/jeJR9HDXrYjA0jxBnjih9qi/WILnWZFqOElfaOL3CxSRsxo7jY/XASo7poVoIibBOoYq1krS0hM2MomuHKsWMhxHdV4ulck73NNVjWf2gQSN8u0D7qdsqfe8v6w09/3k36f3INDLNxpyDL+KXEwHVUDCw9N+c/iXQb4ZlwvhDAzyLax6ZQ6ZZl6g4XKLilIZI12MOlNevX4WvunVBnz59MG/+AqmvuvHyCFlNTnZi1qzZ2LZtq9yrB+VBPgEksQ2rQKomqEG8NAQy6GeNZbdMUfZsWKRO8yk7ybSPdZsWcu2Ths3pciDm5H5Mnv8jDiSdR3zSOcyc/RMOnTgut0nDIoTB60jAnLnTMXLcKJxLjJOwJD5qHwNp/BSBl8aXgwE+uRN/GXYq/1ZhhUXcS07o08sIS6ajD5eNTLOo1a3sSln/5YL6IMdVa5Zh1rxZMuBlJykOA0lwxR7GyKGjMGfxcjhTksWOSzaTcfrgaUyZMgnHY0/IQFzVaCHUXKVBMk39Zb8QwIplS7FQdFUtEZVw2MGrTp4hi/6xEw/IYJ/vnqUEOcjXg4Ld+/Zi8JAh6PV1L0yfPg2xsWeVOcnumdMnsXDhEsTHO3AuJhYzpk7BscMHwFc/VLjitx4oMCTRLnb4TKPSZSP0jPnIE52fCYnncfjofok/SfmFAwEjvxWR95oys2Q6a+Pyk2nWC9YhqddhvTJaROGDJJ9b+kohrHyYtXXXdsyYPVniES/dUbx0M37EnjmPyZNmYPHS1WrJNnUlGDiPQ0e3YuKMGTgaEwMnH3hJGNRlPr6WoCQsOZGw165ag0XzFsqAn0uwQ3BKXXYpt3qAr9SNJEARgQB8gWScjz+B4SNGYNOGrfD7UuAUK776lJLixK7ta9Cn77f4+pv+6NOtJwZ80wcjR4zE7j1b2TLI/SmIO3kGMydNwcGDR3T7IpFxB7gnA9/vZtoZvwt1M0Md0tn3u2CXeWcd/HoyzeoS+Reu3mEhONvsdcn4k32Wi3sCcEwXwNZNGzBk6BB8I/V5+YpV6gGXci/k1+ningaiHTJG3LJlCwYOHIBu3bthybIlagaa4OoQvta0UcaxM+fPhdPtVrPNJOSc6SaJ9/i5opIPrFzS33JyR8a6Pje2iZ+9v+2PXn37Y+WaDXBxFYjYKv1UysypIwr/mK7wmfjJfpgJZVojibSexhK3zCda8sjZZmVqRs4qBPFJoNyxjdJ5a+TSoD3v/nl36f3JVDJtZo/NkYXBexhApBATJkxQDcbZs3rAQnO6pT/p3UcKYdxdKj4WWQNXnkwbpdKK5ZLGJyiN1b69O/HeuzVQpHA+1HinGho0bIRSpcuJlMfqNeul7kEayBgUKlgIo0YNj/DjUviZ+krPSAbkj+9Ms9FK73TdijnIUzIfVh7Zi537NuONvDkwb+libSkNybgR/dGw0fuo16QRun3dQ3SQT+J1Y0kCo5sogxC8ElVOsumdUiMCY4Mkfzo3Lh8smY4+XG4yzXrFuk3qacj0gMG98PyrL+PwmXPKKWeP1s4fjxtuuAG5ixRFjFcG5txdQOr48D6D8HoucRtzDA7xIv1zcb2zMNC4QQNUKldZDT4MaMMl4pzBZtB891Jv4uKC25mIvjIYKFCsGN6rUwf13q+LfHnzoGLlCtgogwXesHThPLz5RkGcOxuHndt2IvsTT2Lxgnnac6UtkZDQOJt9QX5dWN9N9f9pxjR82fVzda4HGvxNk9+jJ7zHiCkzS6azNv4wmWY1MKJ+tH4qZaFeqVlZTaSN+D1u+DxcUQWMnzwJL76STYjgNrHjC0wBrF+5Bn/589/w8iuFcT5OP9gC4jBuUj8891pu7DpyTIg0B9oRCAdLfNm+E8qUfAsuqcMmRmpjMhHqs/KO02AcC6r+zYtlq2fhhj/fiMqVaiMhyQUXVVHF14tvurWXduVPeP2N4ihVpCSKFyiE1yUezz33NGbOnSFugN0bNyHbw49g2ozZasieTAIT8Arx4KsYNJFwJXwjqeBpRvI7YMl01sGlyHRkNUkvrNqs40aoY3r5tkeGdS5RRwecSXHo9mVHvJrjJRQsVAgFChZGtuzPyXi5Ds6cOS3hkDMF5Pwkmjf/QPqvPGL3LurUeR85X82Bd2rVxGYh0CTMRNtOn6N0pfJIVJuB6vqtloKLP9ygk2TW73eKuRuO+DPoIWE/98yzeKNAQRQv9RaeePJ5NGjyIY6fiVFpUO2GUeYIqNc0LlGn2a9zxHoBGH4G91D9Tb+fHnRv5ELwmvGiXOynQfp7M/WdaSJywGUik16IcePG4aWXXkJsbKy6Nubp3aYXg8hzi6yLzCPTHHhSYQM4fz4GZUoXw9tVK2D/vl1hN8CJk2fw3nsNUKzYW3A43eqB0Zo1a3D8xBFxoRU6ISFeDVi3btshA4h4ZcaZKFNdExISZWC7EQf2h3VKguZMNncB5yZI7pD4G9I0gZud7dixEydEMbeuW4i3alXC0kO7kZh8GktXzMXx87HwhduRvTvXY+myBVi/eQP27t8tJn54PQ4kJyUjRho+pz8Ru3Zvx4F926VB9OinfxJ2QG0WoYbtyh+9nEbP5l1ODbNkOvpwWcl0uI6lda8c4Pqxe99q5M6fBzMXrFSmCDgw6KvmqFSxBAqVL4+Ve3aq+si9BprVegeffvKB3BVSA90zUrc3bNmKQ4cO63vDaNb4A9QXPXU6krFl60acjjmjzF1eD7jxl1mqzY2/uMP+kH5C6J9/GbMXLRYd1APmk6LT79Z9F4WKlYDPm4w1yxbKwL4cYk7FwpXsxJJ585EQe061FwRXj2zdvhV79+7Sy/AIIewJ5+OQGMd7ErBzxw4cPnhIskLre0J8Ej5t8wmqVKuIw0f2SticcwtnV1giNPNXI7K/tGT6+sAfn5nWtS29cFZak2mK1HWSaiU8FyLMZafi8sz5c8iZKwdmzJgkV+y/HBgy4BsULVACb+apgNVr9quaHEIM2nZoiDpNm6c+3o0XPV2/bRt2HTioObsEzZ2I+/fqhypVayBRSPvqbZtx6NRJ5Z73Jfu0noZcEpb0m3w1JCRE/bNOH6LqO++gQKGymDVvdbiV4R0e9BIy/XqeAjh8IgFupwdJon/nYs6iWbP6KFCkAJIdLhzfuRM5smXH9IVLVRuTFAqqh3Dq3Wz1J3EL6xYRqWPaMp38DlgynXVw2cg0Ra3CkN7P75ajF6uXLECO57Ljx6mTkZSUpPYSWS3j0Wefex6fffaZ3MEuyIs6dWuhaNHC2LZ1s/R9emx54MB+VK32Nl7P+yZOntWfJ/6q99eo+E41eIW06/DkV/oq/T62mEl/SSIthlgwczJezPY4fpo6VcbCTiRL2EuXrsJjTz2Ldl92Uf5xnwLixLlT2Lh1E06dPKWuVdrE33Mnz0n/mIDDx45j174DOHjoCOISEpDgcamNzPjAO07G0OckfqHwkvIz0pdv2rBG+tE9Ej9OPElr4/MgXvrY2IRkHDl2Ajt37pb84Jc2+DAhTTRUyiKEuZ0xIvWcyHQy/Wsxfvx4vPjii0Jczqvr1Ap2GcOwiH5kDpmmsJFj15uCiRO+x2uvvoRDB/fRgYAqq3Hq9FkM/m44Tp85h3OxcahZsybGTxyj7LbKwL127drInz+/dNpvomDhIpg7Z66yI+bMW4jSZcrjjTxvoHD+fOjY4TOcjz2vGha/P6T2BvALafD6HTh65CAaNWyEHC/lQJ1ab6Nn54/xVu1KWHPyEHYfWoMS5Qpi/rq1yt89e3ajSSMZEBTMg8LF8qFNu0+kYdI6O/b7oShdoSTadfkMBYsVwssvZsenrT/BuWSHWk7ul4aIgyKTC+oJoOQFU3w5NdGS6ejD5XtnWu5TD2lYs9SVgENVJ1zuYyhVrhR69ebqDun8k2JRp2pejB0/ENUa1MO3o8crc2fcGVQsmg/Tpo5T13NXrEOF6jWQt0BBFClcEl988RXiw68MNW/SHK+9/DqaN22CggXzIV/+gvhh6iy1XNThcYieyYBEqXQA50/sxBs5npX7u6p7iWCYbG/buQVf9ewNlyMe61YtRPFCJXA+Jh6H9x9CwTfewNoVy5S7XTu3y4ClLvLIwKRAgfxo3qwpTp48puy+GzgI5UuXROeOnwkZL4aXXnwJHT77QshPCMuWr0K2Z7Lhv/fdi5atP0CSI0HpnNE9EmlLpi1+DTKHTFNIokWXyXq5aZ568KtnrmrUqI5vvumhrt2uU/j4o3oYKX1lswYd0bvXGOVjkvsEqlQrgaGjdZ+5avUKVH+nhuhOXhnYF0D71p8jPpZLxf349ut+eOnlnKjfojkKlSiCN/LlkXHjOKUfnDFWryl5JS4+DvDdOHFqJ17J+TQWLF6CJh+0Rq26LeAI8AEeHQbwTbfP8IaEcTbJ0HiN+fOm4ZVXX5b7z+HE7l145emnMG3xMjW/zjk6hieJlvjzT84i9IuiNoXSTi6W3wFLprMOfhuZTvtL08CwyD1q1a6QypTwa4iTxo5E3lw5kZygJ20Mxo+fgN69v1HnixbPQ17Rm8WLF6hrDR3+aSGpefLlRd9BA9R1z359ULHG2+qrFSo+jKeMTbnCi0vGucQ7pMg0MHpYfxTInVOaAH1tMGbCD+jxbX/1rjUxc/pPKFG+FAoWLYQSxUpg0MDvZHwbFLUN4cN6zVCycGlpD2qi0QcfSftRW/rO5nBL++L0OeHzetCgcRN0++or5dea9RtRvlJl5MuTC8UKvYnOXTohNlG/dtmpY0e8/mZRVKhcAw0aNJJ+bqfqY/U+Rsxz5iLjlD5ndTwzgtFvA0umLaIaV55MG7DeiSLIgKFB/TqoXbOaNub7VqEAAqKM6r1ObapwOiYGRUsUxRhp1EjEq1WvhA+aNcGpU6dw/MRJvPNOLZQt8xYcyU5s274bOV7Ph+5f90bsuVisXLYIuV55Hl9+oZd48tMC6hMDQqT5lL1x4/ooUbSEDNR3Yc/OzXi3enE8lzcntsScwJ6Dq5C70KuYuXoN4hPPo0a1amjfoQtOnjqOQ4d24f0676BegybK36k/DMW/778LHXt0xZHjRzFz1mS8mPMljJs1Tw0SOLPAWUPTtKil4ZIHl25mfjssmY4+XD4yzZrGesbOSR0EHNByEOBGu7af4KNmbWiIvTu2Cul8DcdidqFj9y54r+FHynzzprUoX6YYjh7bj10H9qPUW29j0HfDkJScjD179qF0mUro1r2nctvigxb419/uFSI7UEjtcfTp2w8vv5IPq9dtkZjw29RcgUKXfqxbOgUvZ38cO3btUfXdwyZA+IL69JXWCIWVS2ehdNGSSI6T8LZtx/NPPYEtm9bB6XSgStXKaNe+Pc6cPYsjR48Isa6Djz9uoRRoxNDvcM8/70SPbl/i7NnTmPHTDGTP9jyWL1utNlZq1/4zNG5aH4lJZ6SN0U/a+diBBCCSTKvo/kpQt4xYMn194EqSaSOR1xxc6006PWLMlRgh9OvdGzVr1JDzFBw6sk10sgD27dqNcUOnoU6tFmq+euf+LchfIDe27dyNk9JHlilVCn379EF8UpLo4G68XbE6vmj3hbjkg6gRuOvue9BzcD+cjz+PCaOH4yWpw/OWL1czzj4Z6IMDZb6uIbr8/Zj+KF40n3ooPX3mfDyfIx+2H9GrUvgZu97dOwghL4hj56nbGi6HA/XrV0fRUkWkXfDh5JZNKPDaK5i0ZClfLhHhrJaciCh9klO96wP/0nT0AvDSyO+A3YAs6+BSZPpCsJ3XtYlTGZFVyAgJNcei6iGWjEtPnziK6lUqoHSpEuo9aK6GdLrCq6LC+PLLL1CsWBG1f4gErB5ScWWUS3SEaNi0CWq8W1udd/+2t5DpanCHV5uoeIrbAN+dDrJX4s7dvC+AQwd2oFLp4ihZvDgGSh+3cfNmOJOoMTqufAd7zbJlyJs7F8b8MEHIsx/z5y5E4ULFMXT0WOWmVaOP8cxjzwpJ3ow4uXfhvIXI+3oe7D68V+xDOHZoP/IVLor1GzdIW3EU+YqUwqChI5EQFytj4g0oU7Y0vuzZW4XZ+cuu+M8D2TB30Ur1Kpbfz42E9SvHOr/T2rQLhXYZg/dFlpUl0xZRjStFpi+qZakGKShVoji++Ly9DKo10eTSmM+/7Ihcr+dGrtyvo1DR4li9dp0ayJet8BZGjR6mlH/7js3qfoNJkyaLXyURH5+Ibl/3QYlyb8Pl1c+5ianjRyJ//jdwXvzhztwcXHNTiaPH9iBvgTxYsSS89FWwbMEE5C1TGJtPHcPBw6vxZok8WLh1J5avWoQXX3gRo8dNx9Spk6VBmobOnT/DE9lexOmTpzBlbD/x6zUcl8EI4Qskomzlt9Chz0B1rZb9CHvg4ITNpfoetgyWLt3M/HZYMh19uKwz06SJLHMWuzpwaJ2ozOfOmIYaFarIGCGIUd9/j/cavSf2AcxdMBdvlamovgwxeOhg1HrvPYlDEMOGDEGOl3Nj+vQZMuCcivkLFqFJ01bSn+SUQb4XzRp9iHrvNBa/Nfh5kHLlauHLr3qp4D1e8Z0vW0nYP43tgzwvv4ijx8+omSjur80pr1DIJTSBcSRSsGrRNJQuUgwJ0lHv27YNLz/zNLZv3YSVK5apTnP4qO8xR+KxeNkKdO76Ff730EOIPXsOA/t/i1yvvYy4uPCgXlCqZFl0764HAf0G9EerT/nAgJ/i0jurRgqHV+EsuxAZGmpQt4xYMn194I+T6Yxh6lFaZWN9DCEgfUSAT52oI35ucuTHqiULUShfPrVUc+a82ahQuaJ6jWjzig0onLeIkNhYTPrxJ1StUl0Rg+9HjETul3Ng+pRpmCbm8+YvxEdNW4hZHsSdS0L3nn1RvsY74eXguh43lOuWn7VTM8aKwnNTMOkzA9KvvV2pBHp176zccTCdp1AJ9B05ni2PIIQxIwbhH/+8G68WKok3ChRFgYLFkCd3brzw/COYqpanA4c2rEGO7E9i3NJl4JyXU+5WKiTBkITQL34fgJ8R4gN20h7q6eXUIkumsw4uSaaNWqlrVjJd0Uha9cMrXa+M8NkRCSKXeYf8JK5BHD96AF/37C51uQByyvjqzbx5pW/prj4TRzRv/iGqV6+hvZb7g6IXXg+/VqO1omfvb1CwRDFVr7v3FzL9TjoyLX0hX7lQn5uSuHm5Y35Ab0B2ZO8O9P1awi5eAK/kfAVF3iyAzl2+wjmH3vSsy2efoXjhQpg6dxZ+mDIVSxYsQflylVC4dFkkONxoXLM+Pv2wtXJLuBKTUbJQYfzw00R1PXHsSCH3NdX5oIH98EKufJg+dwmmT5uCBXOmoUGj+ni9SHEkJMajffsv8Pa7Hyq3hDSHqg3QM9N88MeVcCaPI4UpzRhpbZ+GJdMWUY1MJ9NyrFG1Kho3qB82kGZDCOfMuTPR/eseaNehPR7P9jR+mjkDbq8LJUoVxfiJ3yt3SclxmDBhLL76qitat2mHHDleRd48bygy/Umbz9G0RTsdDBvKkBPrlsxGjleex+Y9u+HizLQ/KOMCJzZtW4FX876Kg3sOSYsgdwSc2L9nCSrXqY6NRw5j9/5FMiDIibmbtmPCpLG459//RtFSVVGqVAmULVlYCEhxlK9UHceOn8A0IdNlyxXF8aQ4GRgEkOw+i+riT6sefeSK75uw0Y0g01y2Z8m0heDykWmWtUj4wB89FJa6JwTy9J7tqFysELZtWodmn7RBp76D6QhnTh9DlXJlsXzZYrRs1x4du/dR5u0+bolH7/sfypYuLXW+JEqWLoMiRcugdq164l8IrT9uj6869Jb4MjAd5zatv8K7dRqpz37wtWh2tikpDqyeNxyFX38Bm3fsU9SZGxwFvXxHzIUEVyLW79wj+XAeG1bOEDJdGOdPx+DQrl3I8Ww2bFizElMmT8J/77sPxcuURaky5VCybHkUK1kSld+uIXofj2FDB6NQ4bw4c5bLvlPg9rjkuiS6du2l4vVtv/5o3qKx2Lgkpn6lg5FCTTSE+gKk5uXFoG4ZsWT6+sCVItMZgXWGdVOGqOoX3kSJQBJOH9qFmtWqYMPm7WjTqQc+69hduU86dQyVyxbFT0K2v+g+AN98PUSZd/j0Uzx8732oXPotVChXAaVlkF2qRCnUf7cRzp6ORa9vB6Pye+9qDfYKeZC63LHZh3ivfl2cEyKv1o6EB8mbNy/B04/ej4+bNsbUKZMx6Ycf8ELO16SfLIO48Oeu+vfujoeeegIdpX3pOWgoBn83Aj/IOPTkiV3wcK8SaRMOrlyK11/MjjFLl6hHfS5qICMQJtOkGV7pHynchdzoKZ1cLk2yy7yzDn6ZTPOHtYdCSqs1S71GIdds+ZWzsC339FCfVAyaB70CqYvsq4+fPCHjz/HIKcS2caMG0iaE8Nlnn6Ns2QpqjwB6ojac5S36gOatPkaV2u8o/7v374MKNd7OgEyzHxFtF53zBYTIc8IlFQHEO8/jwKF9mDp+Il7L9TqatmoBr9eDmhUr4pmns6F01YooK+dlS7yF4sVK4NMOHXEuLhnN322KL1p30r5IWAGXG706f4kPPm6o/K33bnWJk16CztWiDzz5PEpXfFv6fRnflimGEiVLoHbDxjh15jS6du6BarVbwCN6yucEARk3czytHj7wQYDkUVo+R0o4IzIA0x+pe5ZMW0Q1MpVMhw2HDByE3DlywpFkvuGnB7XE+aR4lKtUEZOnTYVLiG/5imUwZtxIJIp5rdrVUaliObX5w8RJP+Dbb/uhaMFCOHUqBm3ad0a9Dz7VT9m5VEcazOXzf8KrOV/Ebuk82XQ6HCS2Kdi1ZwNey5sT+3amvbO9c/tClKtZCduPHsaBw8vx5lv5MEsGLRMnjsOb+QrgtJN+Ehcu8/lpVF+UKVsYB+Ni1MDgfPJpvP3+22jTu58KUw2GpOHSMZIMCH9u4dLNzG+HJdPRh8tHpsN1iT/qhIMEfgpKOuWAaISQ1ubvVcHIoX1Qo0FjTFqk9wLgKwgfNqorxLMjajduhqkLlivzts2ao06FKuo8I3zyYTsZqH+lBgIcaHAW+oOm7dCmne64SaZ9XhnUhJw4uX8ZCuR+BsNGTlB21M+AkGl2tGu2rMULufNi16512L5hAUoVKYiEc7E4sHsnXnrmaaxfvQI/TZsi+pcfCU69xC0SJPPf9uuDwkXy49x5br6SAqfbiYIFi6NbN/1OW4+evfDxJ83lzKe+xUsdNAN05pIl0xa/Bn+UTJvq9GuE43H2Gvz2s9pnhK9E+OMQSD6FdlKXe3zTHxVrNsf0OaLHvMEbi84dGqPtV1+gaq3m+HGa3mugU9s2eLtkeTYHGeIL0ZHK4SWo4N4egg5Nmoq+tAR3F9C9s67fX3RqiSceegDvVKiIcjLYrlqtIoqXLoF7Hn4ac5asVm66f9UJrxXIh2NOtf4kfCfhFDKtZ/KOrluF117IjrFLIsi0xC9FBucp0p5wqzMSaU8wAK9YGH2lXxT6+0dhyXTWwS+S6dSaQyVgvxMm00rDDAGU+iX3kHDy6COZljo4YcxILF1sviiRVkeWLVuCN/LkRkzMWcybuwDZsz+PXTu4Ka3G4oVLcebMWbg9brwh+tD5a+5zAHTr1xuV3qkm/RDDvBDcgC8g41a/9NduTzKmTB6HtSvMe9hpCjx9xnS8nPtVIbgn0bh2LbTl604ZgF1sy/ot0KrpJyrmfuZLIIQta1ah5FsFsWXTMpQvWRhrtvLrAMCHzT9Amaq1M2wqmJ/tWndA5XeaqS6fWebz8etSPvVAIS2PM5K0fEsP+hupe9cEmebTATb2kZHjbt45cuS4qJL9kQGbRdbDlSHTrIMZS4p0kKdPHEfJokXQWpQnNrzTIZXYLaPwEd9/jyezP4OZs+fA6XKibPmymDLlB+zYsRUPP/Igtm/Tyk906tQJz2TPjsTEZEyfORcv53gdO3buVXbUiRbNmwn5riANADtk8Z/fxQ15kJQUg4pVyqBj+7bKLePV55sv8dKrL+DgiQM4eGQTXitZAHO2bMOhQzuR/dnn0G/U1LBbNxYtnInGQhzixb+pY75BpSqlcSTuvGqe3d4kvF2zKjoJ0VfNCZ9wyoCI4Wuiz2v96IA5crlgyXT04XKT6bQS1wMHfqs24OUgNohRg/qiVImCqFK9Gk6c1V94IEaOGCaD4lIoXfltHD3D3bNTMHnMOLz8VHZs3bAx7AoYPmIkevXSBPXjD1shb+78OHtS9y3bpUN+Xa6nTPlR3c+Oljvoc1d7vzceLT9qijfezI+tO7lzv0Z8/DnUaVAHRUuWgcOZiLVrl6FUyeKIEzK9Z9cOvPLCs9i6eQN2it5nz/40Jk7SS9OIGbPmoE3bDmq3/EGDv0P+/PnEv1gJ2w+vpLeotC1du+pNVfjArWlTvb8B80fpZPickBYpIt9+HZhGI6bMLJnO2sjUmemwcONM6hH7TP0Q1oMfxgxDwYKFUapSLRw8laBme7n6ZP7Mscid5zVUqFIb23frzflWLl2KHNI/rlq0SF0To0aNQ4+veoDfqf6m97d47qWXceCw3q3/yO49yJczJ0Z/P1oNmp2cdZL6G3v+PF7NnROd2n+uvh/v93CZqRdxCSdRvFRxvPt+XXX/N9/0Ra58hXEi2ck1MXBLP8cd/QNqmbr0fuLfga1b8Ey2pzFF4kT6ztlvfkbS42FYXNbNh1tyZB9J/ZJ4qAH8RTC59NthyXTWwSXJtIKpJ6bVZ7tNN8addsvzEPcHkArnCS/hbvFhM7zIfmjLFunL1OhNvSPctWtXFC5USPqcBHVdvnxF1KihV0oRs2bOQvXq1RUxzJs/v+jXQWX+de9v1A7f1GsdqqiE6K+PKybFIEA9l3gGAl60/fRj5MnxIvbs3CL2TnHnU2F98UVnFJT+ze11Y+Sw79Rk0f4DesxLT77tOwADvxum9i1p2qAZWn2kl3nr9KUgWeLcsFE9lC1bQgjyJ3CEv5n9k+TjMy++jKUrV6lrxmP4iOHo9vU3knY/PvusI6rXrC/+iJUIu720lWk63mkSdpSayozBOEWW1VUn0/TcVCCfTxo6TgsIxo4dK4OQ7KnfmSa5oL2FRSSuHJmOVC4trKNuN2eYUrBx3VqUkkahROFC6NC+Azp36yED/ZrI9tyLaNfhcyQ5HIgTxc9fsBCGDh2qPvH21ltcxlIMPbv3QOtPWyNPnjx45NFHcPDgIVW3mzRuiuLFSwrJ/hK1a9fBa6/mEeK7FEEZdbulIfLxXRi1O2oKZs+eKve/gmYfNJTw28hAOJso5+M4fmI/9uzfgqdzv4Yfli8Vt0F81b07nng+P1p9+DE6tW6GN/O+ik969oVH9G7CmK9loPECDpzW3/5LToxF2XKl0fILvclLkJ9ZEDJNrVTaF5QzaciZI79d238elkxHH64YmWbZy2BUPcRRO/EGsWHtKvVt6fr13qUDNWgguFHR7f+4GzXe1W2ATwbLyQlJaPh+PeSUgfbnn3+Oeg0b4NVcuTB+nN7pu2GDBnjkoYfxQcPG6PqldO758uOTj1uqjYmcTqf0QULkJQ4kIMSZM2fw7rvvqk81tm3bFl98+aXqNAsXLpxKPucvWIBXcr4men4e27ZtxcMP/Q9Ll2oS0LVLJ7zw/LNo9XErtBTJkSM3evXur+x69+mnBsYxZ/RDuYDoG78U8HmHdup6+PARYv+ykO5hSE5O2xjpj4BpM2LKzJLprI3MJNOpkKrFwbbWorC+rluBO269BdXfq4f4gIz5lHEKDu/Zgvv+cxeqvVMLiUJM2d/wkzYtP2yCV19+AV26dEXTjz5B/iIl8d3gIayYolddce9/7kPTph+gXbt2KFggP+rXr6s+A8RxZEDSHBCCMWDIcDz29LPYt898Io+RIkEOYPCgr/Hvf/8TO3fuRfdeA/Dkc6/i0Nnz8Ir/SX4X/EHpc4NeBF3Jkp4gtm3ahEcfewKTZ81RfWCC6E+ihKU+1RN+b1Sn2OiPlotBw9/XXloynXXwy2T6YtDeyAWQ64DHi4DXrz6bevrUaZQuVQqPPvIoKleujLp16yJv3rx47rnnMH36dHUL24U9e/agUqVKKFiwoFo1+YWM/V555RXcc889Mr5sJv2OXuPR55ve+Nfd/xLiXRP16jcSaYxa79bBuElT4BVFV30J+23B8SP7UbtaFTyf7XFUKl9adLQxXs/zBl5+5VX8OH2G6EoQCckJqFCpLF7LnRM9undB40YNJX4FMH/eIuF70l6VryJxbqD8Uztuh/v8gQMHqbHA8OH6Cx9MA/X9vffflbx8Fm3afCrE9mP1kHr0qFHKTatWrVGubCV1Tuis4w91ML1cOv8N0pfBVSfTJMkU3sujCWzMmDGqwTCVzGTY7wnDIusic8m01EHp4L0e/eTP7UjGzGlT0bxZM9Rr0AhfftUNm7dtB2eSHS4PEpOSMWTYUKxbv07V7b179+KLTl+gUf0GmDRpEmJiYjBo0CDs3q2X2DidbowdOx716tWTwcNXOHjgiDLnux1ev0+RaX5+gDNhpLZr1y7Hxy2aofOXHTFr1nSMHDVMBv5HcersUfQYMhDrDx0UfWLnDkyeMV8Rhg6tPhS3P+GcNGZcorZh7Xz0G/gNzjodMiCQBi7+LMaMHYWpC+bLgEIGCOnJNN9BEx1ljlxOTbRkOvpw2Zd5G6iyl045xY+QkGm+j3Xm9HHRnfZYvpwdLWeXpC+Q4GLjk9Cjd28sWLpM7Xbv9fjkHqnbQjzHjRmrds5u+ckn2CCDYD7Npx5OGD8ec2fPwU9Tpgo5r49h3w2BTwYfjD/t+WCL5yTXvvD3apnWWbNmoXXr1mjYsCG+++47nDhxQtl5vV7R4b0YMHCw6HyS6OBp9OjRTUg1NxyUlAQ8mDNnFpo0aao2fFnIB2QSd7cMfJYtX43eMkhh/efsAcn0d4P6YcH8OSq+3Pm/61c90OqTtur8coC6ZcSUmSXTWRtXi0yznusaxnokxDPuDLp++QVmzFuABH8K3GLJZakedxz6f9sLk6dNQ7IvALc458yu25mAHydPQDPpYz9s9SkWpG66GRI9WogJEyYpvWzQoCH69OkNp5Be6nBQ6rWPmynJoPxHIb7fDvwOHtVmiMfcFd+fKHmShHNnj6Bjx89Ef/dhwaIV6Pp1X8QkO5EofZ6Ls9JcHSM6GeQKGdHPA9JX9+zZGzsPHtaEW/I1mQ/fwnHSn8+MJNMZkB4Fmumc+a2wZDrr4HKRaZ77pd9yO11qR26SaZ/0L06H9IPjxgnBbIP69evLuLKL9EvbVHvAfo59l7mfE5iNGjWSfqoJRo8eLePLtfjoo4/QvVt35XbRokVo2rgJmjb5QMaoDWXM2xh1xc8Jk6cofdOfgJOj+la16IWMJWf/9ANafdwMDerXU6utNm/ZqsJzyThaeh8kO+KFFA8W0vyeIsHUQ8LnDWLkyFGYPXuuxE3zRMaZ8VTjaCH8JKQmHbR3uRyYOvUHNG7cSIhtS6xatUL5xRnxmTPnCLEeq67TYHQwvfw6fUpfBtfEMm9mBjOFMDPTLEwu82agjICpZMadhQWRmWSaEuRAPpVQ0+xiuL1+GShLQyWDegPW8Uvh5+q1jwMLNoyiFx4ZdASDHiHTcdJ4cXnLxfoWCIS/RS3njGGA3wQM+/3DhImYP0M/kYwLepGkZrl1vJKkAXTw8wbhj99z/t0laQ3wXbSUoHrerjSTgwVpNJny36ftGcOS6ejDFSPTqfoXUN/N5A7cPCf46Q+STtUnBKU/CN/IGs7Bs8ulP3WRwlF8OtCcnW5GoHvuSko9ZR/EI9NH9wzr5/ST9nRr0u5yOsWtiatfDcR1ei4Ex/RuGdwb8H79rpuJH4n9pduM3wuVP2Ex8bZkOmuD9TfTybRUHUWmVRVjPWJ9T6vzyf6Q9DGcJJHeRu0ArEEXTun3uBkgX/WIBH3h8sxQQC/vTI8g+0k3+0n6q8UgIOHxG/E+D8NySx/OVyv0g/FIUGMTpB91sh/lpy9FJ1NEF12J8UKqdf/IT1XGub2KULMNCgXYHul3WbUOM9Ecs16KHP2c+aVhyLTdzTv68XvIdEbgQyK/V+qqKBzJNDsYZ1IyvOFl0JGg/yTR7Ld45DUJZ0ag+YYNG37W3sAv9Z/+ccIpILoZEv2J1PVIuCSebhlv+mQsG1Rj0AvB1eLs2w3YfnBm2iv3sb81HJHxNufmmB507/GkhcGsTctfHrWeXii/Lv/pT5pf18gyb10IumM3hcanKVyOwNk7NozGnYVFJDKbTCtiKQ0Bxedlpy0DZpJO1k+KKD2f0rmkoyUR9gmZVcvOpIFjPeZsF4+sy6ZhMPWbwuUtTqdL3yvCRoRu+N0/j9clxyQxE3Lt4ycIhDiTYMs9bBTpN+NyNjZGBikeOGUwwvdZCKcjCa0/bonePb8WXZOBjPjhFFFkQO5xy6DBLa0Y08VdGZMlTk6fNEJs2SQ/ODxQw3xeh8n05YQl09GHK0emCa2DJKNOZ6LUc5f4r3XNK3oXEOIckA7cL/pBnfOLDnCmlx0u3x3jJz6oc2q2Wsg3ddIQX95LnVHX4Q46JPXd6BH1zegl6yHv0bql9ZVHmps6avSaS0p5TuFupSHRKb/E3yd6y0+N8D7qM98544M2umeW0U/mHdPFNoWfo1MP7MQPM4j4A1l7EUzcKabMLJnO2mCdvBpkmtVHvWOpRsh8sEv9Ex0OpMAl5NYj/Sf7s5DfIUfpw0T/vFLn+Y1oj/Q/1Hu2AdzYiGZe6jx1UHSEr2RonTI651VkmaJ0XJlTx6Sey+CchEPrkl/0VYhxMFl0O0m1L/QnIPYOsXdI/LjE2yP9IDdbCkg/6vfwc0Piv8SJ7QvJtEfEK8J2SAzDM3Ic1LPPpF5pYnS5dcjOTGcdXC4yrXRN6iXrOOu+Jtd+RaZNf8Y+ip+R1ONMrR/kW+ac9hSGz6XdvMdwLppx5lvVfTkyigGp+y6v6AZ1QOkBx7HSZ/IBGFd/yBjVK+NVfm/eL+NgjmupK17x18l+Tum76L0Qaj2O9Ut8GCbbBIbDeOt+nnGmME6MC+PAuDPeqj2QNLjdLrnmviNMM/tx/ZCbftEPHb/IjpT5rPX0Qvl1+c94RJbVVSfTJkImswhm0Keffoqbb74ZCxboHeF0w5g+Myyud2QqmRYizafPHPDy6TMbAJ5zgK8G69KQkDzzqDZfETPW2cgO3zQGrMfs/E1jZhoE/TSdT9M4yOe95h6JQYjkWMiFK1EG4w51DMo9PjZo0vBoAk4CwcGKNFQiJBNc7sMZPr5Pw6T5JR7eFB+SvU64xb1LGh+nDFq8Eic2hi6XNIKSYu6gyPTyplQyzYgw/jy/jLBkOvpwOcn0xdA6yDpvSLT5hIVPrQzRO3GKmqkZafVkXHSHS0OpV+xszWCbM1zURdP50oz23nCHTP1i3I0e0g3NKTSnGN2lG54bM+Mf6yt1lXHizLQi/BJnLj3TadDEnAN7bsrEzp0rTow/jA9XkfA+HZaQBzFLC+vyDcrpjxH6TVgynbXBepSpZJrVRuqsgapHfAhLXSaBlks+fPaKjnBQHWT/JEfqqlP6IxJbjxBYbgKo+z3as1+lHxywU9eoZ7qfNH2peoAmwkE/Z+pCYufjAF2IhV/Iu+5fuXKMy7yFMHuS4JEBPXWV/Ta/Dc1+M8mdrIg+d+QWiiLhit7TjQgfwKlNl8TcHxBdJnkRfZXAJJ1pRJpi9OxywpLprIPLRqYF7C9Yt9VDpXC/QZ0w/aHpa3ht+jlTP02/xiPd6f6I41DdZ6b6KfpEe/lXBFrUTB3ZDyt/RA+4Iov7DIT4kExEPxAzY1jd53ACxxegnuvZabXijA+qxE6PeRkm+2f2g2nj58i4q/hExNUcaUY3fHBg0hXp/mKk6etvgck7g2timTcTzEyiEFOmTFGz0uXLl0eJEiVwOLxbIyPCDGE4JsOI9ImyuH5wZcg0wfqUgagBAZWS9ZCKoc1VJ896GOGaZgTrplHkyLpqjqZeE2xIjMLp3QbTwPA4GBGf5ZyNI0lA2L04NU/xtI5oUU/0pUGUC6TI4INQgwP5ZSgMVc3cyRVtGSfqlTR9yk6nUbtTMQxHSaf08sGS6ejDlSXTBHWFdT6tTrP2KnIq9YMzu6wlrCqsL0b/CNrwmjqollrSLCJ+5jxSB3luhIi0M/aR1xSjt2ErBeOOA28TZ6NHtCPh5pHOjI5zICC2YkedVpqo7I3/dGf8/aPQYWthGghLprM2WI8yf2Za6g6rT0QVYn+lN+qSuq76KOqm6JEcOQNMQsvP7FDoRv2pOsgjdY79ndhReK/SL+NGnWpw0C59KWfoKFx1YnYh9qkZK9GzFCEZXGKuejbGg20Ge0KSap8QaRmIiw3v4YZJkfrMh1taJ+lA7lVkWvpmxjtC6FbL5YMl01kHv5dM040RA06smP7CHCNBtzQn3zLXRkw/YPo1gm4NiTb+UacIBquIMY8ijIX2R9d5rsrSm+WyP/MrMk3QnR4rU99IfOnO6JWGjpM+Nw+oCRPXyPibuBK8JmjG+Bq3PJr46xiEPQ9D33execZmaeB9JkzimiDTLDCzY9zBgweVn3379lVLDooUKYJq1aqlZgaP5mmJyTRe/96wLaIbV45MZwytQDymKZOpe/w1cuVAZaQu6AG3CU3aJn00gbOjV4MWuhNLZa4HHxws0J3+5Jaciw3ToIYTcsFrmtOlSRvtlEt9SZf65DLBkunow5Un0+lB/7WY2pGqf+H6wl/aqrocvjZ26ZE5dUzHKBwTBRNnBn9hFBhn4/YCi8uKtPDTBiOWTGdtcJyU6WSaiKjKPKRpgvRLKXxk61f9inl4q21pR9M0bUg1v0CXeG4kHejkAqFvaS613+wf2Rcy5DS/dOvBGEVqY/iX8Qp3tlQNpR6KTYgffAim7C/283LCkumsg8tJpq84GFS64IzRhcZGa8w4Na3+G3dan2hHkXOmw1heBvx8vlysj5d2+/ORSp//V51Ms5HnTBjv5eCMnw+qUqVK6qwzd5574okn0LlzZ3VNd3yKz/vM0ZBqi+sPV4xM/8qqTGfaqVHS9PJHEQ4hNSD6qRsp3enrZon9O9VPqSAVlrNffHpvhinKjvTYL8KndeJEfkT75Fo34Mq3sB/aDQcF4h/9V7Zax2ikQ718sGQ6+nBZyXS64tZ1LCPhL+tiWFRl1cJz2rLWa+3Q96gfdaJhLlV9j7j+w0jnyc/6HRlnHiMQGacLcJHB74fKp7BYMn194OqR6bTazN4jvK5KfjmT6xJrn+hqSG36FV6bITrBTZF8ci69kDjVvQ7rKWd+9eBc+0gz2vKotd2Epu0jwPouB+1KC/s99cBYmV4ouq9Mc8u7VdxSW5b0ML4T5jy90PyPw5LprIPLSaZ5lpFcNvxmT1nnqZ8Z3UAzQ6bFHdOhnPEnI/e/DRdmYaQORop2dHF+8/pCNxkhff5fExuQmWn79u3bI2fOnGrTMcIs++ZnhEio58+fr64N+aa9OTd+WFxfuBpkmlbpJU350svvQaTPYX+oWyog/uhGiJ26GgqInbJWwh8OSKQR40CdT/+FafOUw4NUkixe6qU2eokNz9RR7tfLZWnOhp1hEmwUGSbB39+btoxhyXT04fLOTEt5R5Q5zyhqqEyrVDP+qlovf6zjEiYfpPLIuis2rKXhR0jKNasq65OpU8YHDo2V/2GzP4x0nvDShJVmJecqriKWTFtkEq4amY7QLhJpjuhUL5IiZ0GH1H8Pexr19QivGLN/QlCotZhTw/kdauqo8kcItqbctAmb0X2EFjMknindVv0bTXRroV77SDURd/KT1rYok7ANdUPuDV9qG/6xn9R9ZSTMnRSNSJNIufC+3wtDpu1u3tGP30OmaR8pBjyLFNbT9HX1DyF9AD/jdZo1/3QMLnZKEz2OVeepjvhjdCXV8DeD2ZKWNTxhG2HkQn2MyMIwaPDLOps+/6+JmWmClerf//536oZjJMdm1pn45JNPFNE2709zVpp2dGOJ9PWLrEumI/2Q67SABDSLINMiVD2t3CTKQiW45EyNFkiQOR9t7hB7udaDCPEnRUxFFMkW0QMMNoKaZKepNPVUDYME/NV6e7lgyXT04fKSadbFtDLnGUUNleXEDHr5q+u9rvlqeSX7EL5XJffTlLU0kkxzUKzenQz7r33Q7gJiZtz9YaTzRIUtovRTmcg146t01OjnhTcZtxeaCi4y+P3Q7YQWU2aWTGdtXF0yrTWMfRC/1ULdRIqcBZLE2iUEOwV8yY+z06EUcRUUai2Emu9Ue+V2Pdym3ggBp8i5rrX8pS1Fa44x8Uu95U7cJM+0Cao+TrcarNEUo37m+oIzmtMzHZAc+NoTX36iP/RVg0cTA6ZSg6bm5kgxd/0x2JnprIMrRaZZz41cNkQGYCQDpFnzT8fgYqc0CWtN2g3hnz+uM8yWtKzhCbXTaOmFfkdkYRg0+OXw0+f/NfHOND/C/dhjj6F79+7q2rw0zqM5586sxYsXR5kyZdQ70pyRNmSb539sIGcRrbiiZNpIBCKNI0UraaSiGvmtSH8/RUJIC0jAE91UkijzzCi2JtNcJicNB29VOy6GZMBCQs3GTd/JYQE3WyHZVjPSyjaSTNMPuolMnxoGCfjL68sHS6ajD1eSTKuqK2IGqhTasmaqei9/PKaRaZGwLlyKTFP0ndpdppHpcNiWTFtcDVw9Mp2mvReSaaHO6cg07VS/FXSIuVN0IQiPONXLv1lP5R7eJ+e61tJf/ZjYaA7NtSkfB/MRMX3RVJhHpfsMXtxQIs8pBrrNkBMdkNjxfr7fnbqbSKr6Mgak+DwyDka3dAtG0fG7MITfD0umsw4uJ5k21ZUmqn6G5bKBXmUk6ZBmxT8dg4ucqXhTL9gf8jos6sekJFJ+G+h9WtbwhA/AqKHUR+OndhCRhWHQ4EI3GSF9/mcqmWaDTtCdWcLNGWa+J12jRg1FkgmzgxxBtyYCJN05cuRAt27d1DVhEvTHBnIW0YprgUxrZGRD+a3IyA8Rc6qgL9Qf6785KmFjTJpA/RF3ohYkx5HP0/mrhgNiTnt1D215TUv6I3eYZd400g2L8eHyw5Lp6MOVXOZN0DczYE2tmuE/c6ZMGa66V5uxllJ4vzKVnzT90G74x1pP3SD07x9EOk9U2ErkLzV8xpV6FY5zOHwD5VYd0+Eig9+PyLwwZWbJdNbG1SPTrD+6L+Kvob18/UjPNPvZ0yjCzPej1cMx9Z1aUmG9XkrfzXrKeyi6ztJU+81rrTk8o4kRpePKndEr1nt9J2HOjRio6wsMGRvjqw5L3SsSGZ42N3Y6XhfKH4cl01kHl4NMp3eva1ra32WD9vhiSYeMnFAugIpzWCJOL7yIlN8Gep+WLdoPnU/pRX71IQIXu8kI6fM+08i0WbbNWWSKWZrdpk0bRZD37Nmjro0bMyPNwA2xJvieyKOPPoply5apa9pxJ3Djn8X1hStGpi0yFZZMRx8uL5m2yCyYQYDpXwlLprM2rh6ZtrjcsGQ66+D3kGmLawMsp8iyyjQybUgxZ50N8eX3pB944AHMmjVLXRsCbWaoCd5D80hC3bp1a2TPnh3Hjh1T15zdplhcf7BkOmvAkunogyXT0QkzCKBYMn19wJLprANLprMOLJmOXrCcIssq08m0IdK7d+/Gk08+iW+++UZd09yQabqNFJrxXp4TnLkuVaoUKleurAZ0tIsk2xbXDyyZzhqwZDr6YMl0dIK6ZcSUmSXTWRuWTGcdGDJtd/OOflgyHb1gOUWWVaaSaeNRXFwcihQposiwmVU2hNjMQtOtuY7015zv3LlTfS6rR48e6vpSYVtkXVgynTVgyXT0wZLp6AR1y4gpM0umszYsmc46sDPTWQeWTEcvWE6RZZVpZJp2hiB/9tlneOaZZ1SjQNDMvEvNc5Jr4xfvMQTbiIkQvz99//33Y+HChera4vqDJdNZA5ZMRx8MmR46dKi6Nu2yxbUN6lakEJZMZ21w3GTJdNaAJdNZB5ZMRy9YTpFlxbY1U8g0G3OC35F+6KGHMG/ePHVNAs37aG8ixwANcTZujD0RSbb5/vRLL72EEydOqGvC2JmjRdbFe++9l+XI9PVYb+Pj4xWZNsTM6L7FtQvubZEnTx6MHj06bGIRbTBtzdatWy8g0+yDjVhEPzghUb58+SxHpq/HvpJjXRIws8zb9pXRC5LpF198EWfPng2bWEQr2rZtq9rYS+GykGmCHTXdd+nSRV3/mk3DzDel3W63OhoibUg4Z0f4/elatWohKSlJmRmxjUzWBMvWDPTq1q2ryp71IDExUZGyaJbz58+rhpXnfB2CM7Y0Y9piY2NTJSYmBgkJCcpNej+iTajb3M3/ueeeSyXTkQ/MLK5NUOfefPNNDBw4UJUj66mpn+nLOBqF6aAuUseYVl5T5zJyGy3CtLCceDTtDPvJxYsXq009I2emI1+5sohOsOxYlhxH8bW6Zs2aqfNIXWVfwv7F1Iv0deZaFaOfPGe82VfySB01aaNZVusrN23apPYbMjPTtq+MXkyePDn1ISbLlhyG9ZS6mFH5R5uYdsZcGx2NdBOtwrSw/WHbyXJr3ry5+szzpXDZyDR3727YsKFSfnbUhiBnhMOHD2P+/Pnqs1cEO3UzQ80I8UghVq1ahQYNGqjdvU0cTCdiG5msh8iybdy4sdoRnjNkOXPmVJ9Zi2Z59dVX1dJZpiVXrlxKOGPLJ9Evv/yyuqYd3fE8Iz+iTZhepu2uu+5Sr24QbCPMt+gtrk2QYBYqVAiPPfZYap1keb7yyitRr4usk9Q7njM9xjwrtDFMl2k7THtD/ePS0S1btqiyZdtqOn7Tz1pEH0xfyfa0Ro0aePDBB1VfybI3dZlH03+aOh8NYuouj4x37ty51Tkfypq+ku4i63u0C9PLmcy777479fVG9pMsX4voA79kdN9996k+hvXX1OOMyj7axOgdj9RJ9i+sv5H9abQK08S0mDJ74403VDm+/fbb4ZLNGKZP/cMbkPGJqHmKxgaAg7Gfu2fs2LEq0nyqQbBDJ/mm+0hCTT9IzPlkgH7S3BB049Yia8GUPY+sgxMnTsT48ePVMdqF9Z5HksqpU6eqJ5cfffSR6jz79u2L2bNnKzOmlzJhwoSL/Ig2+eGHH1Q6mF42MixX6vSl2hOLqw+253xdh+XHB6Xjxo1T9Zd1N6NyjjahnnEpZcWKFdXDrBEjRiizjNxGi1DPmAaWGcvLCMuMA7uDBw+qsqUOUqiDVg+jF6av5Jho2bJlqvxNn8Ejy511gSuCevXqdVF9uVaFcTd9pWl/WK/r1KmD//73v2rvjazcV3JWmjPuZvWI1dHoxNGjR1X7y7JlXR0zZoyqy5Ror6/UOfaf7DfvvfdetYp0zpw5qXqbFYTtp2lHWXbkI5cC22PiD5FpMxPNo2ngSX5/7h42Go8++ihOnTqlrg154tGIuSZB55F+Rc5eG+JukbXAsmW5Xi+Ea+bMmXjqqadSHyxlZRidtnprca2AG2Zy86asDuqd6Z+pfzyyP7W6GL2IHBddClwGfejQofBV9IIDd87cXg8ztSxbioXFtQyuLuaql1GjRoVNrl+wTyX+8Mw0yTM7azbslEs1eHx6walzrk0n2Gg4nU51bt6jNgNvHukXxUSW5nRnBwJZD4ZEm7Kn8NqUfTSD9ZrpMsK08ule/vz5lZ7xmubUJUpWAcvPtA2mTJlOi2sXLB+WE8uNba9pb7OCHjINpu/o2rUratasmdoXRTtMukxbwqPRP4Jlacxob9xbRBciy8/oqpH0dg6HQz2s5Xk0gPFO31fyeuTIkShatKiatTX2Wa2vZPmZ9DIfTJlaRB9MHWV7y3OKaZejHaadOXnypHodjDO3RFZIm9E7ThBTTBn+UtqMnv7hmWl6ZAJk42YyOyPwpW4+KaU7uudAjUe6NxE3gzfjt7HjYIDnRiyyFiLLlUdTQbMCTB1nvTfp5CB+//79qbpghPU8K4BpMUfTPpi0W1zbYHlRWFYsN+qiKc9oh9Evro5iX2TqZrSDZUThIMCUF8uP50bveE6YcrWITpjyNOemjAlT9oaURRMYX8adaYjsK/lAIPKhM4XnWbmvtIhemHpLRBJrYxbNYBrI0ah7e/fuVRt2RaY3msFyorD9iWxrfiltpl/9Q2T69yIykiYiFhZZFaauRzasBrymDhgxbi0sLC4/qGPUQ4OsMsixsCBYl019Zl9CiRYw3qb/M31lZPx5HtlXUqzuWlhkHqhv1Dujl7w2E53XK5gfxFUh04ZMmIKwsMjqYF03gwPTEFEPIgcFNL+eGyULiysN6hwH6qYPou6ZcwuLaAb7DooZ3HED19OnT6vzaILpC6mXpk80/abtKy0sri6oe4a38fx67z9Ne5upZHrXrl1qtzQ28gT9ZkHYRtEiK8MMACLBJd7ff/+9evWBoH2kWFhYXF5Qr9j5E8uXL1e755JYW32zyApgPWZfY+o4ifS2bdvUebQgo76S3+vlLsL8ygtB+0ixsLDIHBh9434MfF96x44d6vp61sOrQqa58xu/TcaNJAj6zYY/ctmdhUVWg9Eh1nUz0OEnE1566SX17XXCKGSkGwsLi8uHyL6Mu3mXLVs2dYBuYRHtYP2OJNMcZ+3evVudRwsi+0rTJ3733Xfq26/nz59X18acEzHm3MLC4srD6Bv3HOE3pocPH66ur2c9NGnPVDLNJxmPPPJI6ueADIm2DaJFVgfreGTnz2/Y3X///UoBCW64YmfJLCwyB23btkWZMmXsg1yLLAP2HUYIPiiKtt3qGXf2kZFkul+/fmpMys/xELavtLC4ujh79iyef/55DB48OGxy/cK0U5lKpmfMmIGSJUuqJ6YZNZoWFlkRrOus5zya90vmz5+PggULqid8rP8UDhDsaw8WFlcW1K/u3bujXr16armahUVWAeu2kWgcV5kxIWEedE2YMEGNG/lKlHkgbfpKCwuLzINpW0imy5Urp16/IIzOXo8w7Wymkml+toNLddgImobQNI4WFlkVpgGimJ0POWvABonX1AHzUMluyGdhcWVA/aJQ1+Li4pCQkKB073L2cRYWVxOmjlOi8eGs6ScZf9NX8oEXP8HDtJjxInXY9pUWFpkL6iPbFeofVxhzHEszS6YzmUwbv7hMxzT2LAQ2kBYWWRms56b+RzY81AMK7UyjZJTTwsLi8oF6Rf1iv2N00el0pp5bWEQzIvsRgku8jx49ekF/c63D9IEmHZFxN31jpJ3tKy0sMg/UO+qceZBlOFyknl5vMG1QppNpBsyM5zlJtTm3sMiqYP02dd8I6z1XavDIBsm4M/YWFhaXH9Q3o3ORM10WFtEOM5Yy4ynu5r1169bU62iAib/pBynUUY/Ho46RfSXTa3XXwiLzYPSTumj6UaOn1ytM2jOVTLNh79+/v3r3xRSKaRwtLLIqjA6ZJd3Ezp070adPH/Xag2mMKEYvLCwsLj+Mbs2ePRujR49O1TsLi2gH6zbrMge5BJdGm3FctMDop5loITZs2KA2IeMqEqOvRmxfaWGR+eDnjTl+pW4S17Mesh0iMpVMczfvZ555BidOnEiNABtM02heWYTTwUPE6WVFhIepp78nkIz8yWpInzBeX5Dun0m5cvczdoJUqwg39Otn/csEUIdIoilGn7ibd7Zs2VL1LNL+em6YLCyuFNjPGN1q06YNSpcurVaHWFhkFXBcZcZTfJ/R7IAdLWD82Q9GTrIMGjQIL774otpjhKC90WXbV1pYZB4Mbzt58iSyZ8+OoUOHqmtjfj3CpD1TyfS4cePw8MMPp35nmg0m5bdvJMHIU8JxS40izdiRmEZWnxOm4Q3JtRJmgMoESpjE8Erdp/1JSeFR+abOtZ2x14jMn5SUoLjxi9A/PjWlmPhExCX17MJznjF24guCjA/9ljjSLCT3q/hE3KAP8huOl06ZNk+1o1lkHM0x1Ui78XpdiDkbg0DQpNmA1zoOSM2PSHtCx/VCMzFVgYTTr0zkLMSOMKB8JBxJDiQmJsuV5Fm4HEJB+sf7mW6+32g6TjnKnepe3q4OvKIdDXQeBXmfMpPrkHTKobB79aPTQLA8aRIpqWf64rKAHT8H7SptYcXjLoiPPvpo6nemOUCgnU7nZQz8isPUj8gs02aR5tqOZqwPGblPuzL3piHNdaSri/Fz7ngV6R9xaZ/S7jGSkR8X4qJyU9fm3kg7Y5ZmE2mbMegiMvyM6snFbi59TfDaiEB5yXNdTkpMMOZ4kT88j3QUeR724wIx9pkL6qHRv08++QRFixa1K6MssgxM32HahYvbh2sf7Ae5pJtxN7r67bffqoG7+c60eVgQmVYLC4srD6OTZ86cUd+ZHjhwoLo25tcjTNozlUxPnz4dtWrVSm0U2XBGLuf5NVANKPxC+pyatEo6AsLFA34hUCEfUgLJ8MkAyRMIwh+Ih8+TgKA/BcFACH4hcp6gFz4Jz+cVt34hOMEkuS8ZTq8HrkAKktxe8dshhC4RfrdT7gO84q8n6IKDhEgIXzDokUGYWEjWBCQs8yQ1KMTPLfd5eb+E5fY5JUx2DD54/U5xJ377GH5I/AuG4yQiHiniKPb+kBdOeOEOSfwZR+lY/HKvW/z0S7jiWCIESWMQDokzB70pktYUiahb8sQncfWK317Jp2DQJ356JGw5ShYHhKR6JGw/w/fwQQYzTzwTwrlzxwbkyJ0LQ0ZPlHyTHGba+ADA75G0eOBJcUj8JS2Ml6TNJ+lnugNyrdPqhjMofjJdcnNA/PBKXvsDSRJFpl/MhdSGPElwJJ+XXASO7N6L0oXewvBhE8SfZBlmS/zlfleyuPWFJG998AUSxc4t/kmZ+pIlXh6JlxBmH934JM1SLlIBvGKPFLek06PLV/LV7U2UPE6W9El6vEJWJR5ByUefT38Oh2VOCu8Wt3yc45V89EmdkIoh90SQCSWaqP8efWD9Zv1Q+SVCPxYsWICqVasqMs1r804Y3V5OnfvtYFovDp9RSh8t6h7rjlRARb1YpnyMIZVWTlxy9El1Dam6SBdSI6QOJEn5uaQcdd1XD4noSvzgMw/S7BQpDbpVus4wxU5+RHTsLoyhnKmHJjSlO8ljuRbVkrCMfyxlKo65i0ftJ8/0AxneHwlJkcQ/VdT9+p6g6BEfOrERDUjdC4nu8cEN66sqQ+qEpC9A3aHOyP0pTIOqUgyLO2DSDX1k7LTPzDuahzNCgmICVCIEvJlxELcSZlDaCa9b8pl+iC6mSJzUhUknT+mfXOt6SyOGxrgw37UtUiSfJa/ZCqnwlEOWlkPMneJIzBk0/VftDL2VH7lPeUK/ITpDM97OMFS8WXZMlck3hs2WjtfKk7BkHox+EX379sXHH38scWQ8JR0WFlEOU49NH8OZaS7HjKb6zbhHCuM+efJkvPPOO2pmmtdmr5Gr31daWFxfMPrGnbxr166NKVOmqOvrWQ+vCplm48fPkfDICEQSiEsjLQ6MTlAG6z5/QthEGmCO6yQ9Pq8MAD1xYVPA4TohvxzoCVHyCFESsuf0u+CUQaFXiGrQkyg3cZZcZwYX/CUKAXZ7Y4R8nZeBI0k3hJgLaQsJxZVBc1AIW4qQAZ9HBs4+GYLLINPhcErHJQRaBpgkhERAIuoQ4igBqGsNCUcG4V6RRBI5IbM898ngk8RQDJSr8wGH+KLPU6RD9HgTkOyPV9cKYiXcUMyEKHuFYPJdXEmbS4gjCbdX8tQrGULyCz4IkER43ELoJAiau7xC7CRsp1OIukfi62OeubHzwF7MXLRaSLpERUwkh5R9igzcSaZ9viS5DhOhcB76JG84uPczfLmL6Q6RiQv46/LEw+1MFPcSrkvyh+d+iafcs3/bbkwb/5OKVyCYBLc/FvHJyao8vQ4h7F7pNCXffQG3IqPJrlhJo9wvI/oUCcPv9sIl9g4hyT7WI/XAgu51njvdidLxJkh8JK5060qEV9Lq9bJcNNyhAJLl3iQPH8BIngWF8PmECCo/WC+MsOOm6LryW0AdMgMDpoPCh0h8p42rMqgHBPWA7q4umL6LdZ56l74tUFkRJtOGNolmyzV1jssLRU/FRKijHOmC5ZkgdcSRSqb5AEq0QI5crcDQSWtJpoWISngqSEXKNPGlG7YWFB0dRkzKhQ2AImsSklzzORFFEdSwuXKrwCP9lPvUFf94fyQkBEWipTIqYep0PFRbI3WK5cg2IuT3qrqqSbVQU9Fjr+hcCldV8MGbj3khfjEI9ZAmWez0wwNSTPpKSSXTTBidMSCVNhqRfOsHjx6P6EPApc+FUPOhm3ijfFDx5P3qmunTRF75ofKB5N6QaRrKNcvF5A+9EPdBJMmptI98gKfiInZ8skh70RlVxioc5q/oiyLTzEcJg4FdQKa1qLiocGiuPBXJXJiOj5/b4TuYzMPL2cdZWFxtmDrO2aO9e/emXkcDIvtKs8cI+0cO3tnemr6S5le/r7SwuP5APWS/yQd1fI3ketfDq0Km6RcLgYEb+XVLvBnZcDzUQFDPcPX6pjs+7/AFx5tSoGHyGHTiu8GD0XvAQBnwxmHwgD74acosNZgMyCDQKwNkl8TDKeSKA0lv8lF83aMTKlerg40798gAnAPWs8ofv0sGxUJC3UKsEoR4e2Vw7OVMKWefhXH63TKwDshQ0umCV0i6P+TAiWP78GXXbliybrOK7qlTB9GseVO079QeO3ftxOD+A3Hw2FE1e8wZLp8MOp2SBylyPLBrD9p3aI9zfgdmLFmIfv36IyB+czDu8SdhyuTxKF+2PBbMWSrkQ4bFwjo9jng18+yRTJDUCRH0qrzwSN56ZICvZ8WF7Holf4T8q5lpyQsWq1fC9blloJ/C+J9Hz77foEyld7Bl+yEhmSTroiiSLs7Ee4S0BoSEcnbdrfyQuHO2WAg9l2073U5MnT8dh48fVUXVp89AjJkwUcpJYuUSPyRQt0fiIe5CQvrjzp/EFx26oGmjFti1fZeUqVvyVtLJlQpClJnvHJj7hagEhbgHJL/cQubdQrpJVoISwZCkxxV0C5kWMiP+h1RdCuHw0b3o1OVznDx1Ak5HsvjHmU8hHl5+BscjDcB5fPrJJ6havRr2HT6kyiLJHVBpYvlzdluRRM0clGgireW3wigb6z/PIwcC5pxCO7q5nDr328G4Xhx+hnGiEfNE7mFqKKRWmtBx9tUrOhNSZFpKTMykrqiZaSGDYq7JNB9QCeUm4TNeKvJF4qWvdL5rnxk7TcMYatiEZSL1jHWdsaAmsCxFNcWWrjSR074TPDK2jLu+0mFFIu0+HR/tnghwhlacs176PJK6oAz6pJ6qmWm2b+KGZcm6nxKStAVIPMUPlbX0R5NptkmMH2NBn3UM+Kss5FR+mDZlQVfil+ieulfSyraTEpJ4aPAmxlVuCN+jSKzKPxoxj9nu0Q858Ieredhu8D7ewyDFfz8cYsa2Qa8QCEl+6nB5ZL7w0aO+gec6DOYiwzP+08zUDIbN+yLzkvHNXLBcjD4S9p1pi6wC1eZI+2Paau7mvX37dnUeLTC6adLBfpHnxuza6istLK4/mElQo3tqUuE61kPTZmX6zDRn5DgrQH95zoJgwVwajKwZALEB5dNJL8qWL44bbrgBs2YslAFrSAgYZxyDaFC/ARo0aSb+JqDe+7Xxefvu6k4Dl4ibszlCxGZPHYVWLRvjsy+6oOFHrRCbxBlgznqnDbgI5oJLSLVQMiFuSQh6/fC5ZAgqJDUS504cxSs538R3P8xQ10sWzUSnL77EzLnzUKBgIfTq+Y0anhv4mQ/hwli9YAVy5nwNB86fxlmnE6f5brlPKqrXgX17t6LNpx9j1MjRqN+oOTbu2i2kT8+Y8e7EkJBzkonwuFrNp8kg36NIPgf9EuaFUVXkMsRZWBkwL1ryExp/1AhdevZDq0+74mySA64UvRw6Pdwk65yZFiLtE/JJnDkbgzI1ymLLji3quny5yujWq7c6NwhKOqmIKUEHJo0Zhk9adkD37n3w4QeNcT5Wby5C8GFAJJjHamltiOXOwXgamNxEH8tEzlR2+LB+3SK8kS8H9u3bp9wY+ElAAk78OGMy2rVrh2/790P7Th1xNi5e8g5w+qQ8xY3QPIkrw2GHzU79QvmtMAMCMwDgkSSI9Z/XxoxuzMDh6oF5f7HOZ9QOaDOSKUOXTBWTNJCEST6SPpFQS8qUWZBLvEnexCGXStOc1I3LotMg+SxmxjdNzmimw+Ivhe/Gk75pwinuFTEkbZc2hXlKK+UvYyG6wfjSA/VD/+mnQdoZQX8ZO01AKdqtElNefKijXhXhUm9JA/VM6qHLJwM+cegXe5/UTRWWxE0lR5FLtn/in7jRBJP+m/QzhIzOWS9Yj0JwurirLWdpfNJ+6ldMSHa1e/rPI6HvoR9pYemHCso180b80XlGtwIx0mTaJSZOudB1VO1DoOLM+sr40pxxYxnoc1UflJtweMotQwq7U3YMR19ryTyodIh+Mb9IoqmDXAp79XXOwuLywPQ1BFc+mT05ogWRfSXB84z6SrozbiwsLDIHpg/lOJ56ySOvTZtzPcK0Q5lKpul3p06dFJkm2CCykbx0o8jw04bpPIZCHAAlolbtKnj6qadRMF9xnD51RkgXlxv60bTJB6jfuLkMcB34oEkTdO3aD2PHTUC37l0xc950JMmgl+/dcvZr2tihQui6oEfvrzFp5lycTeSSTAfWrlyAres2YUC/oejarTsWrlqkYuHnQNPvQFAqkV8INb1JTHbK/d3R8+su+GnMKJQoWRk/LF+D84lnMUeIW8y5ODVUPX32HObOmY+tu3Zi1oL52LZtm5BRGXzTH/F8y8pNKFCgKI4lnseOI0ewet16BJ2cOQlh55Z16NntS3zT62tMnDodh2LPISTkfuOSeViycR3OhWQAL3J4+37MnTwLCS6PeofZw2XfJNr+FLidfkyaOgXdJD0jR42SOOmZa+bxjNkT8eVXX6B7z76YMH4WYhMTkBA4h9UbV2PLtu34YfIP6NG9M+bOnq2G4z6pFz7xm8t0fW6/3NcTTzz3BJp91AwnTpxC/QYN0bn71xg1eiy6fNENyxatVCXJ5d0Mb+2yBejYsRu+6d0bS5fMUTP8zMtVku/bdmzGnPnzpNy+wphRExVX8vo4aA9h9doV+LJLF3z7TV/s2LYbC5avVjP7VGxhbaq6bFy/GMWKv4mjkofEnoP70Kv/Nzhw8pDE24MFEl4X+vHttxLOXDi4BJy3S/jugEvyzK2WrZvBf3r5vWBdNzNh/KRAhw4dEBenX0tgY0RdM0torh5YSpRfD2oSdSNNS1kOkh75Y0o0VeQZH/xwwTfTKm7FMW2k5opJJAHjkm8hxiRtQhK5CoOUm8KY6ZogFFTMScJVmQjp00vO6ZO4VXaMC8MlyZYCVgHQjD+/RKYpOgWMuw7TmEtZethuCWmXNifgNg+ddJxIpl3cI0DO3V7uOcB4kVAzwQxXvzPN6IhPIiTckntybcLUR4aoc1QfOSujB5pe74Uzqtov/kTWHZ37KseU38w/hk+/eY/Yi18MjylUhnLg++syfBUziRcfgMifekQhbYUqG0lDgA+dVN4zXia+BK/12YV9h9inulehhyVzYeLE9zD5uR3icvZxFhZXE5EDW0NCoxGMt1nSvWTJEnTu3Fk9+CKYPraBTN/V7SstLK5P8PPGXbt2xapVq9T19dyHXhUyPUoI3GOPPXbBbt5sNH++QWTYerCmjzRhQ0oynYD33nsbXb/sgnafdkT9evVloKkHmC0/bqXJdMiniPUTT+QQstdbSGQXFClRAEN/mKTcTRkzHO9WLY1evbqj17e9kbd4WcyYu0jS7EDZokWR45mX0KlDe7mvA94s+jpmzl4ksZDhaMAJvydBCKAL8QlxqFHzfVSpWQ09enbDh7Wq4ZHHsmH8mg04cHQv8ufKIWR0jwov2eFBgXyFhXj3xvCxo9G3T1+VQpdXBrmSxLWL1yN/vmI45U5Gn1HD8HaNdxB0eXF4/z68X60iWjRtIMS/OwqVLovBE8YqPz+qVRUNPm2JM2qQKoPEQaNRMGd+xMQ51CZmHs7GSmE7Ep1o27ItqlSrIunphnfE70/atYDf5xbCP0PSUE7y4Rv07NEHFcu+j/lLFsHtT8Rb1cujQLHiGDRoIDq1b4OcOV7BDzMWqZk3r5BODqq5mVuPnj3w5HOP4qNWH+LE8ZNoIvme+8386Nq9L7p174bSxStgxqyZ4OZM8+fNxFtliuGLL75Cl65fosxbxTB9xhIV/4Z1KuL5l5/GtxIeSX+2x5/HMEkTMWPWPOTNlw/du3VF+7at8Fz2F5G3cDXFoTnAh0sy0Z+C3VvXoliR13E25hT27TuEAkUKo16zRjgh1/MXz8VbFUqjU6cvhMx3RNVq1bBs+UpVu/iqd7LPIWTaq2b1FalRpOdC+a2gsplNU1jniR9++EHt5n306FF1bZ60R9sTdzYPnNVPnytilHqM3CFfz0WHLcScy5xJnZUbWsiBM6DqHV4pU254x7rGuVI1gy1OSJIZJpeKS4nQRNzKwCuoCSsJI/2NJNOKxPJamfGH5aDv1tBnxokW/mkqTZfh6Cn4hCRzRjrol6OQ5R8mTVCfWzoVc1a5I5kmjXXLgI9p4DJ0Pi2KnNVVbSvfPQbJON0xbQxHp1WJIq/0kWkMSHh8wMCBpBebt2xF/QaNsHGTXg1i4pwGnef6XprznKLTpcyVVTgflQfMOa4d4KoCyTcRPsbgLwl2SPSdK2D4F1T6oEMN+0bPtDf69ALQ7dXsdCPDb9u2LUqUKJG6SsrCItrBesw+hsJ+xDyY/fnx1bUHxtUsIzV95YABA9QnVePj41UaI/tKq7sWFpkHMzblKyQkjv3791fX1zNMnmQqmR47diwefPBBVRAEnyyaRjFjMGxGNDwgJNTAkpsTJaLmO5XQrWtXxJ45j6IFC2LS+OHKySetPkWDJs3lliCaNP0Y5d9upMyJr3t3RfUPmuJ03Hk0e/dtbFg9U5kfPnkKdRp/jKYfyX0pLtR4qxY+qvep2DA8N/oO64lCResgKUkG6ikyqPSelXFnAoaNGIjXcudFsl8/Ad63bglezZ0Lo5YtxeHj+1GqUAHs2KXzMknIdPmyldDik0+xcMUKLFu2AgFJv9un07Zm4TpFpmP8LgybOhF1GzaSqHjwRauP0ejd6soNsW7nLrxerCCOHNyDz5vWQ6vOnXAubLdg/HQUfq0QzsU79WBeLX1NwarFq5A/dz4x18upTx47hnqN3sX2HdvQskVLrFyzUJmfOX0WHzRsg+q130VC6Dwq1KmOppKfBs2bNRNi2laVBmcUvWrXZiDm7BmUq1kS+w7tUu7eeeddNGjcTJ0TTZq0QrMPP4LfdR5vV30LXYV8G/Ts0w35ClRBwBfAJ83eRvFS+eAKV9DB3w5B2VLlkOhwo3DRckLqRyhzlkvN6rVQqHhDJEpCOZMpDFgiFcKmlctQoWwRLF08H+XKVsQXX+ll/gkeB/IVfxMDvktrAAYNHoxKVarjfEKSItN8L97pd8Mn5EftMM1jWH4vmeYAgQODSJLM70w/8MADOCblYAYIFDXDfhXBuJrVIoyLiVdGoBtuROcXe5fbh71792Hb9h1IVqspaC+01pf26TvmHR/sBMhyRTc5Y8vd510kpcwbMmSqvIBELhhMm30lRdazrIyjhCtuud8ACXUgRHLKjf/0zQG+8x4GwwjRnsusw2BZ8MGbj7ttMyoSNsuAS6b5OgF3nfdKvDnzSiLLOLr9PjjFzE1zsVekmEu4g+K3yMH9e9GiRQvMmb9QpS/JI+niEmyWLQeFDEPVKb5X7ZE8o/9Sl6StQQpfK9EDR59P0sVZdgFpbYIrUeIp5cFl5Eok3yT9zK4xY8ehR6+vcT4uTr0jzrQw7kyHqq/hOssNAnnOclSDazny4ROXoKcEmF7GU9xSfbibvabWcDNtEl+mnZskJnuSpG44JFZp9YE7ibMOqAcekla+v82y5AMIXRoazF8jF4NmabpxpcAHWqzbjEPr1q1RrFixqPsOr4XFpcC2jDrOI7+awrFWxjp3bYJxZ3/BODMNBL8zzUEqZ8MIkz4eoyltFhbRDqNv3NzwqaeeUl/FuN5h2qlMJdPLly8XUtUk9RMHjATFPIG8GGaQRQJjBltsSDmT40RdIXptPm2tTOfNnIkyxfMh7vRRtGzVSohiE7k9iDr1PkTnb/TMJges/QZ+jWLvVEesx4N9m1Zh9KiBeL/hu3gjX1HkfrMwatWpJff50ODtZpg9YancEyfD+n1Yt2uZkOZa2LzljJjJQDEYK8ezaNz0HbRr30nFMCgDek/MfjT84H0MnTcdx04eQsnCBbFtx16x5XJwF0oUK40XX34ZYyZOVGZJLjeSwuRj9YLVKFyoBM7JgHbAuO/xfoOGcMcnomrp0qhU7i0MHTIEQ4ePQO+Bg/HY89mxZN6P6NyiMVp0+Ey95U1MHzkJJfKWxPlkLxwyYOeGaxzcDun3HRq9V19iLh0VOyOfV0iCS21Ctm/ffowcNRINGtRFqWLl8PprefFu3To4GzqLmh83xrfDNIENeV3o0rkL6n3YTr93Ln5xSTSxfcd2FK9UCGs3rVHX79dpiK+/+VadE+07dEfVGjVweNcqVK1WFgvXrNUWkmfb9+5EnrzVcHTfCXT6tBY6dGotZFqX/k8Tp6BCmbewYt1G5MxVFDt3HhYLhhmPwQMGoXS5NkgQnsRNrUJCjuD24OjunSj8Ri7c+89/4PFHH0PMed0Jb9+/C488/TA+af0Jhg0bjqHDhqq68lqeN7Fp215Vw9xC7LjhnPrON0mF1KH08lthlI2dP+s66/6yZcvQqFEjNdihvRnk083VAsM38TPvlJpXMvYLWeTqhMGDB6Bfv744dky/i8fP0HEDOr/Hi887fI6iRYuhbduOci8HRSRuUuM8bsyeNRN79+9XpIuzryk+8d+bLETNCbcQOfqT4g8i5vgZLFy8FM6ABx6PAydPHcOgIcOw58hexDvOYuPGjcpf8UKRW5fEkTvYB4WQbtu4ATs37lREeeHCedi+dYeQee5knyQE1Ivp02Zg5vTZ4q/co3bDpm6wXFLUrtgE/SVZVjvgC9kk4XV6nWrTO48Qx7hEfvaO5SSEXNLFreeDapM8P3788SdMmvqjel3A4RXdE3fUbz/zgrMtfEgj4XK2mRsgBvh1gCA/XROP5MQYHD16SsLyI0nCW7J+KfYdPyA6Kv7wVQ3uFi75ozfk46aHHnTv0RPLw8us+Kk9tYEeyaycc6NApl1YNLwep9znVmXp5V4PzDPJI7fbIdEPisq44JFr9TBB8n3bzjXYuH2bSq/XLXZyVOXB11vEH4/PhdGTJmDJMr2ahFXWFZLwmXmSl/w8HmeztQZrYZ0ycjFopnXkSsL0NcyfYcOGqVeO+IAh4zhZWEQXzHjK9DdcAbhnz56oqt+Me2Q/ScyZMwdNmzZVM9PGnuDRpNXCwuLKg/pGvaQuNmvWTH3ildfXsx6atGcqmaZfHKSbzL/UrNeFYOMZLixFZvgu0HlUf7scunT6Qhlz4NimZRO0/bgJPvyoGRp98IFySzLd8euRyg3v69ZTBvy13sFhIfTvlCyKymVLiVl3HIs/j7E/zkGzFi0kKBfeLV8Xy2cK4UvhO60nsGb7crz2+jvYslWTaa/rpBzPoeZ7ZdCmXTt6LgjAE38IzVvVxYSls7Br/w4UL1wYO3bojbB8ktRKFaqiR+8+6pqf1VIzdeEsXr9sLfLmLYBTrgT0Gz0cTaSyJpyJQdUK5VClaiV0aN8e7T/7HO3bd0Q/ITVnzxzFZ03r4Ise3fgRG4VJw8eiWP5SOBPvRKIMwN3cjVsGun179EbtqtUl32WALWRREQHBufPnUVXM365RFR2EDMWePY8fx84W4lsdZ0KxqNCsDgaO+V65lYJDu9ZtUL7G+3BInL2Sv3wnm9i9ezfK1yyL9VvWq+u3q72Pnr3Snlq1+/wrlK9SBds3LECpMgWxbPMmKR7O2Hmwde8e5H6zMmKOnkWHD2uizWdt1FukLPHxI0aiVOGCWLBiGXK8WgR7d/O7zJxNisGIIUNRvHQLJAuZFqqDEL8fLQTpyK7teOmpJ9D2w+Yo9Oab+Ogj/cBl+55deOKZx1T96ND+c7Ru2wadu3TBd8NH4mx8kpReipAmbtrG3cE5k8mCYSzSS8Zgvc5INLm5cOaZ5/y0gJkFpjue//yDpcwB48JPBlFPGUe3kKnevXujWrWqatO2jh0/R5MmjZAr16tCHqepe7iLNZEcH4d336mFt8pUkjRLfef32yQLPY5kTJowAdt27FKz/ySqQUVwhUzz02cqT7USTB47ATly5UZMUrwQOze6dPkCJd+qiA7dP0fxsgXQs2fPsEvALcTRIfnJ77lLbUTrDz9Cmw/ayn1eTJo0EWtWrVOzwpzRXbhgPooULI5qVWth4MDvkJycIGnVgzJ+Js4vyunmi/PiOb8AxYcpJLucwXULqefO+Gr23EBIqp/vQ0tYiZLunqKDhYsURam3ymPEmHFq7tYpflK/eRuXZgvNFLKcrOpZklvqGcm6kGlueDh39hQ0athGeb3/9GEULFsEE2dOVtd8qMNfr9zDJePcGf+zdl9IeMWQt2BBzJq/kNFWYeq9+0wOSa64+DUAt5QpX0vR6VUz65z7F2LMvRS4j0GyK07KmzPiXvTs3Q616tZR+xS4k/Sn/rgCwBNIkjQ70PHzz6RM3kLZcuXw49Qflb1H8sulHqr4JQ4h+DjTHdYX/RAqTR8uBs0i8vYKgfXZDNT5YIG6yHp+PQ8ELLIOTD9idIwbkLFfZr2PFhiizDhTTyP7I+orhWY8RlO6LCyyAqh71FHTj1IHjdn1CqafyFQybYgCjxT6bcjFpaEHZRo8clYnEe+/WxVffdlFc23BWRmElimaD//61934VAiZjFSFVLdB625Dwnf70LtvZ7zVqAFmrViOAs9nx/F9+n1momy12qjToJn450DdKrXQo8PXYRs/vp88BgWKvoNTp8KbYPhJX53oP7gzihYrnDp8PXF0O/IXzYVJ837EkZOHUKRQQWzdukPbnTiDF597ScjbKOXeL4NisxSUBhtXrZUBcmGc9SViwOhhaNSkCbxOB5o3aygEvKvyg0hKcKCVEMGYmGNoK2S3ZcuPwzZA5887I9dr+XEuSQbqcp2YFKdmAuf8OBMFc78Bj0vTbpcQuY6dv0TfgYPx3AsvYv/h/cqceL9qPU2mU5JQ7sN66D5koLbweNH5yy9Ro/EHiJXy80qkXTIgJ3bv2okKNSpg216d1ho16qPH1/qhAdPWoeP/s/ceAFoVWdrw7O7s7uzut/vtt//GCTo6sxMcRx3HRJIcuwlNzjlnRJAcBAMIihEl56gokpEkiCTJGYkSm8795tTPf56672kubePYrTY0XU/3ee+9FU/Vrapbz626VeNQv3EjZCSfQeOmtfDqezeI9pQ581CmYgPEvBGM6dsJw4aPRkb8ni6aOQ2J1Srj+Lkv8XSFRCxe6HTeJWXoJ/lTI7EfMuSZ6ieZjlGXIA58vglJ1apJBkdwdO9+PPZwaXzxxWGkZ2YioU51bN+x1QlCsHHrZox+eTwyvEKgRU+fECROg42GqQDvklP2vs3ItHZk8gorm3YMeO3uBJjVzcWM9YDn6uZ2gbpRD62rixYtxKOP/glbtmwy14rRzw/HU6Uex/XkZHEbQvq1K0i/eglbNm7CyePnkJ6ejfRUD66cvwRPRqbkadS8TPJL9pnviINiFk6XHA4hM+zBseNHcOHcWSxbuBSly1XEqUvc1iwNu3ZtR4ovhiNnjmLxh7Nx+sxp0S+Ir65cQ3ZQyJDkly9CwhfFsP4DMGbAWFPvSfCD3O4s6KRj8yefYP2ajdi6ZRdWr1onnTOO1kaQkpoJn58rUko4XtElIwtZWdmmA+fxCOHnNOeAkEhuuyfafvnlaSMZOuVQCHE46MXiRQuwUdL+0YrVWPnJJrOXvUf0S5O0c7Gy06fO4PTZE8j0c3s3IanCerkafiyWhYD/Kl55eRQqVayPs5ev4viV80hq2xBL1nyA819dwMmzx8w+9sJnReThJX4/XLYSO3buwso1q7Fh23Z4JA2BSA6up4nufg/OnjspcZ6CJzNL8pkvbJx6mno9DUePHsPla18JWfbBm8l0cQXydMkTpsmDtyaPQPc+PSQbpRzK//VrGTjz1UVwf39EPFi8YB4+270HH6/4GPt37zX7wnskvQGO2AsB5+KOfk6td+i9HNnWs+7kV7ad+uXIDwvG7S7bhNY5C4u7ASzL2rHlCyPOAixO5Zt1VNPAc00Lzdz7wvOodhYWFkUDrZ98hmo/lvWwOLUx3zc07UVKpjnyxu9emPm8Ebwu+I2gWxIQP+rXrYFn+/Znfw05Zkgmhs82f4y//usfoUffnua6Reue6Ddav5H1YuKEkXgsqQ4OSKe8Q1IiBvbsh0WLF2HqonfxxyeeRJ36jaWzmobGNRPw5O+fwvxZczF91myUr56Ahe9/LPFKXNKGcyQ8EslCSto5NG6ShF69emP58uXoP6An/vNn/47la1bAG/TgmWf7olnz5li8eDEmvfoG/vVf/lUI+HQzQmf2g5b0BzgUJtiybi1+/+Bv8VX2NUyZPxP1kuqakag9+3ejUkJljHn5efOtbf/uz2LIkKFSoH3YvH4ZqpR/GrNmzcKsuTNRukw5/OGhx3FFCDcRDnjNqJjf40On1m3RvXM70WUJRg4ejOat2mLn3oNo16EjevTubXSc9c5cPHL/n8zI0ynRo/5zPTHyjQkmLE7hHDF8OCrWq4s00ZndcI+QaYZ/Pfkaajesi+eGDpZCdQlNm3TEiNFCbOLo0bM3yleuJPkXwJy5k1G24p/MNOuFixahboMmmDJjgXE3sE0bDHxuNDJNmQhgrpDuck8+hjRvBiZPmY1qlWuJnvMx892X8Mff/R6NWw9HluSlUCPp/ItGOVnYv3MNKj/xFK6evmDCfGnEeDz2aGmcO3cOyz9ehjp1EiXuGVjAuBvXx1tyHpK0BUlwhAAFfUIEeIMEbhJN0dHM7wP6tl0JNUXf9N0OMH7qQp14npGRjmbNmuKll14w9vzGllOjSb4ys1KwZOkCpKWlYOuGdWgn9z79orN6elZGEIkJTbBs6WqMHTYayxYsRI9u3bF02QqhznJXo0KuQmkI+K7gWtpX6D24L2ol1ESbhg1RP6EeqtSojes+LxYtnI42bVoi22RHDvYc2oqqVaph/dpN6NNvAHbuO2jKIF/rsKwMFzI9duBLbN3Rs0d3vPfuNHrExfPn0K5FazSs3wyJtRpKGR4j5NSL9IwMNGrcAqtWrzfuODrdrm1HDB06TO4D26iA3CMhozE5Cpl9663XULlSBdSrl4QWLVrlbjuzds1KNGrUEC1atkTNhDp4ccJr8EvbdkxId6UqVTBs6Ag0bNAIpcqWQtd+PZDl9Tl6kxhHM3D0yBZUqVgO997zAAYNexF7Th5FQsu66Ny/K9p1a29e1nXq1BGpKc7K759t3Y5mTdqiSZMmqC/xvjFlmpBpP9Ky/GjcvB0GDuqP7j06ia6V0KNLN1y7fFF8xbDj851IqFFX9K+Hzl3bSxqaYdJ4foohZT+WLuknmU7B2+8ORree3RgVTh48iUf+UAoDnhuOmNTdHRtWoXWzJmjcrJkJZ9Hc+aY99Eh74Jc4YkGpQ9wSTBpl80mJEbnfJNWmDuUt20677cgPD5Zt1i8+h/QTBje5trAozmC7rSSTx+JWtqk/6yePOmuLJJr1lXVXZ5KoWFhYFC2038o6yXPtv5ZUaDtUpGSaWxw8++yzZmEMQt9u8MZ8K1AVjm5I5zYcSsXihbOxad1G9qaFTEvnN5iBaCgdC5fMxPsfLhYi6cP8BR9i5af7hCxJhy6ahs+2rcEbSxfBIxlw5fhhjBw0FH3798e786Zhz5HDmCFHb8Yp9GrTHpOefwvDn3teiPIArN30mVHB2bOZ3xJGkJ3Nzm0YV5O/woABA9Cv/7OYNms65i+ajwMH9gv3jODi1a8wctQIdOveDatXr8Wqj1dj89bPzXRMfk/ql/T7wkLeJNyzX57AlGnvICPiwWf7dmLRogVCgp0RsJOXTmPA0IEY8MyzmP76VAT8HPnhaFMAqz/8EH2EDI956Xl8JvdvxtyFSM7iXrSciioFn+ELWcwJhvHeO6+jT6/ueHnMGASFMLIYpGZmYNDgIejdqw+mvz0LB7fvxzuT38Wh619h2saV2LRvt5BLyWR/GJ9s2IhpSxYj2e8zq2jzRUAkPpq7at1a9OnbD3u/OIQP3l+FjVu2Sfh8yxzG2tUrsWDhIsk/Ptyj+HTrMvTs2xc9JM7tO3YxiWY0eMuS5Vi79jNkCGmLIA0nD+3BtMmT4Q07MwI2b5Qy1L8vxgzvj9dfGY8ufV8wBC1DSD2nq+ZEU5F8+RAWTJ2GrKsZjArXziXjuf6D8fn2z00Y27ZuQS/Jrx69e2HVJ2tNsfJLRngDXEk0aPYQj4WZM7ThkcK6QDLtvPjIC3Zc1q1bZ16ofPTRR/kK7T6Ue7VixQozdbpjx464ePGiaZBYD24nkSa0A6OdmH37vkCZMqWkTYiXfTML4evtwdqPP0KDquWRet5pMy6cvYwyZWtg1cot2PbJp9i2bj0aJdXH7PlL+N4LvpCEE8mUMp+OZwZ1R8P2zcxWZLFgCF3atkfZ8lWQKvdhwdwpSKpX23yfH8jxY83G9/GnRx+V8nUAH328BucuXTWzOjjFn7NOhj0zAC+QTIuKzZo0xeS3p0o7EUbr5s3Ru2dvqib1JoK2bTri1VcnISMzG5Uq18DqNZ8YO6JWQl0MGTrcnJNMmxc0EuB7772JpLoJZiSeGDBgEDp26IjTX55ErRrVcOKos/De5espqFQzEes2bcFXl67gF/f8Ei++4CyAd+jYPpSvUQkffbLFlCh+UsCRaSALC+dPQ5PGvYy706lX8Hi1p9DxmS5SfGPwBNJQoUIFzJ+1CFe+uoDqVWtg3lxnR4JzX13Ew088hbkfvI90jx+lSldG584dzfT0NGlny5d5WsKejYz0KyhXuizefmuq8XdQ6tW//8f/k/bEmVoelLYxEOQ6ENfx9uSBGDFqOA4ePIZHH3gcA/uONlPfr149g3J/fgiL5zk7CVy4cB7lS5XDkoXLnftKbaVNCQiZ9kZ8orlfco4SJ9TSHpoK+TVoPfthoc8ylm3uLMHt8Vj3SnJHwOLuA8sz5XY+SwoL7Q9Sdx6ZjvXr15vFHfmdJp+zOghDt7buWlgUPbil6zPPPCOcZrW5Zl0sqdB2tkjJ9Jw5c/DII4/g8uXLpjGkEho+j99auEJvfMVbA0kLF9WiudxWx0wQjX/LSXBF3hwz1dGJj9/36fnKNWuFRM8250QomI56tRKwZK7zzaIiKH64wi9JcCTCN8Ccwsg48s+jqNEnfxgyLQRXtDbdSLN9ThykkYqokFhdPXf33j14501nlD1ipiGTgDnfNOYFNTI3WU7MqsSRr3di6SZ/zR0wZZoCQ6ZNnA580mE2WxOJ3sx76pkfxIUQkhv3gffPbGOUB5xRygWWFCHxFzErNDvg1NXBQ4dK5V0l4YWRcv0i2rdtgznz3xe/OfCGAs53zibseHwmi5w8UDgjqzeD+c/4KeZa9KCwgeALHwrvtcKkQcD8ZTkm6KZp06a455578NBDD+GBBx7Aww8/bM7/8Ic/4M9//jP++Mc/mi0+aHb//ffjH/7hH8xoOcGwtD6Y+3abwFWsPR7nxcX2z7bhkYf/KOTVednBjJwzewYaNmhgRiVr107E7p27sf3TrahfqypSLp2UTPTI8ZIQ4tooVao6ls77ANkp19Gyfn28N9dZdC9mXu744c28iKfLPYZlGz7JvUVfbFmH6jUScTUrYKb4t2hU37wyYtzbd67C//eL/0L12vWxat1WZ70BTpWOeMQ2B4OeGYQX+43hzUC7Vu0wfeoCHDtwCH+Q9uyTjZuRLOQyNS0Vi2YvxNMVEnDi1AXUEGK6Zv1mEz/vcP2mzc0oLMGt9XLMSuAxNG/aELNnTDHmvEcpKWnYs2MnUpKvYdfObbh65Qreev01M1J8/58exrS585F2KQsVytXFsZPODAmP5yu06NgU0z782FxT51CAZDobi5bMlTanoymy5zKTUaNFTSxdv8y4iyEgBLkzJr38GlYvmY+kpDrwckXveJEc/dIIdHyuPy6ne1GvShOsW3VjSn6Hjr0wZ9YMbNswHzUTquDSdeflHONs17kh+o8aFS//HC3nSO11LJw3FvUaJuGPj5ZBxw43VuSfP288KlYuj1NfXsK15OtC1tPQp3tPNG3R2cwNYKlhXQxK/vOFidBqMaGN0y47I9N6p92g2fdb5vX5QjBOrVcaP7//r1y5slm3gFA32kGn2+I2qmdRsqFlWMs9O7zs4BUnKEnWc4IrBvPZqat5k0wTtFc3FhYWPzzYvhBczfuxxx7LXc27JNdDbW+LlExPmzYNv/zlL82NINhoaufl+5EbDxQK4Rzj5+b3ZjAjODrI9PJcCwX3IeUoIsEw2LHim9K8hebmeBzw3FzHj243Nwn/8prFRd3HT8w5V34+efJk7kgmR93cfuTfhOl4cZvTIs+14+gmM7fd1855jOsrP7nmNI1H6biLi+PmxvVfFhMCfwxoxkvmNzu8PC5cuBAJCQkiiWaP2EWLFkle+OD3+Ux+uKdL30o07G8SdcM4eTx69Ch69uxl6oYbtNfyy3tSu3Zt9OjRA5eETLJMkShz6yuKljFWONrPnDnTEGol0wq3DkUNxhoRksaXPMS5s2dRrWolrF7pfKceCvhw+dJX2L93Pw4ePIQK5asIUZuPrVu2IaFGNaRcPiaBZOH6pXN4olRNTHxzoRBIr7CsbLRqUAdvzVpgKFOO34tIwINrX51AxbJ/xnLxzwWsJEdxdNcnZkr01cwwZr/9FprUSYTf2IWxacv7uP/xP+L9tZ8YPcOcXxzMRiyQIVQtiqEDRuCFniMhBQId2nSU9mYRdm3agvt//nPUSqyDBo1boF7tumia1BCduvTDpatpqCvlaMXaDYbE+nNCaNC8BZ4ZMFzuAfMjLG0CF+mKoEa1qpgx9V1qn9t4Er6sdHTs2BKJCbXQrXN7rNu+EUk9OmHmgvdx+WgKyjxVH4dOONOsU1IOoEZSeby+cKnJh5iUHfNiQWjoe9Mmo0UdZwu/0ymXUa99XSzb9JG5J76cbLRt2xqvPj8OS6a8hcZN6iOdbRW5XiwHb09+CY36dce5FA+aVmmJT1Y7MwmIxk07Y/TIYVg0azTqNKiOKxlCciNcYf0qxr7yDHqOGWHiiMZC8JpVEK7hg4Xj8Mv/vQ8PPvIYKlRLwvGTXGyRndre+N0jD6B2vRaoU6cxGteti7p16mDiW1ORIWFmSSbyJSW/P+d34kKrxZe+knPqUv5lm2Y38vS7gvfHLVpHnZdiTgd80KBBhkxrW6pu2carO15bWBQXaJnVOsZBiwMHDtyizt2Z0Prqrn9vvfWWIdM6o5GgvY5cW1hYFA20TpKL/OY3v8ndZ7okPys17UVKpnfv3m2mQ3OVSXfDT+H5DykaT17RhjtHOqXqVkckaM63oHRHKKF2h1tUQl3Y8eM596h166J5+V0lb958G8kvnMJIfmFTaMf0UQh+P0Xht80E84HufIZQO+7yhl1Y0TjPnDmD//mf/8G///u/m6kt3J6JcRIaP4k8yfTw4c6oJqFu8sPHH39sGiOSbELTque3AyYdwQhC8Xz0ej3o3as72rdrFXdxM9q07oB33pmCbdu2C6lKQPoVbgHnw8UzJ/BY6Zr4cJWzsns07RqaJFTD3I9WOzMdQgHJOB+CGZeQWL0cZn/woWMupOqz9R+gVs1auJgewIKpU9G6UYO4XQgbNi7GLx97EPtPOW1TgNP6/VkIBzKFqkUxasjzeKnfaCHYAXTu0AUzZ72P3Vs+RVJiAk5fvOzQNannF06fwaZtu3D6/FXUqFoJy9esM3EEhPzVbdwE/QY4U5+9EnYwlG1eWjWs3wCTXouvHSBIS83Eyo+WY9SwQahTtzoC2dzpPYJ0cV+zfUu8O3MB0s95UaFsAxz/8rLYxZCefgQ161XA+OnOLBjO5sgJctw9hNlzZqBZYmdjfir5IhJbJ2L5pysMzQzDb75vfnPcq9iyfCkqVSqDi5lcnds4x9iXBqHrqCG4LES5boX6WLPC2bKKaNCwLUaMGIItn0xDhSqlcSktm6og7L+Cpm1qoMeo4eZFAve+zo5yJkgKpr49GJ26dzL51bRNV3TpNoBBYc7cUWjYshGyJbNYVLn42s4d27F283ZkBCLICEfhC0ubJOWIddGZtUOhojfq+A8NxsF2XT9XIHitdZXH+fPnY+LEibkvSOlOSbX6p1hYFBdoOdY6xn7WiRMncutAcQDrHOskj/r83bhxo3muZmRkGHOmj27YH7KwsCg66LORbQsHHLndMeuptjklEdq+FimZJhgxM19vAEUbzdsFdyeLupAYETxnwaHOtLvdoB76oHHL3Qy9Lzwy7QqaMT+0POn59wnNW44e/+xnP8OPfvQjI7/4xS/Mfukk1QrqU7NmTfNtF6FlRzvrOgLGdBD8hprTvTl6oKCd2t8uRKL8bpqj/M5LpJMnj5nR6e7dOuPq1StCCFPN/qVDh43AI396DIcOH8GZs+fx1FNPYOWH8+DxZGLyG6/g737yz1j5yR4nzIxkNKhVCVMXLjGklfuV5wRJ6rIx+c1xqNWoMS4kJyM78zoaJTyNx/78GL5KDWH3p1tRo8LTOHDipISbjF69WuJ/fvcr7Dp8wpDMED+zCHgRDWQZMt2/97MY028kWSoa1GuAV199TwhfGP379kLz9u1xLTMTmZnpaNO8OZ4d9DzSMrLRtEl9jHn5JWR7PNi4YwP+/Wc/Rd9nna3UfIFsKVNS5iSyJYuWoHZiLezZs8OMto8fNx5d27bDW29MxONPPIRTR74wK25PWzADf/s//x/eem86Uk6no1ypRBw6eoapRmbGSSTWr4rxU2eY8COcWRJhjvgxd/5s1K7UHKlpPpy8dgE1m9XA8s0rjDt/NBOJEvfLo15EZvIlVKn6NAaMHmVeduzfvRu/f/CXmL7ifaR4Q6heuiZWfLzO+CNq126K/v16w5N5HNUSK+K5US/BI/52bF2FX/7m39H/pbEmL7lPtieHe0lfxntvDkL33t0MmT5y8gx+/ZuHsXr1QknfCTxR9im89vYcZGf7cPrkCSkbFTBtzgJDyD2RGIKxsJQhpz3nyH5ODtPH6xsvyH5oaJugwmvGyyPrqbYnCrXX9lT9052FRXGBlnEt23zm6NTo4gLWP30Jpulxm/HIuqn1VdNqYWHxw0PrnfvZyHPWzZIKTXuRkmneBAuL4gZ+lnDffffhb/7mb/BXf/VXuaT6v//7vw2pPnz4sHnAN2rUyLytI9iR0Qe/NjYs/7wm+AkBv6m+k8g04+Y30xxVzMzMkqPTYHKl9nHjXjKELjExATVq1ED/gc/h5KlTyPby21jggw/fR0LVcqibUBOvTXgJrdt3xeqNO0y6c7JTMKBXJ0xftNh8U5sTFjId9cHnvQa/9zpee3cyqkmYDZNqoXeXlujRoydSvUJoJN/effN1VKxcGW3bNsD48cPQc3B/7DvubONGMg3RMca91IW4jX9hPCa/9KYh2EOGDMeiRQ4ZzUxPRY/+fdGwcWPUr5+Etye9hpTUdIRiOTh18gjqNqiPRM4qeHEInh06COMnvm7uUzTG3QdSzch0OBjCgvlzUbVKRSQk1JLwByFd8iUicY9+figSq5ZHnYQEvPL6ePQaOhAjn38R18+moV3Lbjh37qpZEyEj9RR69u2Eme9/KPkiDyUJN+DzSjx+cXMGjRNbo2Onvjh49iT6DOuNlZtXm/UOwjl+DB78HN6c8IbcpAjOnj2Olp3ao2bNWmjRqAnWffIxvNEwzlxNRu+OvbB5k7P1G8tb9+7PYNLEcXKVgTRPMpq16yz3MBHP9OqATt1b4o05sw3VZRn1SnpDsev4YPEbeOGl5xGIPx8nTHgTzZrXlXt9EidOn0BbiSMhoQ7q1U7ARx+9L/chCo+kJ0vC8Ee4baGOArO9Z+hOQEVVvhkH42f6WQcLA13V3sKiOMG0t/E65j4vLmC7q51T1j/3ivu6NRbPWa+Lqj2xsLBwkLcfy2t91pZUaHtVpGSa347yg/WRI0fi5ZdfxujRo805p/CMGTMGzz//fJHL2LFjzaquL7zwgtGBZIi68fqll14yonZ0f7v0ZLzUZdSoUUIqxhudqDuvmY/5+bkbhGkbMWKEOfK+sLzQnFM0mSe81nyhG+ZL3jAKKwyTcXKxon/+5382RPrv/u7v8JOf/CSXUCup7tatm1lkbMgQZ4ow6w0rGTsE2ilnA6Sde67s/ac//cl8P624EzoHUSFFoZDz/TmnznP0UzQzdmlCSjOysoxE4npG5MBtxQif5zoy074SkpyBoLQv3rA0vEJCY95U+LOvC+HjXsRhhPyZiAmZjgTThIxmIjsaEqKXJX6vSIDZZiE5r7TVOZzKnxNFuhDOtDTmkw+ZEb+Ey9FPyV+JNodE1+9BOBZAeko6AuleIesBBEhUAzmIxmeZZAU8WLB0ET7dysW5cpAd4Cr6fFkgnbSgD6lZkjZfMrwhP/ySfo9X9ItyZXMPMtJ1dCcGrycDGZmit3nRwHQLcYx64clIRlbaNYQiErcQyEA4gpgnhphf9BSnYQk3EkqVML2Sthz4zIrxUUleROLjdoFhRP0xCVvCkvzwS1qDOZIG8RyI8NMGDwIeCTnAqdjU3YtryaJzeoZoFUG2xBmUDPFmeODhHtril6PNUblBXJjx4vkvsPiDeUiOb5mXlXoZbdo3x4cbNxuqywditpDpYCRNdLom+vBcwhQJi56BYDoiMbk/Ao9X7leqlIMMrv4taZEHqS8Sg5/3V/xx4UVuo8YFx5w8clCU5Ztllzh+/Lj55pJtJdsLCus02wzWcR613dC2fdeuXSY/9CFpYVFcoGXWvAwU0edQcQB15XNHCTOFZiTUXEyNHXa+pKY9z239tLAoerA/y7rJNQy4nhGvS3Jd1LQXKZnmat5///d/j2rVqpnvSykc5eLRWVjq9glHa+rUqYP69evf0l4lP/uiEtWBeZaUlHRH5N0PLbwvdevWzS0zPOcCZDzq/VC7vH4LKwy3YcOG5pzbEv2f//N/DHHm6LSbSKuQSP/ud78zCxsRrGDaoSH48Hd3bJYtW2YWIGMFJPRt3+1+w0cy7SxA5nRseIyRDcZHF/lLCeXERLgavRAxOUYMcaI7LgojZEr8ces0Q6jCJHA++GNCPMUuLASV29vFwkIBhVz6JHyTaq7EHiEJEr8SCVeQzxE/To7wN8CJw+YsIvnIhdqdgU+SToYpF0JeSaad/JQw2OnKEXIe8mDZimVmmjYREr9hCSOW45cwRV85RiGkNSQkWvSOil3YbIvF+yZRmMgojJ35I365kriQR8fMsaN28qgR8xhy/KIA9ZP8zBGynBPOMulm3GIdJ9Mi4iPGUVy6FQgFFhMTillhPmzikPjkggSZK/jHchyySE3ojst9hfl2gdc5QUmP5AFXt6dacq+uXz2BJi0aIqlxM3Tu0hkN6yVgzIuj4QmGnBcT4tcjOvqiGeJBRPRhGsKinz8g+gm9DyLF6BIx28YRcm9ioinzSqLmkbsmiNbUVvLNRO44FbD8f5/PE3aw9UUVwbpF4b3nw55YsGAB/vEf/xFVq1ZFgwYNcus32w6uSK91nW0Hr//1X//VvKgjvk9dLSx+aOgzh0eW3eTkZPOJkj5zigOoN+suXzprHeZWku3btzdEWu21rltYWBQd9JnIbeo6depk1v4htJ9bEqHtUJGS6blz55qtgbjoEjtBbDD5ZoPHO0VIIPIzvxOlOOn6XcWdVj3/odLPssmws7OzzfWpU6fMllccmf7bv/3bXALN83LlyplVxVNSUkxnXRcgY+PCuqP1R8m0Njocmea317qaN80p2oFQv0UtXDzKUCA5OnrIlYhua0RTuTK8j5pyhJp0kGK+kRUSSJLFa14ZIh6VTpBIiKOlIvRJwp0jJJdHussl42JGYklCa4i4xG1GoI1bEkzJJ/kzhI3mxgmpm8TBFbkMr2XYcX/yQ39C98TCAe0MYTbpCkpIJOxCPuF8e00741dMqIuc8kKEOvKaGlNXiYykM/eaeUS92KEVOzayZMMk07zmdn6SXuYxs9foZnSnmYQtzpn3zD1OWzfumP1GT+YoiTLzVEh+juhqSDNfWkj+MzzjjhvrCeHlfZDrqBBffzZH1j1ITr2MNZ9sxNq1a7F+7WqEIn74SZglwZ5sH/wSR1DyMcYt6aKS32JHvRhvMMcvOeSMoEvgYi9iNKXIGZMpLpmT3F+fqXKXq78s1D8/8/yF4Chyly5dsH///lwzHtnp1gfc4sWLUapUKZw/f97UQa3jrN/afuiziB0EvqRTMn27X2xZWBQESjD1GcPO3d69e815cYGmgdAXZe+++655Uc2+Iut33nRaWFgUDfQ5yxd1XPNn6tSp5lrrbEmEpr1IyfSMGTPwq1/9yqwEpyjJN8GieICfJ3Aq91//9V8bEv3jH//YjHRxpgU74QTrCUfQ9ZtpPuhppqLlXDvoXIDs5z//uSHTWsfoxk26b4dEYo64zbhHOfcTd0s4Ls4IsXRsaM5tkYTIOkcKzYTIcupvVMgq7cSMBJVkM0ZiGXcXM+ZCSsUNzzlyy5Fm5glHiUnKaRclUTWEmwvSSL6Ss3LENoejxOJGWB0XDTNhkp+SEIoOUSGD3OaKdjSTZIkwXE5LJoEW/XKyzbmxk7Cpr9GZI7cMV8JnWE74ct/DEp+YhSU9IRHmlSHHTJOYU2jPAE36GLdJH93E80vsIuLeyXNJh0mvmDNvSMJFF0Nq6YZkV/KFeYloiuS/F15x76c/Dg1L2eH310F4zUh7TMKOhkQnmkc8Jo/cYLweKb9R3t9wVMKKIDvqQ5gvP4IB5Ehn1txPiSMguntzfJIPkp6gZDp1F8LPFyS5uouezItwbr7R3C1MrwqvnQ6xcyxYmSf69Olj6iNX2e/bt69Zu0ChL6VIpjlrxL2tzq3AusyXY5wSbmFRHOF+3nDxsbNnzxa7l0LuNBCvv/666ZPyhbX72eielWJhYVF0YLvCF1yTJ0+Om5RcaDtVpGSaex5OmjTJjACws6ONodO5tGLlzhCWeXZAKHxosy5wFJkdd36iwG11tOyyHNM9O+KcKpofmdYwCe3kc2Sao926NZZFQcDOoUOoboDX2lbl12bRzzd1Kunn23TO6O7r4ecXo7RsIvnbFBZOqvmbLuI3GpsSRSO+gBATji9zjNjAKW4CXjuN/g23jm6x+LRtLiVHum1MheByZFtBL85rIwGH7eN+bye4cr7OEqHce++9xoxb2Sn4OcWjjz5q9sXUOpm3vtOc4Ig2957md9QE7Swsigv0eUPwOcPyy+dUcSrH1FXTwHpJ4RoG3M+W305rGin67LWwsCgasL6xTvLl9JQpU7Bz586bnqElEdq+FimZVihJ4ZGNPUUbSCtW7gRhBVFCfeTIETOFmyPR7hEudr71Oy6uNHorMq1CMDxiyZIlZsSM9YzlX/fPdk8/vR0SCDniNgsFRPwBI0Hq5pJQwCdHn9hx6iynxzsSDHI1c+4H7kcgKGkScfyIffCG8Doo4VMCjN+I+A1IXtAv/fgZJsOnO7ELZRrhtZ92EncwKNfBLPhNfB5xJ3oZO/qVc7E3Iv5pFvSJGJ1FjBuJL5QBv8THME24IXErQh1NHgQlnQw75JGj18kT0dcr9y9LxC/pYT7Q3Cv2WaFs0YVxeuETO68Iw6du1Mmkj/nNNIe4aBrzS8KlMG9Fx5BXxEc3XnhEl3TGE8iUOC4gO5SCFDHLpH4Zkp4sL7KD6cgMpYnbLJM++g96JU0+0Vt093uz4c/2w+cR8TGtIl6e+3Hdk42McAjZTFe2pJGfOfgdPTNFx1TeM6/kQaaYez3IljRk816Jnckf3g8595u0OPfOEZ4zHBHJu6BJJ++J47cwwjrTr18/8+kFRWeNUH7729+ahQBPnjxpVs1/7LHHzINOO+p5RTsDHMnjyzIuUEboQ9LCorhAy7Q+f4obqLfWU56zrmsd5bPTXSfVnYWFRdEhbx2ksK6WVGh+3BYyreSZsA2ixZ0IfYBzVWAKp5ipOa955INeCTdJwzdN86aoOTFz5kz8y7/8C8qWLWsWQOJCfPxek3tV306pUcsRnteqcUMSRBLjx5vNq4t5dTmK7jVqu6SaSBVJVzVUr1kLNWomxP1IWmvWyRW6rVWDdo4bSs1akhc1xW+t6nE9mC9ibsKoLvlUXqSiE1b1BhJGXXFfSfxVdvzUqir21Rx/4qZmTdFP7BPppqaEXb0uEqvXQUL1RHHDMEUHMa9Zq5LEz3uRJFJXwqphhGEwrFo1JVzRq2atKuac6a4p5lVr1UbFhNqoVrM2akuYzKdqCdVQqU4VVE9gmFXFTaJxV13uca2akjci1LW65HV1ptvkO8OtInlZzYRRu1od1K5KXZmGaqiSWAPlE5PErjIaVn8U1RLL4uk6iahcqyHqVaqPelVroqrEV7F2eTlWlnASULdagtGpTu06qC7+alRjPsj9EbOkpIaifw1Uq1QV1avWkHBqoqKUxSpyv+pVqSrhMb3VRf/qqCR6V0isI7rUQpLYJVaXNCXWROUEp8w6ZaOWudfVJV1675jfzH/qz/vyNTF2dHNzOfxLwhdX3K6OC1py7QIuDEhxr2nwb//2b6hSpQoef/xx843XrcC6ybrOl1n8fGPcOG4l9sM8+ywsfki4+1N80ctZgMUJWheVOKvQnM9bPj9pp+4sLCyKFtq3VZT0eqjpL1IyzQUk+P2pEgoeVRHGY8XKnSAEy6WWUze0IdEjXwzxnHIrMq3guZb3efPm4T/+4z/wzDPPmK15KLrVF4Xbct0WGR0XOR/tklEj5RgXnquMHjXSkZGjxQ+3E3PE8TdCziUtkrZRoySNRm64ueHWsaMbI6MZ5nBzVD3UzsQ1eqjIMMfPyBfEfIycDxP3Ep/Rf7hcj3D5c8KjG0fXMXh+pMRLMWHSv+PPcc8t58bINXVxwnDcxfViXCYcsRMZIWkYNvp5c2S4z4vZSNFl+PPD5Ej3I+Qo9iIjTV4wXcwXSlxHozf1c3R8XvLTCcvRle5HiJuho8caHV4Y+ayENRhDnx+N4aNfwNjhIiNGi5vhEu9Qc6R+YyUdJqznJT2ix9ixozF2DMMYg2HDRDdx86Jcj3le0jx2LAaPGCF+xc2IkRgr5XC00W+kpG+0iOQTwxwu+lEfiZtueY+Y5tx7aNJCfypML8sC74/7GM+HXHffXlhfSpcubUgzt6sjiXaPTpNkc8VublnHhVL43CG0TrrrJuskhWS6YsWKdpq3RbGFPncIrk3DxTOLE1R/HvlsJThjhJ9pcFq3jlTrS2wLC4uiBeshhXWSL+tYV0sytJ9QpGSaiy41b97c3ARCOzG202JR3MEH+zeNTCv0nFsKsJ7xBZOFhUXBwZXzSZy5IKCSaJJqzvTgwmOcLbJu3TozMs21Cf7Ss4xkmt9M6zTvv+TewuJOAssrnzvan7p8+bL5RKk4lWN3GrSTzt0yGjdubF4O0IwdeXVj+44WFkUH1j2CnzuSyy1dutRcq3lJhLZBRUqm2Shyb12SaSqgo3q202JR3FFQMs0XS1wwSRdLorntGFhYfHu4FyDjXtIcVebDnQsVKbjPNEemr169Gje5NUimK1WqZMm0RbFE3mcNX9Syr1WcRnD5DOSzU4Xg4mOswxwF06ne7Lzz3MLCouig7cu1a9fMNse6mndJ7rveFjLNBZx+85vfmEgJKsGGXhtNC4viisKQ6V/+8pdmiwGF+rGwsPjL6Ny5s1l8jCSaK+y7H+j6TOGq+e5p3t8ES6YtijP0WUNhXeCRz6Xi1tFV/ZUsv/fee3j44YfNaJjacSCGM094bWFhUbTgSzo+V9955524ScmFtq9FSqaPHj2KhQsXmjeMDJcNIhUpbo29hUVeFIZMu18sEdrxcbu3sLDIH1OnTjUPc35TqWAd4qiVPlM4Us3VvPkm/S/BkmmL4gwtr/oM4bG4DVSozjxqOvbt24fZs2ebGSe0U1F7CwuLogPrHhfh5UxjbnfMOliS6yHbIaJIybQbVECneasyFhbFFQUl09yy549//CMuXbpkrvNza2FhcWvwga7QF1Gsd24yzS3oWM90nY5vgiXTFsUZWl71mJGR8a0+b7iTwHqrdZkjz+5PNtx27jpuYWFRNODzlXXQ/WzU+lhSoe3QbSHTSqBVbKfForijMGT6kUce+RqZtrCwKBhY1witQ3ywqxnJNKeI2pFpi7sdWl61T8XO3cGDB41ZcQF1Z/3VDru7DrJOa92mOyXWFhYWRQPWN9Y/XWmf0PpYUqFpL1IyzendDJf7HxLaGH6fcVhY3A4UhkxzAQeuuErQ3HYMLCy+H2g9e//99/GnP/3JkmmLEgGWWS23nI3BT+uKE1R/Pgt1tEv7je6ZjNpv1LRaWFj88ND6x1kjJ0+eREpKSm59LKnQtBcpmWbHJiEhIXfKnTaatkG0KO4oKJnmN9Nc2V4XRtJ6kNe9hYVFwaF1yJJpi5ICllf3c4TlmZ3d4lSO+Rwlida0EFxckHvGsw7TjKKreltYWBQdtM6Rw5HLcbcMgvW2pELbqSIl01wM5ne/+11ux8bd8FtYFGcUhkz/9Kc/zd0aS93zaDsJFhbfDVrPLJm2KClgedU+lXbwilsZpr58llJ/7aBza6wHHngA2dnZxkyfjzxqOi0sLIoO3PP90UcfxbvvvmuuS/KzUtugIiXTM2fOxK9//WtcvHjRXDNs2yBa3A0oDJm+5557cO7cOXOt7lkXbH2wsPhu0HpmybRFSQLLrJZbPlMoxQnUlyPTfAaq7iTTXF8kOTk5l0xzZFrJtoWFRdFA6yRHprmwp5LpklwXbwuZ5pTWVatWmRUaqYBujWU7LRbFHQUl0/xmmrM07AJkFhbfP7QuWTJ9d0PbTedexeUOvW9uXd3yfcIdJlfz1oGL4gL2B7Vzqn3DEydOmJfPrJ+aPu07WlhYFB20znHdK3I51k2iJNdFTXuRkmkFI3e/gbSwKO4oDJnmKsN5FyBzu7WwsCgctB5ZMv3twJTyScyjtFjSFnE15agxYDbcyAm2a0J4xDAai1uKGX3TnwmF/sTMCcMxNeGIe8YR5TnN6CcnLOdhhKTtc/cEeO4EH5V4QggxTjHTdpJ2UZ4zfkYpEo3GEGbfwpjFRcBrR8Mb8bqv3KBpXrAtZzzmj8e4N6bH+dP0OnaRiBA9XlMpujMJpruQRBARoTv6CotEnDhNmDd0ikdRIDi63fDJzt0XX3wRvyoe0DRQeJ91ETKCBFqvdYRM06t+LCwsfjiw3pn2UOqmwrTHruuSBk37bSHTbBQpXBGOjaO7wbSwKI4oDJnmNBkl01ohS3rDZGHxfUDrWUHJdOXKle8yMi3tj5A0FYewOcJ2himkhIX4GVorF4FoEJGoX3hfADF5NpO3hMVLJBJGjOZCgINCCH0BIYac3hcNSF4J0RFqmEOyKP4Bv4ThQygaEbooccgjPhbIgV/i8Ug4hvyGfEI0sxHIyURKyI8sQ5aCEpfjxyPhRyJeBKNZSI0FkRXm4lRCP0MReIIiEaGjJMyiH8MPirlXlPXHpLMXDCDqY/9CrsXMJ/fSR7Itacxh6DHxQNIfJ7bMD5MPIuLbsRPwxUFQdAoyHTlCfEnuxSGtw8GomAfFtegc8SMUlDDE3OfPRqY/Q3QJICA6x/xiGAlK+B6TV8xM5n0IXgQknxin8+KCZFvyUP4YO/UpKNxlllMxDx8+HL+685C3fvGaz1F9/vGa/USFEmh1Q3t1y6OaqVhYWHy/YB1j/dMdmcjdeF2SoW1QkZJpdmj27t1rFpIgeBMsmba4G8CyXNBvpn/729+aCqjIz72FhUXBoXXIjkxLe2KIoiMkjSqGfBgX0imKk2l2i0gQSYSF/SISDhnSHBQGaUZchQyGhGT7hKQGyLDF3pBpEkrGIWTQIdPiX6iiN+A3xDsiRDrijQlxFnIrpDQg5jEh05FwppDObGSJLl4hnkEx9wd9oo8Q71AM0bAX/nA6MoR6Zgt5jpBQB4IISHvrEYIbEoIcDUvKQjkIS5vLmLNDordfwvaR5DJOUnu5v2IfYvvqJtOSbnOfRTj6zPSTTHNkmSDJDQsR9jA8IfmBoJBfSbsZYI6IjpJPfiH7QfPygekUnQIeeEMeXMlKR3K2V4i9hC9piuVkSpR+5IhOHMUOC7mW3HVi4tsFvhGQ+KghzXhfCgr388Pn85mp3nciVEce8xJh7Zxr3/D8+fOmX8pz2nMQxv18JeHmUTv6PLewsPj+oXWLZHr//v1mzR+tiyUVt4VML1q0CBUqVEBaWpq5phK8KbbxsyjuKAyZvu+++3D27FlzTWiltLCw+G7QembJtLQ/JLlxkVYmVwyBMWckkY6QSEaF7EYjQoZzAswEIc8xh0xHOXLsdY7iMSxENsLnNwmi0EJObubUZ2n8JNSQtIlCiiNh+IQUB3wSspBvH8m4kOyoHGNBCSvihY+jzkKUs/0SbogLSwURlPaUI8AxjvjGPPDkhOARkhwVd550IeBej5B0IceiQ5Aj2EFOB5f+hBBSn5B9uRBOH0ZI4vSEIhKvEF+ScdHUUFVJI4Ujz+Y+O/8mL1QIv9+LoBBoTlnnqLkzqy6MgF909Atplzzy5fgQEHu/T0idkP1IOIB3pk9G9SYNse3AQfEr4UleRIVMx3KCci3PCxGS6ShfOjAqI44SellQMB3mnsrxTi+7qh/1dRNgHnVwRcnzvHnzUKtWrdx+I5+tFCXdSq4p6sfCwuKHA1fzrl69utm2jijJdU777UVKprk11q9+9avcqa15G0ULi+KKwpDpe++9N3drLIJ+LCwsvju0nlky7ZBp0sQb4qSL6VPiqGSaX/BGYiS12cI1vUIAOUrrRtyvCFdUDvq4KBTHtIW4MiRDpmkr7Z+QboLUKEz2LWFl+tPkOlPOPWZkWiH0V+JmG0iyKvbxePKCYcbCIUSF2BIBkmZxakaspQ3OEr05Rk6lSbAVDNsnRMtJjQpNlTYrmF+OrTnnKLqP+jgICzGP8cWCxBcKUn+H+FGboJA6eDxmFHrRRx9g56mTyJQ89gdDiAQYRpboyu+/xRf1EzIdi4l7k3CRXEV4UvBngbmfcTLNI58nvEd3GqifPuuop3ZG9ZgX06ZNw0MPPZSvvYbFY95zCwuLHwb8hITb1XGlfaIk1zdtl4qUTM+ePdssupSammquqQQ7MBYWxR2FIdN8scQpbArWB8r3WecsLEoitA5ZMs008GGvciNNpJEq0loZCedEEYoIAeM074jzOdb+4yfRZ8BAtGvbCu3atcbkd99BQAgikcNp3kK+ScNJqcmlTTSCoBDLtya9jq2f70RYCGhWVha8oeviMgWe7AviOYQZM2ejZet2OHjsrPhmO0py6sMHS+ehbdt26NC2Pdp1aIsWbVugU8d2OHZwn0nC9YsX8OLzo3H42EkTXYgEOxpGJBbAldTLWL9+M4LCWqfPnIvnBo7A+a+uGc6q+RBPrZxFDW11uKwELOlnGhyaHUOE30RHI9j48YdYMGOWEGsSefEjenIE/cuzR/DCmxNxXDqXRnfR4fCuz9G6fXu8NmceOMma31vnhJmX2RKjkHOaSdmKxqTvExVzvg0QBdgnc7KOv8wH5kjBwDKr5TY9Pd3soHKngfppB9T9vMvMzMTcuXMNeX7jjTfw1ltvmfMmTZrg5z//OSZNmmTMJk+ebLbkmTJlitzn9Wa2gD47dcq3hmlhYfH9gnXr6tWreOKJJzB9+nRjpvW5JELTXqRkmiPSu3fvNlO7STZ0ATLb8FkUdxSGTHNrLPee69ohcLu3sLAoOLQOWTLNNPBhr3IDSqRVSC95DIV9CAfTxasPL0+YgKp16mPm3PnYvHkTNm3ciE6dO6Hc0+VwPdnJ0xwhi3nBrMsJhXH6yFFcTU1DUKIOhILwBq8Ksb4oz/2ruHb5HOo3bo4f/fifMXLUeEdVAz/69eyA0qXKSXxbsOXTLdj86SZMHDcWlcuXw5GjB5Fy/gz+9L+/wYrV60VnEtaQmV7NVG3+7BPUb9TKEOQjx09h2OAXsXLlRvNNdH7Iqz1dcfQ4YnLEGXl+sX9vDOja0yw65ka25yqOnj+NSz7GHYU/9QpGPdMX4yZMQsu+z2LWqjVmETYdwb4ZNLsRnsYb4xT070CmtXPHZ8uBAwfM+Z0Et458Tir4YpkvmDniVa5cOSNlypTBk08+aTrupUqVMtcVK1Y05//1X/+F7t273/Ss5Uj83VFvLSzuPLCfy/pG3rZr167czxT104ySiNtCphW8GbwpljhY3C0oKJnmat6cuubeGkv9WFhYfDdoPSoomb77VvP+OpgqFX5n7Ezl5ohsnE6bVaW9OPzFFvy5dGls2r2f3nKRle1B3Tq1sez9JXETmE7VW5PfxjuT38WxQ6eMWSQzC4d27cDllBT4pL/hDwvhjaVJPNxb34t5s6cJmW6F9+Z8gMoVayEj3WP8AR4MH9gLHdp3jV87iIWzUK92Vbw6cRz8Vy6ixlOlsfKTLYZMhznVXEjr1Svn8czAHvjt7x7C/PdXIRCO4tAXX2L71n2ISPt65vhhHDq4D2s3rMfkd9/Cuo1rTNjLVqzEO2+9gR0b1pGPm0XLvFzILGbGkfH6kP4Y1usZRMh2BRs3bsDqNctw/dpJfHZoH85kOVO+A6mXMPfddzD5vWmYsXQZdpw8hWy/F5cunsO+Xduxbcc2vDHtXcx7fxHCkQCOHdiLyW+8gflzF4quEpPw6BC/Gw8zPCeubwvt1Gm/ilMxdR/YOw3UL2//79SpU6YzumbNGjPQwkEXCgkyO+t6TaF9p06d0LJly7jvG7hb662Fxe2G1lt3W1PSB0Q1L24bmVa4tz6wsCiuKAyZfvDBB3HpEjuWDvJ2LiwsLAoHrUd2ZFrgSgZPKXz88ykciUWFUIeFUEcMmSapNqtKw4+BfdqhXvPm5ntgTuQGF/aK48qF80i55rRd69dtQN269fHsoIEYMGgwypWpjM8+3Y6Ix4sqTz2OhR8sFf9CkYUUxaJpEv4V+D1foWvnDnjhldfhEQJZX/x/IOTTgRcjhBB37NjD6KkIea+jVYskjBo9DOHLX6HGY09h5cbPTNgh6i99ifPnD6Fbjzb4zQN/wquT5+JamgdD+ryEPt0HmTAmvTQWDz/8R4we9yIGDO6PilXLo2X79hg4YhSGDRuCJlUrYPH8JWYqdnbQB3+I07MDeGfEAAzo1N2EsXjR++ZF6PRpb2Hv3vUon5SALcdOIioE+OWRz6FJo/oYMWIE6jRshuFjX+JrCixZNA/3//RnGDL4OYx4fiSeKP8EmjRrirGjx2D48OGoVLEm3np7thDsHETN6I8zyl4QaHnVzh1Jp+6ccqeBuuZ93pFMc7vIrVu3xk2+Gb169ULr1q3jVzdw19RbC4s7EOzbKm9jXSvJo9LEbSHTXEZ9w4YNud9JM2ySEAuL4o6CkmndGivvNG+3WwsLi8JB65El0wJXMnhK4ePfLBsmRNqszh0LOYSaez5xgrMvGUnVS2Hi5Mlmk6uQtGf+7AycPnEchw4dw1fnzsKTfg3BYADNm7bFq685C9EQI0e/iCYNmsF37Qpa1qmBj9euNoSc+z1nZwsBz0nHoS82oUG9ujh18arx8+ar49G8mRB389G1D4P6dkGjxq1x8NQ5HD5xWojWSSxdMBU1albGkROHkX7iCJJKlcOqTTtBusjttmIBxhLGps0rUL1eGzN9m6EN7zceA/sMlzPg1TGjUaViRWTFO4D9n+uDh594UvybS4zq2RkD+g6CN0oKHRF92FcJ4K3BfTCm/xAsWbIalSvXwMYNm437HTs+Rs3mSdh36So2r1+FimUfw7XUFGMXDkVRrUp1bNy2GR8sW4ZH/vePOHvymLGbPu8d/Pq3D+D4yXPmevnHayXcRCHAznOD25DddOO+BfT5waN28Ig7sRyrnm7dlExv3uzkrdrnJ0SPHj0smbawKEJo/eO2e2vXrsXp06dzzUsqtK0tUjLNLQ74rYt2bBg2SUdJf7NhUfxRGDKddwGyvG4tLCwKB61HlkwLXMngKR/9zsrdUSGLIXBfaZJpfqubQzKdE0ZMyHR9IdPj33kbpJP83vjE4b1oWr8+GjVqjlJPPoHeXdohOfkaypSqjH37nenEDHvHrv1ISkzCqd070KxWRSz58H1DprOjnBKYLmd+vDRiAH7z619jxsLFWLR4EQb06oaf/vR/8Kn4ZSgvDhuAn/3ifiQ07YA6DZqgXlI9tGtRF5/v3Cj2wJX9e1Dnsafw8SfbwcnhmdxCK1vOcjzSts5DpYSWSA4IoRWFRvZ+BX06DTb+3nzxeXTv3Nmcx0SrZwb1QYfefczoNjHu2d7o3/NZeMSfV/LBE86QMP2YOXYgnvzdg/i7v/9X9B84JO4a2P/FStRulYTPT5/DxHEvolTppzDnow8xa+5srFjyPmqVLouXJ47DnAWL0bJuSwTSr4uvIOYtfhc1kxohOTuM7GAQ73+0CrVqJiErk6uji24uIlkQqHseOXrk8XjMs+hOA/WzZNrConhBiSM/ISGXmzNnjrlW85IITXuRk+n7778fKSnOm1sdlS7JN8Li7kBhyPQ999xz09ZY+bm3sLAoOLQOWTItcCWDp3za3opMczVrcDVvoahD+rZFrSZNzch0hNTTy0XJ5EKwaOYMNKufiHPnz6PUE1Vw8ODp3Gi2bt+NxBoJ+HLXNnRsUAPLVn2EdIk0y3C6INKunkbNp0ujdavW6DXwOfQc8AwGDeiFRx/5I4aOGW/CGDtkAFq064kMCVSJLiLcZ1hIs2iTeuQA6jz6JJZv3I2rsRxkShqiftE7moVVqxajYkIbXBRuzShH93oVw/u8YIKYOHwIenTVb7HDGDC0H5q17wiPUT4Hbw56Bs/1HYJUidQnviN8DZCThilDu6LKk6XQtcczePSpMti+/QsTwoG9y5HUtj62nziL8ULUH/rzI+g7dAiekTQN7d4Drw0YjD1792DRByvRoWEn+K5xjQwPps+egDrNWuHkNa+5H0uFTFerkghftg8RbvclhgV9HrAfRVH37Gdx5Ki4kmlNe35CWDJtYXF7kJycbD514Yr6JR23hUx/8MEHZjVGLqvOcKkEG3pVxsKiuOK7kmm3W7d7CwuLgkPrkCXTAlcyeEoRGiMSQ4hTvIU855JpUrtoWBq0TBzf9yn+XK4CVmzdSa+5iESimPDCGDRvWAd+vw9VKyVi+vR5cVtg2sy5qFmtJq59eQxNEiriw9Ur4JNIvfHH/Mql81Hj6XII+PyOQRzvvDkRpZ6uAk/6dQx7th9ad+zlTOEWCYUCwvMzEMnhXs1Cpo8fRt0ny+LjDTuRLvfJE+M0b9E/5sPHHy5ApZrNzIg6Maz3Sxg+4HlzPm7kMHTu2MGcx4RMDxzcF606dzb6EWN6dcFzzwyBR/hnQMh0KIffLvvxxtDueHHwMONmgLTxjRq3QEza/COHNqBGw5o4eO4rzJoxFS06tjNuFPNemYgDB/Zj5pzF6NCoM0IpHJn2Y978t1ChZh2cuprNHMeHK9agcoWqCHp8ptw5ZNopg9+2HBp/8ecOwfU4Dh8+/K39/1DIL372+SyZtvghwLufn1h8d2jd4vOUi3XOmjXLXN+JL+yKCreFTGdkZJgGk9OPdGo3SYgl0xbFHQUl07qat34zTXyfdc3CoiRD61JByXRJWM2b0JRJ62R+3SbcQzka8CInFsW8BYuE4FbCKxNfw+rVq7Fq1Up07NgJTwsZnjNzqnE/a+YM1KheBR98sBTLPlyGGjUTMXfufMTkGV++bFm8/+Fyk5fsbnEV5nq1EzHw2QGIhKNC5MNmVWuOEh89vB+/+91vsGj+TPTr1xtJjZqY6eHsKQSEwIfDAWlnPYhFAzh/9CCe/ONDWLFmgyGjXrGPhvkyIIp9O7eh9JPl8NFHq+AXwv5M78Ho2rW32AHDh49Eg4aNzDl179Wrm1w3QDjeBxk68Fl069JdCDtzRnQ2i7HlYPSg/ujWoa3kSRjnz3+JUqWexMjRo7Br93ZUr10LXxw+gsysLDRv2xo9Bw6QfFqFdya9hpYNkqSTdQ5z5s5DnVp1kZ3O0XVgxsz38KfHHselq065XPrBMpQpUw6e7GwTb2HKHv24+1Lsb7GDd7vLMft6Sp7Z9+OzkkfqZcpFvCPOPqcl098FTDfvf165AWZN3ny8yR9npsTi9sZO4bjJ4Yr/ZvV/1g3uBBB3x7Do19g7Zlz+gEcVN24yy72gDs4iiCpOfI64zZ14HHH0dkJjCGwFKKy5XBci7kJAN85ZXqgKfMVIcdw5YVrcAO8t6zOFXC41NdWYWTJdxGRaoY0rG1XeBB4tLIozCkOmH3nkkdytsYgfoq5ZWJREaF2yI9MFA9MciwqZFpIbCjovvL/66hKeGzQUnTp3RsdOnfHKK+MlrzLFhp1rEuEI1q7+SMhNNyHB/bBxo/Ndc0D8v/7mOzh46ChCQpzZRrK9e3nceGz/fIcQ0xiCfi+iIb/0jUmbY5gxfTLmzpuJlas+xpz58+Flx41hRXPM6tRcMTvkz8alC19i0sRX8OXps2ZvZl+Yi3ZJR5vk3JOJyW++iWefeRZXLl/DmtXrsOT9D41Oq9ZvwNz5C0w62Uav+PgjzJszE9GY6CfXK4UEz5d4Q8EgQgG+9A9JpkSwbs0KfPj+AtE3zRDqD5ctwnNDh2DfoYOYMmMavjx32nS/07MyMer50ejYsSOee24gLl9yXpbu27cXM2fOzCWR27dvx7vvvms6o+wP7d2710yZ1NW33aS4IGDYKoyLeXa7oHoQzGvt6zG9PFeCrf0/bq/28MMPWzJdaDDdeeXrpPDmfHS7EyE5NSTVMb0Bx41DYG+Q6Yg4NCVVziH1wllzQcKm63gYKm4Ye+fU5cAxJVnmJyj8cxNnnuc1U30YJ3GDRDufh3AXApo5cTHNJH2OWzdUBUumvxmsr6y7rMME667W65IKbatvC5lmxjNc7h9IRX6IOCwsihIs04UZmXbvM23rgoXF9wOtR5ZMFxzRSEjIZcS0aZEwj05nwY2QEGBu3+T3ZyAgQuzcsQ0TJ05w2jLJuhBX/4rD7w/K8z5sRqYVHDXOkXbSdMKFTJv9rfOA22mRUAclPN6NaCSAsF+IvCHf0u5KXAEJIiRRRaPSEQ9K+KKbQjhyLkLsg8fPYxxVc3UAzQh59MZ1KBiCz+OVtIekXWbH0QkoR9IcDt7YbkpaeXMMRILI9vvy7X7ncM52HGzj3XnATql2TAmukst+UWHKHv2ouMO8ndD0uTvbPOfzUQm1pvX48eN2AbLvHSx7X6+/N6D2jig5/XoW0sBtn5dMx+txYcg0EXdEnyTLtyLTFEcHt9wInWGKifh3SDSPrLkmeKM3r+jqhh/i5hBUbnZj4YD5re0Lj1qPSyo07UVKpjktYMmSJabTwnCphLuRtbAorigMmX7ggQdy95nW+uB2a2FhUThoPbJkuoCQNEfCQWnPnE5SKBQ2EgxLh0myg6t6h8XefGcd9gvxyxZ3AWm7Qrhw7kscOnRQiHPAjEr7AxKGeIpKuxamfzlSUlPThDQKKSVRDwtxJ5GOhhAJeoX8Cnn2Zkn4ISGoXBwtJkQ5B/5ojuggpCzkEx2FmPuzEPB5pEMPs50WexEk0xxFjko4YSG2MXbySLDFniPjQWHc3Mc5EHSIHNNqXhyQoLNTGNePYgig0Y8j9AGTJxx9y2HeCFkPix7+oAchyQd+d+4N+oz4Q5IX4i4UCiIg+RARBh8Niz/qKGSdYTNuPi9Yvkisea2dUo4m63VhoGWW4ZOUp6enO2m9DdB8ZPzcRocj8+56aGYaiJ2Sa64fwhfMlkx/32B+KEH8JnHyzoi5ckNMcsmrc1/+IpmWXx5V3HDs43A5cMxZn/Mn0zcItKNHvFGS83gAAp4zDFrRVG2Me/HnxHzD/c24lbkFofnMZ+WCBQtw9OhRc826WlKhaS9SMs3M//Of/2wi1QaeDWlJvhEWdwcKSqa5ANmvf/3r3K2x3G7d7i0sLAoOrUOWTBcc0Sg7xU77FQwKyRVCSp5K8ktyxEXHlEzz++VIxC9uxV3YGXENBIRIGjIdNGQ6JP74iGebSGE4JNM65ZnTyg2ZlvBCASGoQlZ9fi8CQrT94jYongMRIbnSGY6Juxjj48JpQlyjYs6eRFjCCUecDn1MSC1JclCIKglxWNxoGtjB5jWJt7S08bQ6xJZpU/JHIsp+dTDAcJzvfM30d9GJo9VBIdLhqJBqIf8BIeNB0SfDmynkmi8exF4kJkw/HBRaIISaZJr9nNw0y7nGp30glj+91v5RQaFh83j9+nXT2S1sWN8VmqcEifRf/dVfmf4f+4Fpac634wTzhODI9IMPPmineX/vYH6wj/11ISl1zm/kmcnj+PkNiImLxNJN/mRa7jdJaxwMR8WNm8xcFzxIDLlk2uhndhmQOsJx5rgODrGWeFihRXLvuRyM/tTLFaY50j3Dy02v2sRhjORHrfJYW0jOSdtCcBCIz1XWa0LNSyI07UVKphcuXGi2xuKy6oQ+OLQxtbAorigMmb733ntv2hqLyOvewsKi4NA69F3IdMkFR2c5ksy2iHnpCEer+axm5yEmBDQspDYmJDoa45RruueUcIc8sf3jiLZzTtLqjEByJJbfNptRZEHMTK3mvaK9kOkQV7MWQmw6zJyazSmftBVia4iZ6GQINYm0HEUx7R4bCOEV9ionnPXm9C+oO3Uh2WZMPDppk067uHHItEMQCCd99O/0TQwhDosd/0nKhaCThEeESIejQqTDfkSERHCqd0iOJNTUiwuscWRa++8MnySd4VI0DgX7Q3RD0Q5aQaD+lDxfuHAB+/dz3+7bB81T7kf7ox/9yAhJNRf6mzZtGrKysow9cfLkyZtGpjUv8hPCkumvw8mfvHnnkGaVG4RSybSTX/yl0OamHDQW8qN+JTzxacg0X2I57kl4pd7FWPcYpvzSHeM39jfjJjPXBQ9SG0VIl6mvhG4IutQNfgkdTwv/+HJNfoywZpsgXGHlxc1kWsWFeFhuKcllKT9ou8QdmbjmD9d9IArTXt0t0LQXKZnmFO/ExETzxpTgg4QPl9v15tTC4vsCy3JhRqbZ4SFoXpIbJAuL7xNaz74NmdZ6x8WfKlSogAkTJphrC4viDNYBHRm+3eC2qH/9139tREn13//936N06dJmdIsrj3O0ix30TZs2GT/U/1ZClFQyzfRpm8V+h6aXZNF8giFiXvbwEwY58pODaPwTA+M3EgU/X+ACgDwXn6YfzjUDAuKWK9vzFQ9jCEv4ZpV88ZcjYZnZGeKOq3jTfSgWFZF4I3yhxpdMAfOCbM7c2WjUpAnOXzgv4eQgJOGEzCcdfJFG6ktT5yWb6f8zPL6kkmOQevBFGEkz02DWQBCuEPYiGPCZ9AX5Mo8vtiJOeQiInwhfAPIFHvXnSzINk7NQ5Jzp5GclobAPAb9HLh1izTSFyUPEbUzC4wuwSEjCE8nhdyT8F//6AozQvCxp0DTzeVq3bl2zWCNREvNCoWWiSMk0F9dghGzgqWeuJowAAOo9SURBVIDzlpqF3ZJpi+KNwpBpfjOtW2PRXCulhYXFd4PWs29Dpll3CX5fWr16dQwaNMh0/l955RW89tprmDRpkhWXvP766yKvGZlEmZRXxI2R1+Vc3MaPecMx8pq4o4g/ivqnvPa6yut4bdIbzlHE2MfjveGGfl6VMCgTzdEJi0fqTD/0r25VNN5b6BeX11+TdLz2RlzoVvy8PlFkgug2UcJ8NS6OTk544paS6+fr4f4Q8uqrkgeSVh7feOONfN0UpVCHFi1a4Cc/+Ykh0xyZdpPqv/u7v0O5cuUwYsQI/OEPf8DWrVtNfdRnZ35ClOSR6VwS+i3BPGG/28wGFZLo9/oQ9PEzCM4IcWZKeAN+eIMBQ6Y54sxZISTM4fgME2GuQjr98PMTDCGf/JRBNQgGfQgFsyUcv8Thx4IFc7Frz26zQj5Jrlf6/iTThFmLQMLiTBamwXyKYUSIuZB7n+joE7cBIc2BoAcxCc+Q9JwQfJnOYofUKFt0cEN7T9z/PSjp4BoI/MzEzF5x5RXDVHAthDAXU4zrZiBO/V4nbzgrhUd+pqF5rlISyll+YNpZXth3TUlJKdF5QdwWMk1oxlMBip3ibXE3oKBk+lZbY7ndWlhYFA5aj74NmWZdJTweD2rWrIlGjRqhW7duZso3hVNSS5JUquKI26xKJTlWrOQcjVlFI5WqUL7uh+7couaFkUqVq4hUdQmvRUx8jh5/Wf7SfawqUiWPWV6hveOuioRXpXIFKR+SfhWTF1JmcvPBcV+lEuUvhf3dpUoV0UuE53wppOW3WrVqX3NblML4+S30j3/8Y0Oi9ahCQk2izVkhnK3FzijB/qE+E/MKUVLJtJJftltcc4WfpXTr1hV9+vZE/2f7mj3au3XrgufHDMOEiS9i3PgXkZaWgWBAiLQQQ6/Hj4j5dCFitn/zergGQthMlQ7nxMwoL8l0UOLgJwsc2V25fDlWfPQhcjhiLMKBMObz0ZMnMWXmTFy5csGQadLcI0cPoFfvnlix6mOjb9h8EsLJ21yDgKv6OwsckpTHSFiF3HMbPhJfvxD3gKQrS4i9IdMBLkoYEHuPxBdC9vVreG3CK9i6d5cZvb546YqkeQDmfbgMpy5+hdnTZyAzPV30DgmJl/REOALuYNeeXViwaJ4h5ds+2yyEf44Z6eb6EBGJ77133sWooSNx9YLTJ+OovdkejyPUwpfMiwimQ9JdkgmkLpqo6b9TZr/cLtwWMq2FkN+m8ZxEmqKdGQuL4orCkGl28nU1byKvWwsLi8JB61FBvpkmma5VqxaGDx9unlElVTxxca49NyRbrj03m3tEsuSacsNP3J1b3HaFFIafbcRnxIkvWyQrLpliliVCs1uJpufr4d8s6s4tNPfFj7zWeB1hXtycd3H3Qla+rzz4JmH5VeFK2VeuXDE7qOTntiiEevCbaOrCPbRJmv/2b//WiI5K/+M//iOaNGmCTz/91CxAxrpqV/P+ZrBvwTUASGo4m2bNmlVmJs24cWPx0MMPYPwrY+V6Mdat/xgbNq3AqNHDsHbtBgi/RJR7yBGuLOLosRvBnCj8QpACIrrC/bP9+qGXEHZuZefeUu5aWir27N8v95n7rwfg92XgmWd64blBz6Jt+9bYuGmjIdJE3rvC6dpucMZ5QNx6hRNkCcnN8GTA5xOCbtZkcJB26Sv86t5f4L2Fc8z14sXvo0Onrpg0Yyoq1U7A2FGjWQCMHcEF0riAIU3mLZqPxHq1kZZxHZcvX8ShQ/vMqDQ12/LJerRp1gqD+g/G2JEvIDON++g7IJnWRQgVHG2/28tZfmCamQ8sezoYyvJYkjncbSHTBw4cMB+ss5El+EaDN0OVsbAorigMmeY0b/1mmsjPvYWFRcGhdejbkmm6Z8efI3tjx46Nm1pYFF+kpqbixIkT8avbA62Hy5cvN9O7lUT/27/9G5o2bYoVK1bkkhQuxvnwww/bBcj+ArjlWn4k5vTpE2jarL70KfSec3X9CPbv34Otn+5CJBzDqeNncPbEeezevhsL5y7C7p17jcstWz7FvPnzsPvAPjN1mySUq+nr3utjR4/GwGf6mpFpYsfOndiy9VNcSU3BsdNfwuMV8pkTRErKRcyc9R6WLF2IZR99gFOnTyE1LQ1nz50zL3YOHTyIuXPn4tNPt0goOTgo8c2T65Wr1phwSaZJ5D2hALxBL4IhHyJBD9atXYUli+dj25rVeLr0U1iwchk8wQC2fvY5soXoZkRDOCh67Ba9Ll+5hC07t+HMxQtmOnim329G3Be+vxiNWzZBWmYKrqdexckvjyIc9Jl4v/h8O6a+O1XI+RKs/XgtQv6QsCTg6JHjOHP6DKL8zlx0uyiEiTwmMzsLAe5pXwLB+sX1RaZPn459+/bdVCdLIm4LmeaKjr/73e9yV/PWNxwl+a2Gxd2BgpJpfjN933333bSad37uLSwsCg6tQwVZgIxrelStWtV8K01wOqK7TpYU4TgOxblmOybPZx656nV8RMbtlmv0UG744cXN4vaTv/Ceqdwwd/vnKbv2XFibwtWCc8y2OdJlzglJ7GHRwVkHmN9jqu5fF/q7EQejuVloRjfiVsIzIudmfWHuYy3lhd9QioFkCxcwckbvjD/5kzPHb1zMQkdfi/OHEeqh5Zkr7h4+fNicE/m5/yGFz0AOmPB86tSphkRz0bHmzZsbEs0OuRvsjNoFyL4duCI+t63jt8Es68Shw/vQpFkS9h/8XEogR1w5aOVFv/69MGDACOPm+REv4Q+/fRQjhz2PXr17o/LTlcXuOQweOhy9e/VGQt3a2LBli/iXOKSM89tmYsSQwRg2cKA5X7pkkXnp8d60qfhE3NZuWF/I8glEwz689urLaNG8Mfr27Yt69evilYnOYo5Tpr2H3z/we+kfDUefPn1Q/uly6NqtC0aNHIHeokepp0oLmV9o4uW63b5IUOLmnu5e0XUQ6tZJQC/Rr3vrFvjD736DuSs/wv4vT6BUmXK4cDXZvDb48vpVVK1SGbPnzsTLk17BnKWLDZnWSciLly9Ds3ZNEYoGMHXKZDRt3MB8A37w4D7UTaiFrl26ok/PPmjboh0OHDwkBQlo0aQ5Xh57Y3eHV197DY0aN0JG1o2R65IEd9vyxz/+MXc175IMzZMiJdPcX/CXv/yluREEOytURN9MWlgUVxSGTN9zzz25ZFrN3Z0hCwuLwkHr07ch0+qWU1P5jem4cePMdUkFc8PJEUKv3HID7qubbNzOb7L4bmBQbB0pTrA848t4iqGx5u/myPPKt4XbrYYsf672XC5vEaRa3NLB9w7qReHzg0e+HNJZgLcDfAZyBJXgit1chIwzstz9PX1OEtwaix10OzL9zWCJD3El63g/wbywERw8tA/1m9bFoVPcDo157JVDNgY8OwB9B75o3Iwb9TKeKFMXmQFn6vQzPbviscfKwBt2wuopBPe5vkOcIisSMwtz+TB6eD+MGjwKK1esQKnSj+OjlcuN++1f7ESdBom4ePEENn2yAk+XLoOr551vjlNSr8l1BXz+6VZ8tGwa7vvVvTh67LSxmzX5bTz4+9/h6BlnFH3B3FkoX6E2AkG5v6J7OMYRYz9WvT8HZaRNvpiaatxt/2QZ7vvd/ZizeRv2Hj2CSuXK4Ozlq0wpjl45i5r1amLW7NnY+tluHDh6SsKKIpLjjD7P/GAJmnRpLPnnx5RJb6Bvyy7wJl9AyzZJ6DvMeVFATHx5Ihp17IBUrwe9W3fCe6+9nVuDJ77zDpKaNRGir3kfz6h8pfiC6eKLMG1LKKyr5GwEPyHhNnZcYJDQfivrtvZf3XX7boamt0jJ9Nq1a9G4ceNcMq03oKR/wG5R/FEYMu3eGkuR172FhUXBoXWoIN9MK5nWfaZtPbQojmCf6k55jvA5yGfj6dOncxfbpFl+OnIasCXTfxn66sikkmnNcTrzR44fQmKjROw3ZFryNyokMuxF7x790WvgeON25DOD0bbnWEPIhZJjcP9u6N5zIAImsBCeHzoIz3UfYhYo4zZRsaBf/F3AuBf6CTGuiP/zT/+IvgN6Gd/E9j3b0bh5PZw9dwhjRw9Brao18enqzdi4Zi22fbYF5Z+qZIjrkgWvoEWrxkjJcF6kLJk+DY3r1cEVb4qkI4DNaz5G1WrNkZoaEjWDCEU48puNAV2ao//oUWaMHTkBhLJOo3m3NnhjzUZ8tnsHEiuVw9mLl804/Mnk8yhVpRQee/xxrFm1GRFJZEzCjuQ4o8jTli1GvS5JCCMT8956D8Na9cGpXZvw4J/uxYg3XsGGTZuwbvVavPPmO/j5Yw9JeJcxoFVXvDtukslraj7mzUmo3aQxglzhO7csMjfzk+ILTRvrKmcP6ywtHQDlJyQtW7bE0qVLjXuui0DzvHWb13c7mF6iSMk0STP3mGbkFDayzOzvMw4Li9uBgpJpvqHnmz33AmTaCFlYWHw3aD2yZNqiJIFlVjuwHBXm6PTthHauFdQn7+cTCkumvx2Ym/mR6cPHDqBe8yTsPcnvnrnfs9z7iB9DB4/GgOGvisccTBj1Ijr3eyHuP4whA3qifcdeyAoyjDDGDh+MYX1HImr2WhYybUamU/HKi/3xyEOPomGDBni6YlkcPHqAUWLH7s/QuFlduXf7MHLEQDz8h4fQu1svdG7fHp27dsCg/kOxffMWzJk+Bm07tESmzxk4WzZ3jhDvSriSfd3ouvaj91GxUkP4gqJFJFuIcHyKescm6PbcAGRSPSHZwczT6Du8P15f8Qn2Hz2MOlXK48KVK+B46cFLJ1C9QQ0s+/AjRmEQiwmZjjmfE0z/cAkadGkEbyQVc4VMj2zXD4e3rscfH74PSe1bo32XLujYrj16deuJAS8/j8vZWXi2VRe898rrudR47Juvo3bjxvD4HPLogMf8pPhC6xk5G/u2bmj94t7wJNH5gW0P/d3tdZHQclCkZFpvit4ghq3TgCwsijMKQ6YfffTR3Lf1NGcY7o6HhYVF4aD1zJJpi5IClleKPkO40vO5c+dyyXVRQ/VRnagHybQ+G2nGoyIvmVb7/ISwZJo/8hsn0/sP7UWt+rVw8MQBcSP96hwhOoEsDHluGPoMcqZ5jx/xPNp1H278M5TBz/ZAh0496VoQwbAB/TC8v5DpoLiQoGMRfo2cjLGj+mD0EGdhxh69OqN5q6bmfM+eHWjWvD4ufHUcb701ET27djfmiimTp+PL4yewYO4ENGzWANcyHPK1YNp0NK5fD1+lsv8TxcplS1C5WmN4qbaQ+mA4S8yDmPTCELTu1s1M4yZSLx5EmWpl8c6K9Th84jiqly+N6+nOyPPuk/vxv4/8FitWrjLX3BaLK4ZHYk6cc5d/gAadmiAU9WLO2+9hRMd+uHhoP1q2bYJPvtht3BAXzl7AGwtn46qQ6Z5N22PqpLeNOXO50zN90KhVKynHzuJjTlmjTX5SfMF0KV/jyDSfjSTO5G4UvhBTDsdrXRCP9VvPebzb6yKh7W2Rj0zrgmPuG1ASMtzi7kZhyDRHpt1kWiulhYXFd4PWM0umLUoK3OSTYJk/cuSIeRbdDlAfd4db9ct7VNiR6W8H9hJyybT5dfoNh44eQMXqFfDFoT3GLBLyiEM/OnXoil7PDjNuhvcfiMatehlfJK09urRG0+Zt4TNFJAd9unVBjw49zOrVXHssJyp99MhFjBzaC/17Od8Vnzx1FH948Ld47713sG3bZlSsUBZnzx1DaupV1E5MxIQXxmPXrt2YNW8GmjRujtPHTmDu7FeR2CARVzMdYjv97XdQ+emnkZyRIlcxfLR0IZ4sXQ1eIfHBsBCyiE8i9+Hil4dQp0lTjHn1dXyxZxdefv4Z/Ov//CsmL1+DlIwM1KtZFSPGjMXO3bsxcMwQ/NN//jOWfeTsbx3g9mEhP2I5UgblevayxahSvyaCET/eHv8q2iU2RE4giPemvovSNapj3cZNovcuNGvUDIPGvSikO4JZr7+LulVqYdPWrVi5eRMefOxRVKpePbdOOWWN+Z+fFF+wbmr9fPXVV/HUU0+ZfeC5bzyPZcqUMdtIcsHOsmXLGjMen5Z7yrURuP6B1v27HcwnokjJ9M6dO/HSSy+Z6QEEG1hmuB2dtijuKCiZ5jfTrGcXL14011ohLSwsvju0nlkybVFSwPKqnWCCu6bwW+XbBerD5yCFz0fWL/b1tJOtorBk+ttBqZqTSv46V+e/OocJb0zAyTMnJA84qhgSMhzEzJmzMXXuYsTkPixfshSTpy8UHzmI5HiF5E7GpDffhifM+xTC3BnTMH/mAueesSxFgnJ+BbOmvY4l896Xa/EZi2LWzCno26cHdu/YjrcnvYrr151+zPlzF9C3Z280a9oEnbt3Fh5xjjcE69YswitvTESKj9/fhrBLyOkrL76ITG6pJXru3/05Xhr3uhBkL3xBjxBeH6KhbPHrx+HTZ9C4TXu0a9Vc/AzGCxNfwKYjx02qjx3ah6YtW6BxqxZYsHwJJk1+Azt27WGUZpGwcDQsZDoHYZFNO7fh9WlvmxX5N61ei1lvvCt8XfJIAnp75ky069ABbdu0xWzJrywxDDBvw8DEF8ajadNmGDbmeazY8AmmiFuP12+y3ilrekfySvGFuw517tzZkOnXX3/dEOuJEyeaRTr5nBw/frwRmk2YMMGs4n7//febLbOIu70uEreFTHN/ucceeyx30SV9W2mJhEVxR2HI9L333ouzZ8+aazW39cHC4rtD61NByTTfvFsybVFc4Sav3Dc9MzPTXN9O6POM9YnCa/dRURgy3apVK3NOaDw8ath3pcT/5MJlfuMe54BbuPEr4jByhAw7ZpIv4Rv7IoeEUHJVazF1rrkNVuTGVmXSexGzMCJhIbURtp1OnpNMR8LO6PLNiIifWwyKSVnkiuCEV4LxBW74lzslulNHR4+g3LdITlj0J8kNiM5eMwp/A87UY2oacqU5L7hVHzXmiucRKf/yK7nhuOdVLvxyHr9ctmIFtmzZas6zJewsTlP25x9HRCJw533+ovbmVsXF7e/OkLxQMx3k7N69O7p06WLO/xK4rz23Tdu719m/vCRA250iJdOzZs0yKxjrat46Mv19xmFhcTtQGDLNbeLc+0wTed1bWFgUHFqH7Mi0RUkBy6uSaSWUan6ngTop4VUUlEz37NnTTCnVbzMpfA6zX+l2e7eJ5JqRm83jBE5sYkIbKTlm/3WOzPKKnX6HXPPdCkdnOfbK/dkdqsn8FvIUpRvpz4gfKUniNyiSKZ7FLYsThUO5dBujiGMSS+OaYUrgQsw5tVp692Il94rlkIuHiS2/faaONDNpYVgmnJDRQWI3IRk3NBGd5e46NF3Sx3BCkiaGQ/puzGglQl/qU1SQI/Vy8ofkPCJ/DJ/xGJ3Cwj2YBZI5DGXvwYP4Yv8Bo3NmOISQuIkFxA2XBRfQDc+0xH4t778mak+3Kmp2+4XgZ7dvvPGGIYD60o31h89CveZLq3bt2pn6eitoePv37zd1WEemSwJuC5neuHGjuSkk0wxXG37ePAuL4ozCkOnf/va3pgISbrdu9xYWFgWH1iFLpi1KErRPRWRnZyMtLc2c32lg3fquZFqneWtnVtOuQvOSJUwzZ3veLBEhdmHJsqgQ3xi/gY5yoVOSbBJlIZnGnveDxFHCCAv5JgEXlhkREh2NZgtnFjpLbkvuLIQ7ylHjaMB8U00/JOdhkQinVYvwSNIbEZ0MGZX7EZAwPUJFozQTAh4TxpvD/ZojZLOil+jB0WYzai5uOZ2cEjS6ONcxId1hEU7Bpt4krQyHwlFoR3guZuLHyRPaU2fmBQk+9RVzlhPJGCMRp0yx5gSFjwQkj8IMKyR++HKGYZrw8hPmZ36i9o5+jrj93V4heOS3zv/4j/9oXk4dOnQot34pOCrdqVOnb+Rp6seS6SIi0wRXhOPbECrAm6NHC4vijIKSaS5A9uCDD9oFyCwsfgBoPbNk2qKkgOWVzyE+ewiW+ePHj5vzOw36vHPXsbxkWu3zE4Kdf+51q9dMu9rf1c9SJtfVNN04VQu3SB6aP145146onZBK88d8EyMpOsIzhTdzeTJOjJa+eo5QV+Zn3KvJYzNWLELHNDNeeb8YAH0749QmTlqKsJfPyd68NMY8EYIpjFs8CxcQHxwn5+ixcRMHSzOjdiD31vzd7MZcxA14oHvHhXPmHCnUUvpmcVsDxxhhEn4h0b5QyBiZ0Xkh438ZGnZeufPBesLFw370ox8Zueeee9CnT59c/keQTPOllb6gyg9aBy2ZLiIyzcaOyLusujb+FhbFFYUh0/y2RMk0kdethYVF4aD1yJJpi5ICllcloMSVK1fyHWm6E5BXV6IwI9Nt27a1/UcLi++A6tWrGyL94x//OJdUkwOOGDHCfAPNRcVIqN11Ly/U3JLpIiLTbPS4KAaJh+5ZpqTawqI4ozBkmp38S5cumWsir1sLC4vCQeuRJdMWJQ1KLlNTU81ir7caTbqdYN36Psg0R8z47OUnhFOmTMHs2bMxffp0zJkzx5zfXcI0zcEcI3Pl3CVzHDdzRObGj8YPzefMigvdzcG8WTNEZho3sxim2DG/5sxegLmzFshxDqaLv+nzp2P2vGkSjvidNc/Yz6aI21nzpouI3VzxO3u+mM3DLKPDTBP+nDkzMHOeuJOw58+SOGcuwPS5czF1/izMmkvzuRL3PCycOQeLZoi9xDFL4ps+fwamiz+GN0fsZ1PEPeNx9BdzsZ87d4aEMxszJUymc57oN2/WfMyR4yzRbybvvxGmbYbkyRzMF3dz5XzW3OmYMW82ZojfWXJNfReKvyVLl2L2wnliJ/rNdPJkJtMk8c9lGkR4pNxcvkS3fIV2dBe/R+Zc/dx+4YLQTAcHdZRM/8M//AP+6Z/+KZdU/+IXv8BPf/pTNGvWDNevXzf1Lj9onbRkuojINCMZOHBg7tZYbPRVLCyKMwpDplnxdGV7Ij/3FhYWBYfWoYKSabuat0VxhZZXJal8JlHuRFC/74NMd+zYESkpKRg8eLDZKaZ06dIoVaqU2cqnuEgplzz1FHXPI6XE3MiTcp1XSom/m6V0/GjCj/s1YTNfSou9hEMx4ZUWO3NdWqS8kVKlyol5GZQq8xRKl3HclmYY9F+qDJ6UMJ4Uf/T7lPgr9VQ5sSvrnIu7MkwL4xV3jLOM0Uns5d44fhxzui8rduVEysh1KYnrSYmT4dNOxVzHw8q9plsJi+dMW2kj8XQb3Zz0MW2lJJ/c4qRbw5S0id+yT8XLjZiVLVcO5cqWdcpSGerA/HPCzhW6ZZ7+RaE7t+Tn5vYI01BO0vp//+//NcT5Jz/5Cf7mb/7GEGr3KDWFe0q7p37nhdZJS6aLiEzzLcivfvWr3I4NG3p342hhUVxRUDLNBch+/vOf567mTXOtlBYWFt8NWs/syLRFSYL7OXInD1Sonu46Vhgy3b59e1NvSai5sC331uYIGq+Li6RevyEpKakiabhOSU1Dssj11BSR6yLJSEm9dkNS5DrletxvWh5hOPQnYYqkMlwTToqEmSxyTc5FUq6J22SkmbjTxE06klMoci5+0iSOtJSrIpfF7RWxp99UXBO5zjDj8Rm/Rvcb6bpZvsnuZkmO66mi17Tj8ZrI1TTnSLtU0dERyQuRlDTJl7SrJo9Smb64vZNflHhc8TBLqnBxQtaXihUrGsJMAv3Xf/3XuQT63//93zFkyBAkJiaiV69eps5p3csLNbdkuojI9Lx588yG3hcvOhu8s6GnInfq21MLi2+LwpBpTqFxb431fdY1C4uSDK1LlkxblCS4+1PcY/rblPvbAdat70qmuQAZ95nWawsLi4IjISHBkOe/+qu/MkcO8rBuHTt2zNj369fPXHs8HnOdH7QOWjJdRGR6+/bteO6558yiS9qQUlQZC4viisKQae65zgqocLuzsLAoPLQuWTJtUVLAfpQKwZHaw4cPm/M7Daxb2gdU5CXTap+fEByZJpnW9H6T+ztaYi4xZpKWm0Tyitsy5bBPwS2twojyaLZfErOopDsqeUqRrHDECYt+c+OIX5tVquPn3K4J3J5K7cF1uLkNlPplYGJittniTFJxHhdjJT9c6dvR+/sRJ735iMTD7am4TVYofnS2q5KEUzfdkkpX7Db5lZ/kH29JE4LrVnGqN0k0v43mYmN79+41dorOnTubGSDMf61reaHhWTJdRGSaYbmnHum1hUVxR0HJtG6NpQuQud1YWFh8N2h9smTaoqTA/cwhWOZJpm/VAb6doI7Uy13HCjPNm1tjudNHO90hJq+fO1ZIZFWMmZJoFZoxrxwySFLtEGtKnMiS2KqIn5vCN/bOkWFFRHLJMiPIJdMOCaVw32gTj5BTkLBzv2Zxx6xWvcS7CAl22Pj9WpzfQXIJtEvUnPp/LQ2mLMXz55Zk+vsl/cVdCC4InZSUhO7du2P37t3GjGD9UW7Glbwtmb41NE+KlEwr2NjpDeX5rW6QhUVxQWHIdH5bY1lYWHx3aF2yZNqipIDllX0pHiksz1zR+07sX7l1VRSGTLdp08Y8a0OhkHkG006fvcUGVLUA6rqdfztvdMUyIHkXv8o9obER/ki+gfs9c39pEim5PxAyLUSU9iZLRdSrA7rjDtI8aoCO7c3uXMjX8FtA/GmYNwWRx5AHamHxl8E6c/78eXMkWHe0HvHIesUp3p06dYLPx13C84fWN0umi4hMBwIBszgEI6cUu0bPwuIWYMNTUDL9wAMP3DQyrZ0Lt3sLC4uCQ+uQJdMWJQnat1K5U+F+3ikKQ6Y5zZtQcz53KW6zO13kx0he85ikg8KRV3MvacbzHOk7i4SiEUQ4YizmUbGPxs8jYm78x8sAR5XlhzniEE3+mBP5D4u7kEOWkUNCxTCDCMt5MOKXMINiHvcvfoyzeBhOvEGxDohhyLgzI8PUg3HH3YU5DV2OFILT0s0xriNh9JRrivuaMANuHBWPOH0qJ51O2qJh0TnihKEQnyZuTmc3Iu51AC+3XyaKsc/Ga5PHjlcDHeBTIZRgUniu5rxWdxq+mhcHccOdDgXPOc27Q4cOxk7Tlxfqx5LpIiLTa9euNW85uIIcoTdHlbGwKK4oKJnmN9NcjE+3xlL3rAu2PlhYfDdoPSsombZbY1kUV7C8qhB8JpEY3ImgjnzOuetYYcg095nOC7Uv1pAkkEBGQmEjOUIYSSaV1JE8h+U8EAoYsmiu4+SaZJqg2ygJqBBH+uF1MBQUt0DIhCn3ICzhBqScBIQ0CwX1+7LhD3gRiAThD/nkHpEkC3mMh0UuJQcjRg8h0jlCunOEVEfFTzQq+orbiETi94fMMWL6Nk5/nyOdJNPROLn1+/1mxJPnHGxTImsIsxzVjzFj/NRDwmMawzQPceQ8B5vXfYKRQ4ebwTpJLQISjk/SGoiIPgxDrqkHwycBDwVDueEacxFeU+iGaVB7Xht/cf8K6qw68pwIBoPmurhD00PoNO9vgrq3ZLqIyPTChQvNoku6AJkW0O8zDguL2wE2vgUl0/fee6/dGsvC4geA1jM7Mm1RUsDy6n6OZGRk5M58utOgerrrmCXTBHXn/SPRFRInBJMLfN0KIRI8IZ7ZQoA9AQ/4nXOUpFr6I8xfEvKwEGe/X4ilEGaKGcUWYhoRM3AlMUE0GEbI50cw4EdWthDqcNCQ0kiUhFJESLITHom06CbewuGQhBOgFkJQfRIvzx34JKywxBGQcMMR3me6FzIv8cfCDikmGCZXiVbCGiIZFX/Um6Q3LKRXEfQHjD0DY/8qJHkT8gkBF9L+XL9nMWvaDEPMvRJ3SPwTjIXnIQmL6WZ8hoxLnjh5E0JQxIz0y1FXrKYbFepF0k97PiOOHz+O06dPm7iUgKu4y2dxhjsNlkx/M1imiCIl09xn+r777rtpayxWeh4tLIozviuZJmw9sLD4fqD1zJJpi5ICllclCwQHLQ4cOGDO7zSoru46lpdMq31+QtzdZFokPsJ88cJXWLRgERaKzJuzALNmzcGsOXPhE6JJl1zVOhgTwhfmtGyOnMakPxIf0SYpJakliTZ9EiAgpDQcChqifvHMWRw/cNCM8EYCdJ9jiGdYHAalT8ORb6HU4jcoYZKIk2DKPZBYeE2inSPxRkIkoRHs3bsT69evg1fIJ/ksp3hzobBQmINnQpIj4lOYeGZGJj799FPT5vI+c0SX941TrmmvhJoE+vPPtuPSVxdNWlRiJOhyJK5fvIapb72L9OQ0c03y7pM0XJA2P93rkXQIIZa0MO3UgelXom74h8TPKetm6rjET/JMcyXHes3juXPnzPfDFSpUMHxG6xrtdVS6eJc/B+40WDL9zeA9J4qUTHO1uEmTJpkNw7WQUhFVxsKiuKIwZJr1jBVQwTDulsbYwuJ2QuuQJdMWJQUsr3x+aAefn9OdOHHCnN9pUF3ddaykkmlqe0Njnkl/WIidEbmXM6ZMxf333odOHbvg2WefQ58+/VG/UTMMGDwEXhI48ZEdcEZUnXDiocmBI85OnjlGDnLg92aas+lvv4mW9ZMQzMg21+FA1EzPDgphDgjxlLsk90FIZ3zkmdtyKUjYw0K2oyFnYaqjh/YiKak23pIwOZIbFN2z/EGE3N37+Pm+vfvw2GOPCTk96xgIyAeMoiTLcaKclZmFpLr1MHf2HHNNom1AUi3lI/XadfTv1huN6jRAj87dcfrLsyb1uyT8rn16I1P08Eu/ykw3NwRcvAq5Ni8axL8TlBB3iZffo2vdIdgf47WWQyX8fJZwOyn29WjHtKobdV/c4a5Dlkx/M/R+FymZdoMKsHAq6bCwKM4oKJnOb2usvG4tLCwKB61HlkxblBTkfYawk8+tb+5EUEclIIqSOs2b2t7QmGfSOSeR5rnk0eS33kaDevWNscIfiiJBSOagYcPM98FC+8x3zl9duojzF84h+dpV453fS/t9AQSEICcnp5g1WrKy0iUsZ0r2nPfeRoemTZB68QouX7qMS+evGPOwxBUk+ZRI/T6WITkGsoQwnMVXF8/jSvIVYxfwehALSz8+HMC2Tzdg9erl8PocYh8UAktqSrnw1SV8deGSmeZNfLF7D6pUqSLk97SZqWpWlBaCS5jFweLnHD1Oql0X7y9eImYhUSPHrFCflZkJn8eHjKspmD9tNr48ehIfLHwfx+TIUeips+bgCSG8J86ehz8cQYij4lEhu3JkvnDE+6vzF3DpougkPIRT2zkSzWdASmqK6c/xu3LamRcDwYAprzTf+8UXePXVV7Fnzx5T1vx+vmiI5rq5G+CuQ5ZMfzNuK5lm5HnFwqI4ozBk+pFHHvkambawsPju0LpkybRFSQLLbHHoV6me7jpW4sl07o9z36JCUnk9feJ41KxeA1cys83ArCZv6aLZeLz0Ezh+8Sv4Al68PG4satSoYfohCfUT8cmWT4y7ae9MQ5Mm7TBo5AuoXbs2KpR/Eps2rzN2i999FzUrV8Ozg4eLv7qo8NTT+HjZCnA2tkfINMemwyEv/J4UvPvWq6iVUN2E36BBElas+Nio6/dl47VXx6N2nVpo2rQxKlSujA1btpnwAwE/3np7MipUqoH6SQ3QrnUbpKSk4vTJEyhftgyGDhvh6FSxEt54/XUzBZvvEbgiOGl40JuBFg3qYdnChSa8pe9/iAcefBAzpk0109RXLfkASTUS0KB+AzRp0Bj79h7GpSvXUDUhAf/+nz9Fh279cDk5xZS1aCxiiLrH48VLL7yMp58uhwaN66HfgN5o1bYlLgix3rBuM7q274z0tGRTjs59eRI1a9THp5/uMvdj1uxpSKhTG61atkSVypWwdPFCc8eMiPtwmISai6LFDfXgui4OcNchS6a/GdrOFimZ5gf7nHrEVfsYLgkIj99nHBYWtwOFIdNsdHSfaZrfyZ0fC4viBK1nBSXTdjVvi+IMPkNU3Isi3WnQ551bt5JLpqmviDz+ubUUv1E2RkLMgGy8P2EEEmsn4EiWB2bNbdNNiOD4F2vwaOmHsGr/Prw34210bNUEQelbE5OXTEdimwbISr+GGa++h//8z4ew4cApYzd2VA/Ua17frD22asps/Nt//AIzP9li7JbPm4falariXEo6OB6dzanXCGPr+g9RpdQTuHTZ+Sxt++ZPMG/+AjnLwaTxz6NLtx7wh53FwmbMXYi6DZqZKeBT35mExMREXL56XYhsBH16dEX37n1x6cxZPPaHB/Di+InGz54DB1G2bFns2bXHXHNrLmmREfNfQcuEyti0/AOsWrECv3+0FBatWmPc7N+2GaV//1vs/XyruV65Zg1q1WqAk6dPYeXG9ahaqw3SssLON+VhHyJRZ1R89uz5ePyJJ3Dx0jlEcoLo2LMV/u1n/w9Xrqdi9Yfr0aRGI6QmnxOXXpw+vA9/eiQRWz49gdXvz0bLlkm4ku58m73pkzVoWCcRx89eRlDuSZCLreX4hLTLPeA9EuH34mFzY53r4gJ3HbJk+puh/fYiJdMrpDK0bNkSV69eNdcM207ztrgbUFAyzW+mubK9fjOtHYu87i0sLAoOrUN2ZNqipMD9zCHS0tJw9uxZY36ngTpaMk1IegzZIvOi7hG5ipNpQ/4ysfTlQaiXVAeHs31C7xw/QADnD32CqolPY8Gnn+LwsX04fGA3Ll+8hO69u6N63Vp4slZ5XP7qFKZPeA9t246GX3xxrHnj+hmo16Ie0j0BLH3jPSQmNcUJn0M0Lxw5hHKPPY5P9x007kmmo1EPju37DDWfLou2bVrLfTqGnPjiaKGgDzs2r8Ohw0dw6Phx9OzVDZWrVsOTpSsg+dpFtG/dGNOnTXW4pISVnnINW7dtx+Ev9iKh4tM4ceY8U4vU7GxDphcvWeqEGwsjEk5D1HcR3ZrVQ8/WzXH/L3+JmUs/NvbEkN5d0aFRPXiyU5GVnY6L0sbXrdcUk955Hes/3Yiq1VsjSzKMC7Vx72yuTO6XdPbq2Q9vvPlmPJQcbNu9AVUSK5kR7HUff4Jm1ZsgzZDpTJw9th9PPNEQ6z45hlMHP8PeL7bg9JXLeG7kSLRs2gCPPPB77DtyykyL58rlnlCG6C6RmgSbf0kfy6xzXVzgrkOWTH8zbguZXrx4MX7729/mkum8jamFRXFFYcj0z372s9zVvNU9j3di58fCojhB65kl0xYlBe5nDnHlyhWzmvedWI6p018i03lfMLuFuNvJdMws7OXBopeGCEmsjZNeHzw0j3C0OIrdnyzEI48/gK3SV99/aC9qVa2E6tWr4+WJL2HGkrmo0qwOvjx5AFMmvC1keji4xFgEYaxZNR0JjRNxLS0T77/5Lpq17ohzYcYLnN6/F1VKl8XnB48hUwy8EW5j5UFOxIeDOz9HmbKlULVqVfzpwQcxc9ZsKXMRbFm3ErVr10O5ChUwctRQzJ6/CFVq1BFifxa1qlfCjOnTJV1CkP1Mj0M8ju4/gEqlnsBXV68ZMp2cnok/P/IY5s6bb+y9IY/0qTKFtKchoXxp/Pb++/DTn/4Ug59/WQi+Q+Sb162FRx/8A5JqJ6JOvUQk1q2LatWq44OPl2H9lo2omdAO6RksZzkISF5GomF4PX60aNEGc+fOM2FEYyGc+eoomrZpjJNnz2PFB+vQIrGpkH7uOOTF6SN78cSTSfhsx3kcO7BD/CahiuRxx169sXzZEtSqXAEHj59GQO5dSPqAoZifk9MlmZJg3isJxZBpnjhJLxZw1yFLpr8Zt4VMz5w5E/fcc89Nex9SEVXGwqK4ojBk+he/+IUZOSDUva0PFhbfHVrPLJm2KCnQ5wefRQR3TXFvvXgnQXV117ESTaYp8p87zVsQ8nMc2o/FE0ajeo2qOOHxxm2c9L3z8kDUa1ATx+U+129YD5PGv+SsiC34+LN1KN8wEVevnMa7E99Ep04jzEgz41q9cgaeqlwaV1PS8eG7U9CkeVuc8TnTw4/u3onyjz+Ozw8cNe7TvX4E/FnSQXFW7Ca4N/Nbr76Ke35xr/CF7WiYWBNvvDkZGdnOwmO79h5EhYrVcfHCGTSqn4jp06YYc8aecv0qNm7ahn279qDq02Vw6Liz2vzV62koW/ppLFq02Fz7wowviFDmJbSpn4AVSxfi+IkTePCxp/B+fJp3ny4dMH7UCAmW+1n7keX1YNu2z4Qcn8b7y5eheq3m4LbRXMXb+Y45ilAwjK6du+OFF140YYSjAXy+ZzPKVy2Ls5cuY/XH69GsdpM4mfbhyxMH8WSZuti89Sh6dmqLgQP6xqe+AxfOnEKtShWxa99hvgeBn59VmO3JhEyzDMo/7yzJtN7i4gJ3HbJk+puh/fUiJdNHjhzB1KlTkZmZaRTg9zx5G1QLi+KIwnwzzVkauud6XncWFhaFh9YlS6YtShJYZnVmE9emYZm+E0E9/xKZpt2thLhbyHQu05J/uXsiDmU2w5kRPxa+9iKqVa+Kw1evm9FP9jW2bViDpKpP4ONVHyBTrmvUrIa+PbqZtKdlpiKpbRP8zx9+jUuXT+OtVyahZct+cCggsPyjmShTpSyupqXj/alT0LBxM5zJcoj62WNH8MRDD2LjZ7uM+6CoR4K/b8dneFGI65WrV0StGLat34Dy5Svi0JFDqF+7FgY+N9SkJCs7TXSpjd//4WFkZ6VhwbxZqF07AWfOXjB6v/jiGHTo0BW7tn+OKuXL4HB867bU9Ew8IUR52tQZ5jocDSIW8SKcfR2NE6thyTxna6zhY19E9YREZGSk4dDe3ahSrgy2frrJpHv9hg14ukJFHPvyCD7b9TkqV07C1SvpJl6vEG2mg/ho2XI89cQT2H9gL8KRILr2aI//+Nn/h6upqdi75zDKP1YWu3ZsEX9+TBg/Bn//D/+Nz3YeR5/uHdCxQyv45b74I1F069IZ9/7Xf+HE6XPwR3MQlgwIhIRMR/jtOOPiqwuKc2+NFBO465Al09+M20KmFWzsKbrP9A8Rh4VFUaIwZPrhhx/+2gJkbrcWFhaFg9YjS6YtSgpYXlX0+k4Fdfs+yHSbNm1uMiPc53mR1y6vXyI//+ouPzuF2rndfZMfx5z2QrxInOWSZDqWQzImF+ykRyNYt2A2HnzwD6jUoCFq162HRCGTNStVwPYNy8VvyNA2kpiG9eqZlbFbtG6CN2e+i8oN62Hn7q1YOGcunn3mefgYjfxt2rwcjds0Q2pWBtYsXoCevfvgildIoET55ZHDSKpZHQeOHAe1CAhp5NZQ16X9HDN8KKpUq2ziqFG+Ej762Pl++djBA9L3qY9EMeeq2G+8+TaS6jfGkaOHzHZR06dPR4WKVYy/Zwf2F0KejDOnTqJpo/o4f/mSyYe01EzUqlFH2uuPmHIhuX7kREX82ejWviVWrfjIxHUtJRWNGjfCpNdeMdcrP1qGyuXLo3ZiIuolJWHHzu3iP4ZrqdfRokVHNG3aDufOXTRcgwugUSLhCObPm4dqTEvdBLRs0xS1k2pil5Br7m899e33ULlSObNw2oQJLyCpSTvs3HscVy6eQbNmDVEzIQGNWrTGO5LO5kn1sXHTZrP6uV/uVyQm/T7eN0Pc5VqOUd5bY8SUyTFPeVAypsivzOS9JtRdfnYKt537PG+cCnXjDrdr166WTH8DNC9vC5lmweaoNN+c8pxExMKiOKMwZPqhhx7KJdNaIXm8VUNnYWHx7aD1rKBk2q7mbVFcoeWVzyKeszxnZGTckeWYOvE559atMGSaC9qyL6lp1qMb7GfOE/I0ZcoUh1SJvT6f6V7P9dmrfVI15zXNeU1zdcdrdaNhusNQM54Tbn88MqxIhAt8USTsEPMjalaeNt9Oc5GvcBAxnwepQg7PXk/G5eRkXL1yFZlp1yVErtQeREAIIJGdkWX2l76ecsmMMqeFQ/AHsyXcAIL+CEJC5oIRnxDVTGQFvfCHpf/tTRU3AWRJEEGOrgaDCHqzEAhFERCzcDwNBpEQkiXeq5evIDM5zQy0BqPOCt4+TwBXRLdracnOtT8If8hZ8oy4dvU6rl+/Bo+PX25LUJInAZ9XyKboFJY88kt8XklLUHiB5AenXyMSlAj8CAmh9vq9CMUkn+WPq4R7sjJMvhFZmZJuIejpaSnmOoIg5M7A6/NLvmUgFHT2mGZ+xmIOqSa4XzU/hfjiix1o0iwJ+48eNOY54RhSU64K6T+HcCwInyTBE6If7rntwcWr13DxeqqQY7mHEofP75MYY/AKkY5SR4mLC7SJrcmfIO8hp5pLOkm0mZ9a3njkXtY003JhyoKUDULLjJZJCv1omaS4yyRFwyH0nKJ+6J91hlA7dadxUGhGkEx36tTJnNNvflBzS6aLiExzeje/4cnOdioUby5Fb6yFRXEFG5+CfjP9u9/9zlRAN/K6t7CwKDi0DtmRaYuSBi23XOj12LFjuZ29OwnUkXq561hByXTPnj3Rtm1bs+Wqm5C4sXTpUiQkJOCXv/wl3nrrLWOm5IEkW7dppRn7oho+n+d6pGge8qhmaq7nBMNVc9VFwyfULcXRl+dCtoSIhYMSFq+FwPG724iQ1xwhYPA73zMztNzUcZRViHRESGeQBNQnfWiTLdQ/iGwhy1lC4DjSTXrJbZujEbkSMikpNXQzIH5zouyLy7noGBL/MZMO6iZUXSQgOoS54BcJu1kcLa6BREfCGhY9YlzKWiA9Hvo0hNK5jgl5j2/N5hgJeRYXzJv4ImJ+STuvxTGjNX59QvijkoackJDpALd384luEpbYRcMBRIWkh4MBCV2uJWwGrwhGskQnn+Sncy8JM+gvp06+M195z+PpEBw8uB916tXE3sMOAQxLnKqQP+qnWpJXkjYh8QwsrionDTBBojMJd8gh02KZQ+IsRN8X8UpOS/pZRoJyvxiGpJt6UVjeWP6ccuAIyzHLM8uLli0tRzxXczcxpqg7Nee1uzy7zQmaqX/6U/8qtFOQSLdr1y7XfX5Qc0umi4hML1u2DHXr1jVvSwkqwSkkFhbFHWyMCkqm77vvvtwFyAh3A2ZhYVF4aD2zZNqipIDPD33uECTThw8fNud3Gqhj3s55QRcgI5lmJ599SD5/lSjwesmSJahQoQIeeeQRU58ZNsGBGyXePCeZ0Xzj0Z2HbjO6o3uaUZR8qL36I2mhOyUvJEbqjmaqI89pnkOSGBTyRGYmj/8YyZqQs5iQSRK3oJDkmLDaiJBIjlgHhYz5fNRZzITIhsScZM3vFeLEkWW5jglJ9nNBrpDY50icDI+jpRGJj6Rd4hUKB2/UK3Q0W9KWCb/E4acKEmeOkE2Sap4HhXyGzIgq0+YXN6KD5AU/pvb4PYYMM2wuShYMS7pJ1UOSNq4CLnnoFdLLqc8k0yTKQSGdJM+8hX4JJxgVcit6RnySnkAM2V4S55Ck149YUNIUjEk82fAL+eV3yTEh59FANkKSrxyX5ksAhhcLk6jKfc3JlviExEoaSHkDQoyDAdrxfvJlhegT8Zs852JkYUl3ZmYGDh7Zh1RPGgIMQ+5NMOCVPPSIfmHJp5CzhzbzPMhFxoSoSrwBn6Q2wPsp5QhCgnnveCnJDfi9CES8kn8cWZcwJR6fl/fGKdO8/zyyrLIcsExqGXaTaS07Tllx6oye0w/LGv2ouYr7Wsskhf4YvpZP+uU5ofFrPHRP9OnTx7y0ovmtoHaWTBcRmWYD96tf/Sp3aitvHG82jxYWxRkswwUl0/fee+9Nq63Sj4WFxXeH1jNLpi1KErRPRXAK6/nz5835nQbWLXZC3XWsoGRav5lWMN38fKpatWp49NFHMXjwYJyIL3BFMDwK84hEhOEo2aVo3unMSV7TPQmPkh3a00yPGg7FTUpIRNxh8loJFKF+QqGghEFiR4JvrAz5DQlppZ9YxCGCIU6ZFoIdElIXlHBIVIUaGTItDoRMCjn1OSOvYa6+LaTWE4ohIGGFoz5xIsRI/PkyM833vWIiBNULXyAZQX+GEFIhgBIGR45jHLkVVsiVqTndOmzIspAsoa+BmF/yTEh4UAi5EMWAEM1QUOIVkhkVci8pNPkiykp4IfgkfQGRHOalmAb4AkCuOdodIbmNBQzZJDOOCHEOMJ/M9HUJySs6y39QiHSGkFxOO4/4JG0hIdMBIfYSD6dgh8J8AQB4MtMlBo8QXa/wWckncRcI8EWFSbrE5cQXzfFL3EJCzX25wT9EM3gDHoeU88UA9Ze89Umaue+1IcIc7Zf8C0qcAb+kwSe6RoV0ww+vWAR5OwJSNoT0CwWHPyJ5JflHMk3yTr9aBrUM8bnDc5YlXuuLG54roWWZZHmhOy1PLJcaltqpH02TlkkNl25opkeNR8FwaK5uib59+5qXVhp+fqA/wpLpIiLTs2bNMmGzkSeoBAuEhUVxBxuvgpLp+++/H+fOnTPXBOvDrRorCwuLbw+tZ5ZM324wD0XiB+JGrroMC43v6v8vQcN3jj90bN8VfO5oJ5idYu1M32lg3eKzzl3HCjPNW1fzXrlyJVq1amXq+ujRo3H69GljnheaP6zreUFioUTCDT7bdbRQSYqCZnSf1w+hpIYkSe+JG46/r/d/OQ07HBWi68tjl8NRVSGJEmZAGKJQUAdki4KQkNFYTOx9meLWMRP6I2WWaxP5kOMXgu5xhylhRNOEhKeaUWt/nqLCxc0CQSGkQgK5V7MDp3+S4wuL3wC8nJItBDMvuKc0R6Xd9YXnfAFAkuoPCHF0jB1I3FFRjdPGfTFusRX3KQeqlSn3PCDnIZ8Q5oAzs5V3gqkJMt0hyTWTlze28IrEfPD4PLlk2g2hnvBLukjEOdXeDb64iHIEWuyzhVhLSY3bCOSUZNnPNw+EUVPCkJRJDsv9FP98CUB2rxA3fFEQCZMwO6PDbiihZXnIW19vVSbpnmWYx1uXLWfWhRsMS8tk3rJM0J5l3Q2OTHOqN3W5FTRNlkwXEZk+efKkafS0YeLN1jd7FhbFGWyYCkqm826NxTpBcbu3sLAoOLQOWTIdT0c8KebAHzEzB14b3LjSZHMKam7n2fx+HTd88ci2Lt55E8Mc6YCbqEWkZTNdTmMvwqPaUT9+w+iYiYGGykMeOB1bdSO/dJYbHsNx5GaInflTuPznnmm4ccQtGBSJhBMkDUTPXGJBe9rd8OvEE88DIu70hg/H7Y3r/EH7m9183SQvqIuSRT6PlMzl19m+3aCueZ91BSXT/fr1Q5kyZdCgQQP85Cc/wY9+9CNDqBXXr19H//790ahRI7Ro0cJ8P63giH3nzp3RtGlTNG/eHBs2bDB5xbAPHTpkFjZr3LgxOnTogJ07dxpdia1btxq7Jk2aoFu3boY00B9lzZo1aNiwIZKSkgwBca+HMn/+fBMedRk+fLh57jv3KYx33n5T0lBfpBEmvPoq0jOuIyZkjMTm5XGTUDepIRo1rI/p770pesj9FV1SMjPRe/AQ1KlXB60kzCULPxA/zLMIUq5eRO8ePdG4qaShWSOsWLVMCKUQJ9HxzPHTaNmmIxo0l3S3b4yNW1eKn7CU6Rh27D6ANu3aS9oaoEvH9tixY4voSPIVxbatn6Fps4ZIaFAL3bt3xdnjX0ppZEmP4cNly9GovujYpDGeHTwIX57+UohjGGFJ29SZM1G/YQOxr48XXn4JV9NSJD76Al5/+23Ua1AXTRo0xNsT3zYklStfZwUzMGzYIDSsXR/NGjTH9Lnz4JG4SOUy069hUJ+uaC5xJTVvidlLPxAdRRORixfOolPXpmjSrB5atmqG1Ws/kjxheQEOHjqO9h07oWGjemjbvgW2bN1k6jX9bv98O5o2b4T6TZLQuXsnHD58UKqpU8ZWrluDuo3rSF7WR/9+/XHiyHEzQs2R9UULFqNpUiM0bFATQ8YMwtlrl9m0ST4D06e+izqNaiGpUV1MePkVs7gap5mT87z00kvmc1eW23fffdeUHZY7jj4PGTLElC2WlTlz5hg7lj2WZc7EoDnLMj+Z1brAesNFwli2uOo2ORbLFsvPwYMHzQsnlkmOLu/Zs8eki/4+/fRTNGvWzPjr1asXDhw4YOKiv+XLlxv9OL2bs4k5Ok3zW4HhEZZMFxGZVuiNvhMbeQuLwoCNXkHIdN7VvGmufiwsLL4btB4VlEzfjat5BwLSsQ2SBALBEEeZOC0zCD87d2IWjnB0gx1q5zu6IKeHBjiNMBuhiB9h6aCHJC8i4iYq7Rw785wiyWmcITnnej2BSA6C0in3hbIQCQURY3zcpFbCZ1cjKF3hALziVxxL/By5MZ1/px8iXWWJW8g2FyaKxaTjyW8j+R2kxGm+4xR3UfHD0TD2VqPcEkiIrSTBpAdy7RBqXktbym82Q6Kjz4+IxOkL+cwqwSYukgfRiBSbJiE5i+RwBWV+p0oHIlRO0hYNc0RJOvISHrfrAb/5NPlFncTMJ+FmZcq5pI/TV0UPLu9k+uLSUTfkm8GJmESYuCUfTWqpL9v8eCYYyPOC+sgve0f0S5HAxB073WJ6wzAOjcEhqPoc4WrFly45Ww/daaBO1NWtW0HJ9DPPPIPHHnsMTz75JH784x/jn/7pnwz5VaSnpwspG2YIBskGX2ATzB9+Tz5w4EBDNDjCvWnTJmNH8DtzEhf6I8nYvXt3bpzbtm0zYXXs2NGQeZIVgvYMg3449Zyk6MqVK8aO4CeOHN0jOXnttddyX6IT7733HtqJOe0mT56MNK5KLdGRxL711mS0btMOHSTc2bNm5BKatIx0IafjhNi3QBcJ9/2lDrliXUhLvY4Rw0agVau2Qny7YdVqEmbjDadPnpI09UV7yacevbrh023OHs3E7t170V1IeMcO7dFH0r1z1+fGH+137NgpaW6P1m1b4dkBz+LCuRufD3z88cdmL2Km++Xx43DGtQ7MrLlz0FZIXNs2bfH6G6/j2nVntW+GO236DLRp20byrB2mvDsFQb8z8pntzcKrr05A6xat0Kl9Z8ybP1/qvbRZUl6yMtPx0tjnJW0t0aV7DyxZ9mGu/l9duID+z/aWMtDWvOhYv35trt2hQ0fQu3cfsWsn6e8hRHKzsaPs338AnTt3Qpt2rdGnXx8phyeNH2LdJ+vRpVtn0bM1xo4di5OuzwaWLn4fHdq1l/vWEuMmvIwLly85FhLmgvnz0FrCa9u+Ld58/Q14Pc5MCM7Efeedd8xLH5YVbhum07s9Hg8mTpxoXtawjC1YsCBX/+TkZAwaNMj4YV6T7KodByn50ohln+WWL3XUjgsQMi9IpGnHF0UKvhjSTyVGjhx50/oKq1atMnH17t3bEES6U9Ko+ZZXCJLpBx988CbSfrdD8+W2kWkF356WhAy3uLtRGDLNRoedHUXezoWFhUXhoPWopI9Mc2QmbL4pFHJGYihtTJTPXCGCAWF8fiGvwSBHn/jtpsd04Pl4DnBqKqeMRoPIFHOupsuOOhcfCvH7SQnXF/RLGDFwweEsCcObw+1rfGaKZ8wvhlweWA582vv4TSGy42RaCAFJqVhwCia5ZEwoLUlvmCsTBzINmaa5X0gwp4WSK0bEXyAqYYtbrvbLhY1EXeGr/BaR3w+S6Es6RTe2vyGfkH2zRY8XnnC22VeX32k6ZJpTUJVMS0edkzRJptkvosJkw+I2HGD+iG2A2/Z4xFzilQSbKZT8ttIv4Ug+cMEkdviDEsZNZJo6STwMUsk0qTK/ICWZ5q+zsrCWNWMiYeSIG0cd6kmlHFPRmJfq3IAXvD83hGCZZ2f6TizH1Cnv866gZFoJLwkmR51r1qxpVu3u3r17LslV0A/LBOPkvePzWokpzUx5kXqh02o1D3XUkEQnvwEg9Uc71UtBMwrJEo+EumG4uviUG7p1Et2rPuqHOvGafulG/TrmDiHT6bsan0kbXwTFw+NosfrjkS+emDbaaZoVfGFk/Ihf9aMIx+NgfHRD5E0bj27QnuGofvSnfnhkWLRXcZszXzRtoXjaxNK407Box/aLoDn9sk2nv7xpc/Is/7S59buRNnMwbvNLG6tgTOyMfnF/7hks35i2+JFxUhRuPfScoO4UzvBlWaZ/ioLn9EP3efVk3Bom43SDYTJttHfnF+sZiTr93AoaP0e3H3jgAfMCqqRA86pIyTTfBnL4nzeMYNhfK5QWFsUQLMcFnebNrbHyTvN2u7WwsCgctB6VdDJN8kjyy84eV9mV1ohPf2OXf+rERbwfxYWODEEUCYsfbtsTElJJ+L3Od3V0mi2kNSj2vhwP/DF+xyedxbCEzr6XnHKUlWTaB49cUhfRQ4gznbFfSXU40mzItJCCaFTCkLh8HuornU9xGA6wfZSOL0etc0QfIfl8UeD45yi3kOn4aDVJNxcRCpMAk+waWiqEX0h+WPLDSSA7pgyd+kkcQoANWWWm0JpKSVjcHzYohJr5SDIdEmJOMs1prCTT4omNvxCWAPzSkfczDQzLhMO236TY0UDidQgx4yNpdn7do9O8P8wvuqIfM7gtf8zIb0OmWWa13HJq6PHjx+/IPhZ1zPu8y0um3enJKwQ7+RzFU7BfyZfUZcuWNVNTOXLNMN1gmCQFSmhIKJg/DJNmakd37viVmKg53ag7mmsYvFaCpOFRNCwFw6O+dKNu6YZwXmg5Qmh8jINha1hqr9C41JznjMetC4/0r2FQ8qaNou40beo+v7TxnGaKb0obzxkejwTtNY6iSBvd6LXGq+41bbx2x8drBd0zbTxq3GrPc8bHI0F7jeOb0kY/edNGoXvVRePRMAhNm9tOzzVenhMaP0XDV7cKumfaNF81P1jP+EmE2z3N3aLYtWuXWUGfpJpw292t0DwpUjLNqS5caZFTFhS8QbyJFhbFGSzDBSXTv/71r29abTWvWwsLi8JB61FJJ9NMQyAoRFUIIFcM9gV8yM7KwsH9+7Fl6xZ53n+GQwf2Y/vn2/D5Z59i5+fbkZaajjPnL+FqShqpmyHS/JaRYZkVbQ0hhdnW7/jxY4bKkQBmRdLNyGyQhDgoPulZ+oc8+CFkU8g0iasxJIGUAwk1B3AkBjNqHfAL4Y54kJmRCq8nCK8vC8dOHMHlK8lmdWEuiBSKcIEmfttHXSQo0U+6iCIk2nIkMQ97kJ2ZIR3CEC5ePidhHDPT1xmfUV5c82DSJBoKPTdpIHl1FJI+CaeiR6RDHgpL2RC9olwIyOOkn5Dr5K/iU3kl4GBY8prEn2SabiSciCjIiekhExn7OYxF9JYj00zNTTmL5y9Fcsa4UjLtuKHJN5NpHtmx47OHYHnmYq8m/DsMJt9FV7duhSHT7OTTHTv+iszMTDP1uEqVKvjDH/5gpnHrfttKMJQw6DVF+6LMN9qpuZIP2vGobunGfVSCouFo2LTnCKLaURTUm7poXITqRXdqx2s1p340J9QfRXXTtNE/r/Vc/eb1Qx1od6u0qTteq9A9zWmv/tVOQXP1R7cE3avbvGmjGfWjH3Wrcahu6kfDVH8UjrDTTIVuqQPt6F/duo90p24o1OXbpI3hqS4Ugu7Vf9608bwgaaO4z5k2NaMwXC1T1JHh8FyP6o5h06360XON162ngmY6e4Pu+HmC+/OJbwJnhPB5u3fvXnPNsO92aBqLlEzzg3ruraureesN5M23sCjOYFkuKJnm1ljufabzc29hYVFwaB0q8dO8hdCFhAxGRLK4LU4sjCuXLmHwwIFo3qIpWjRqgN/fdy8qVa6EFs1boGvH9ti3Zy8aN2+L9+YsyeVskRC3B5LOlwkrgNUrVuLpsmVQ+qknMH/ePGRlZwqRzBbiKJ0/emL/Ik662X0MyB/Xu73xpBcLsSZvJS2Qrh8iHG2OBHB433aMGTkC15PThRglY/qsKfhk8zbz/Tb3iPWxoycezWCuBMj7RAobkzgoxOa1H+CVcWPN/rCr167Enx/7MzZ88qmxuwkSv+SQ/IWNnk63SMDRcyGwnCLL0XhO4w6JblHJvy9PHsOUyW+jZ+eO+N2v/hfL5i00072Zbk6dZ0jcWkgCkLOopNpNphXSoTUi5oR5KyCdYGMjp/FjXjJNMm4s494cqGs5Y17E+1M8ujvJdxKop3bqFQWd5k2SzAWUGA7TqqOhCl6TVNerV8+8uB43bpyZGqthaPz0Q+E1hWRCzWivpIJHmpGEUNxmPKo7+nefazgUgkeNi+dqz6OSG3WnQnOK252a81rDc4el19RF7dW9ulM7HmnGdCk5UzMeKRpf3rh5zjDcOvOaR9pr3Aw7rzvCHSbd5w1f/bvjUlH9Kepe3alfTQftmTY1U3MNg8e8cWt8BM/12h0+hWnjNaH2BMPRdFM0fI1fzd1xud26z+lG3enRnQZ32tRM4+Axb9w8pxB6Trc8MiyGQbCe8TvttLQ0MxDKZ2le4do/PHLdgMcffxxffPGF8ctw7nYwz4giJdOLFy/Gww8/bKZ7E7xZevMsLIoz2DgVlEz//Oc/z93Cw+3W7d7CwqLg0DpU0sk0wcXCSIKjEXamSNriFoQ/HU1qVcMO1zduYb8Xtes3w+Q5HzATpDMoHSIhuqFwBJ6sbGGGPnz80XKsWLECWzatx9w5M5CRlYxwNBvsOpG+cYGzHHFH8Jp0VQIx12G2jcbUUcXxww6ic7b6w/mol1hT7hn3jXVGcuiT++XmxJztdvzc2zbkdGIIEtgovEIpGWcU7702Ci2a10dGwNFh+/bP8Nm2naadzoUEGuMIuvhlSNxdmHvXOpAOKP/Md+JC0sI+hITQUs9DB77Ay2OHY2CfXvj9/z6AGZOnIsaF08QXF3SLChHnqDUhPsFdf51UOOC0demux6/ioB+TMnEr9k5OOSacuv6XyLR0g3PLqz5DtJN3J0L1c9exwnwzzcWTlDjkdyR4ZDswc+ZMc61h0A11cLvXsHnuFtqTjCip0aOGQyHc57SjOzeZ0vB5ruTGbUa/GibDV3fq3x0Pr9WN+9tZt3+Knms8ec15ZByaJj1qOBT159aZ50rgeM0joXbqjqCdmmmcasYjRePhkW5UB6ZN3fBa7dWPuiNopuHrkXFQeK1HDYdCqFsNh+6UUNKM4RI8px2P6pZ2aqbhqBmvVU+CR5ppuDq6TDe8Vnv1o+4ImqlfFZYtjYdHtx48J3jOsDQcmrvJMsMlNH63O+LZZ581fdWnn34aTzzxhFnwL6/Q/KmnnjLfS3PAVFfzZnh3OzT/ipRM8+0FI9J5+QQzW5WxsCiuYDkuzAJkrICK77OuWViUZGhdKiiZvvtW82YaRCQt/LbYWRGa17QLwnvlFJKqlMOnO3cZSkba589MRsOmLdFpwPNo2akXEhMS8MLwoUjPyBYymwN/WjImvToJTbmtSsMGmDNzioQZRIb3Cro9OxDj3piK1i1boWb1ahg1Yih80uGTFhHX0y7j2cHDkVi7ttmKZsywEXjhxQlmLDlgvhMN4/JXp9G4dmX813/+Bzp36YkTR/Zg5OhB+GTHTqRnXUefXl0xddZ8tO/YDdWqVsPzQ142K5SHSHxzuD9tCEcO7kSVxx/AL37xUwx4fgS8gWzRcSamvzvT9DWWLFqC53oPxoBeg1A7sTb6dG6HTbs+R/ehw5AgunXq2h7JqReFnkqHloubRYSohDwSTwhvTJ2COrUT0bV9Szw/9Fm0atwagQwPPtu8BX36DYNHCD7z8dgXu9GiaROs3roVfUcMx77jh5GRno6uXbujtsRRs1oVfLBsKbK8PvTr9ww2rF1pvhd/cfxEkz81EmpiygzRV+5ViCubR0ViJC6Sl/FbegOMUbTNcQiH9qc4A/DcuXPm/E4DyyD1dNexwpJpwt2H1Dxwu80LtznP3f7dUHd57fX5nhcatxt0p27z83OrcNSfOzx1mzeO/NwQef278U1hucNQ5BcWzdTtrfzkhdtPfnrnjT+vG7XjMa8+CndYbuQNW5FfWDRTt7fykxduP+643Ec9J/K6cZ/n1UehbvLa8zo/P7cKyx1XfmCfllyN3z9zK65FixaZFcYXLlxoBka5Cv28efPMNRcApBmF28xxvQYl63c7NG+LlEwrlEAzsykl4e2Fxd2NwpBpdvJ1ayzih6hrFhYlEVqX7Mi0tD8cM2VadF40wfnVOX74rxxHo+pPY+1nnzv8LMeHrOvnULtOPVRt1AkHTn6Fa1evokGNKkLu5shzOwcDe3dH6zYdcPVqMk4cPYKEGpXxxqQXkZ55Gb965CnUbNjBELnDe7fj6TJPYOnyVWa0tlWbxmjbviuS5V5s3LwR//0v/4qWLdvBKxGHRb9gyI9oxI81S2ehdrVqOHP2Eq4L2W/QOAGL1n+CTE8KfvZf/w/tO/c22z7t2LYLTzxQFh8tXysUOopANEOSGUA47MeUFwahSZP6OHntqpjF8Ez3nhgxYLhJ+ujho3Dff/wvPt+wE9eSr6FVUgLu+e1vsOnwcZwT3Zq3boznhvVFWMIkkYUQWckwvPL6m6iYWBcH9+3GtYvH0CSpGh596M/ISk7Dh0LQK1WpDx8XXhPs+GQdHvztb7Ht4AHMWLEc+08dRYvGDdC5UzdTFvft/gwVK5bHzLkLsGjxUqxdsQzjXxqL1p264orY796zC4+XLoO50nkl+O14JBqQ2xYyLzRuhnOP+cxhv0rLLbdmYkf4TizH1MmtK1EYMs2trfJC7S0sLAoP1qPCcrO8bdHdjNtKpnXai07fsI2fRXFHYch03n2mbV2wsPh+oPXIkmlpf24i0zFexcm0F8HLR4RMl8XKz3Y6U5FzPAikn0Hjxo0wYeYHNDHo17EZBg4biTMXL6JW1fLYumOnE45g4bxpqFLpKSGB51A+sTlWbTtuzHNCGejUoSXemzkHZy+cwlNPPoJjJ2+sEdGzfQf06NkbAVElEI3BH+BerGF8tmoxmtdPQrYnjJSvjqFR00TMWbNGCPRlVHm6FNZt/swJQBToIIT/9dffM5chs/WWn40vFr42Br16dsV1ORdNMKz/s3hhyGjjbsyoUejf+TkaGzzfrxcaii4XhAgzTa+9PR49+3VEUK5CXIgsLATd50Hdpi3xypRZjid48emGD5Ao5PrKhYv4WMpZQu0WyI5/Inj088/wq1/cg9qt2mDBpg3Yvn8PalWugL17nVVuiWnTpuC/f/YLvPDyeBzcvR3VhVx/vv/GPrAbt3yKtes/MaPjYdGBZNpM9abecd0d8IJk2hmk0HLLFxokqNrZu5OQ3/MuL5lW+/yEsGTawqLooHWPfVtyN4L9Xl7z6K6bJQnavhYpmeY2QPxAXT9K15tgYVHcURgyzZVGdZ9pmuftXFhYWBQOWo8smSYkHUyKSY+QaV7yPMcnZPqgkOky+HD7LqGHhAeh1KOoW68W3li4wphwYay+7Rqhc69+2CT9g4b1quH4hbPIlj5EOBzEnp1bUKfW0zhx4iCqN+qGDzYckTik0+VPQZ+eHfDa5ClYs24FypX6M1LSA/DGB8ffGT8Obdt1QEbI2fOaI9Ncqmzn2sVoUb8url1Phyf5SzRtXhvzPtkg5PASEoXI79x32IQf8frRoUE7jBkz0bwI8EfTJV1CNmNRvP/aC+jQvhVO+5xtOEcNGICXhpJMhzDuhTEY1msUcjySB5KGoT26I6lNe5wTQs+J4uMmjUWP/h1EE0kD8ykSRPK5L1Gueh0sWb/NhIecDJw8vg0J9eqYTtTypUtQI7E5vOaNBHBwywb87y9+geETX0NmJIw5SxYioVIFsyq5M7Acxvp1a/C/v38Q+w8exqUvj6NC6adw6Muzko5o/MWCA+4N7PVlyzOG38WSTPPexS0NeMEO3c3PEHZ4s7P5JfidB+poybSFxZ0Jdz1T8Jp1ksK2Zf369WbNH5rrt9puP3mv71YwP4giJdOcT1+uXDkTKckGoW80LCyKMwpKpnVrrAsXLphrt1u3ewsLi4JD65Al03EwKSY9MTPRW1on+eXI9AFDpt//bBcyxQTIQvjaF6jfMBFvLFkBQ0XDAfRqVQfd+g/EnuPHUKN6OXx2+IhZ6oudqA1rP0L1SqVw6auzqFy3C1ZsPePQO18yunRsjtGvvIqDh/aj7JN/xtmvUriElsG44cPQRkhsmujF1+thIa0k09s+nosGNasjPdMHz9UTaNk2CbM2bsKVaxdQs2IZbP58j/Ef8mShbb0WGP38eEOmgzleZx9s6dssHj8Wbdu0xqU4cR/ery9eGDRMzkIYPXwQRvQexaiYERjepQsSW7TBCQmEi4W98d4ESWtbIdYxBIXIMv1ZVy/h6VqNMH/1dgmfgabg+PHNqFEnAdeuXsbyDxajemIz0UGsJPVHtm1CaSl3mw8cpgE2frYVtSqWx6nTZ8w1v1dfvGAuEus3NldH9u7Ak48+hC+OfmlocSQaQvL1VOw7eAj+oN/kDbflcr6ZlkhMPAqT2+bMTVDd53caqFde/ew0bwuLOwN565DWOyWO/ISkdOnSmDXLmanzl/q7dzNuC5nmB+zcTF/3mSYBoXDat4VFcUZhyDS3xjpzRjtXDvK6t7CwKDi0DlkyHQeTYtKT4yLTPgSvHEL9qqUNmSaRJMGOZR5GnbpVMWH2UkNySdR6ta6LFp27IN3nQcOGtdDluSGGFMdyomjasDb69+oIr5DbUpVbCJmO9x0CqejYrikGjRwDv9+HhGoVMXLMK8bu8vUr+NNv/hedunQzpNwXNqGJhLB7/ftoUKs6klOz4E85g2Yt6mDG2vXIzE5Bw8Rq2LBtJ4NALOBFq7pNMXzEC4ZMh4T6hwJyJsF8MOkVtGzRAnrXB/fqiTHPPSdnEYwZNQQj+ox2lhEXtyMkXTUat8AZ4c0cD5749kvoNbAjsnLC8IeEcUs8sYAfI8a9hboteyAkaeE63cOHdsSDf3oYqWnXsWn9ajxRpjouJju5OHHIQNz/3/+DtTv2mGiupqWgapmn8MIL44x9NJiBpDqJGDn2ZXNbgp4MtG7WCEPHOGWPYN4MHDQEfok7GPSZb8E5Ou3cRzd47XTotGPH5w+fSTxS7jSwblkybWFx54P1iXWVom0JOdyjjz6KqVOnmmu2NerGXf9KQl1kmokiJdPz589H2bJlczs2vAHuJdotLIorCkOm+WLp/Pnz5jqvOwsLi8JD61JByLTH4zGreb/00ktxE+dBqQ9LguHqtRIVXrP+F5f6S+0dTcNIu3wajeslYs3W7YiI/lwALOy7hgYN62HKHGfxK/ro170DevTpa6ZXf/nlCTRt1RpJjRojMTEBQ4cMMqOzaSkpqF2/NT5avdX4yon40KtHJ4wZO8Zcnzx6AK3FX8PGjdGkRUvUTayDfv0HGDtPUIhrfIePzOsX0axRQ9SqlYiDe7ajfftW+PiTjbh67TLqCMnesXuvyeuQ34v2Ldvi+dFjTXo8/ixzH4gTX+xCxYoV0LRdR2RmZWD4oEEYM9xZgOzll19A7y59kRNfLGz4M/3RrHU7ZEo3hL6nznwXzwzsjSwhsAb8blqcZnr86DdwqJDgOmjVsiHatW2ChDq1ceXKJQSEYI8c/RKerlAZHdq3w9D+/VCvdm1s37M3TnOBo4cPok7tumjZsiWaNKiLQc8NREZmlslT5vG5s2fQok071E1KQsOGDTFkyFAJ+6opY3wZkRNzylr+cMqllknmD7cgZT/uTiyXWo/culkybWFxZ0PrFtsWPit1ZPpWda4k1EVtk4uUTHMFzkOHDhkCzXA5757TxNj4W1gUZxSGTLPicR0Bgua37ihZWFgUBFrPCkKms7KyULVqVYwfP95cKzlhWHxO+Xy+m55VSgbUnV4XB1BP6sx0nT171ozK+yV9um8pO0t8XnNrlFAobLY6oZkuPJOWloZ9e/di//798jwPGTJLf5ekPctIS0ckHEIo6Mf15KtynQxfdiZOnzgKTya3azqPE1+eQ/9BwzB56nQzUh6MxoyEqJNImoSx8/OdSEm+hrTUFLO/NeNmh4XfAfNeML+pE0dJGLe+0GAamDZORdwrOoZFF95/XtOeuvOafhgG/fOafug3IyMD6enp5lzvp1nnRc4Z944dO7Br5y6TP2y/lcDzZcyRI4exc+dOZGZk4npKCrIyMxEVe+pLcMFJrpfBWXpqproTtN8hfbAvvvhC9OA+2064BHWg21uBumpZJKib7vd6p0F11fwlLJm2sLjzwXrLtvHgwYPmM8W89bikgeknipRMExoxj/owt7Ao7igomWaH6uGHH/7a1lhutxYWFoWD1qOCkukqVarkkmnWYX1GkchpmCRjnN62bZuzGBWJKJ9n+mwrLmB6QpI2JksJHQleOE7szLmYUzQv6CZvOiMR50UCO1gMLEfOwyG/HBmOuM0JG1LctkUz9O3VE5MmTcKQ4aPwzMDBOHr8pFmQKxjNMSPTAQnf6OSs0mX2XiaiEoe7r0A9qA/jpZ56TfDIPaEVap5Xd7cf6s3w1Z526p7mzCte6+KpeUE7vnhQ6EsHwujjmoH38ccfm/VjNGz65dHth2CcNFe99PhN0DJKdyzP7Owy/DsN1JM6qr6EJdMWFnc+2E7ltpsC0+6XYGibXKRkWhtCPvx45MOBN8J9YywsiiPYYSkomWYn35JpC4vvH1qPvg2ZVrf6zfQLL7xgrmnuJi8clZwxYwZKlSqFBx54wHT6aU/zvB2M4gCmT4kcjxSSPj6TmR6mjXZMF+30Wa3uNX84ck1/znnI2EUj4lYkGPCZo8SGK5cv4LVXX8ErEybgzbfewbVUZ+TVGxB33BorKMRRwg9JWAwv4PMjJua65ZPqxnMSRdWPJJZ9CtWZQj3pXvXnOfU14Yo76kg7nqs7Cs81Lk23uqUZwXDy5hHd0EyFfnkkqJ/GoeETtFd9CY2X5hovoWEzXobBY36guYq6o18N/04CdaNePCrykmm1z08IS6YtLIoWrFtsU9j2EdpO3YltTFFB016kZJphkkTotCU+INjo88FjYVGcwQaloGSaW2Ppat5Efu4tLCwKDq1D34ZM68OQpCfvN9NEZmam+TasfPnyKFOmjFmgjFNo6U9HRXlO/8WlU8H8Ub2VeJHI0Uyfy7RT4kl7plXd8FpF3dJc8yMnJwq/zwufNxuRMAnk12egkUCHYzlCpoU8R4S4cpp3mGH4nbDlOha5mayzXaVOjJOixJN5TzsVJaUEj/TLI4V2aq92hPpleBoX7amLXjNO2vOoMxLUnYZFOx0w4LW6V78Ez+meaaF/uqUdzXikGYXnDEPDonwTTL6J0K/6uxOh6XHrZ0emLSzufLB+kcOtWLECx48fv6lOlkRom1ykZHru3Llmaiu/vyL4oChOHRALi1uBZbmg30zff//9N63mnZ97CwuLgkPrUEFGpjnCXLFiRUyYMMFcs8NAEv3000+blUsnTpyIlJQUY0eQELlxJ5OX/ED9lbRRbx75PHYTU4JHpk3N3ASPouHQXO0cM3m++7idE82FoIcCiEUd4h4Ocy9lIbRCng2B9gtJF3+ReDgadijI0e34VG+xY7hK6BmP6kE7mrvtNQwKr90vBtRMCTD900zDc4NmDJOge9rfeGngxM1rgmaqC4+8plAvt64003gJHvWaQveqG4XQuL8J6pbgfeQnCXcimI68abFk2sLizoa2L3yePv7445g+fbq5LsnQPClSMr1w4ULcd999ZtEQwv3AsbAozmAZLiiZvueee3LJtJq7O08WFhaFg9angpBpjkAnJiZi9OjRWL58OWrWrImnnnrKkGjdzpHQ+nmreqrEKC+U5OVn5yZbeXGr8NTtrZ6fjO+bdCQ5o+i1Qu10Kp+CYd1KFxI3piE/XUikg0ESdCHS5jvqG4hESC5F4t9IKzQvwnH98uYL9btVumlO0TSpX/phuLSjrm7cypxg2nQEOS++SQ+6Z3j5+WN8es/doK6MK6+5gmHRzf/f3nuAWVVsed/3ed4w87zPvDPvzNz7TbjJG+bqmHPGjCCIiBkEBcQAKAYQEclJEQRRAQFFQVFEQUURJYigKIhIjhJFQVLT6eRzen3rV/usZnNslEY4dNP1h+q9d8VVtWtV1f9U7aqfcwdspAZBBfivSI6fqpP4t7zllj9uhMm1N+yvTOwdVISVK1fKiSee6Mm0h0cVhekWHI5PnYYMGeKeazKsPcsrmWaAwgYv9p0oQmAq6sA8PKoTGDxUlkyHj8Yy5Pr38PCoPEyHKrMBGbszn3/++fLrX//azZA9++yzjkSzYdSDDz4orVu3dsSaGWyAjj///PPSsmVLN7DnHuJF2pCG/v37O/s2bdrImDFjXBuBG9/7du/e3bnde++9ri0wYsLMd6dOnaRdu3bOfcaMGc4es2bNGnnooYfkrrvukvvvv798p2bCLl++3IVBlkceecT139YGsVHa3Xff7dz5oeC7775z9oA+mbiQsV+/fq6cLD1WkhEf+SZvLGvGnngHDx7swmBGjhzpSBlu5J94yNe9994nb7wxXuWDWLET9h7p1q2LtLu/nbRue69Mfu/9cjkYiDz88MNyzz33ODkZh5gc36z7xuX7jjvukA4dOsiKFSvK87ZgwYLyMF27dpWNGzeWx/nRRx+V561Hjx5uab7FSb0gb4R95plnHPHE3t4peSYcdYB8A8YprFrgvWB4p9gRDgLcp08fue+++1y4N998s1wOVuJ17ty5PE7IosmBTB07dnR5e+CBB9w7tbzxTvFP3h599FFZvXp1eZyzZ892/nGnz+FHWRvUTZ061b3vW265xZWpvVPcX3rpJSeH1WXLN4a8Wt5GjBhRTuqpt2zKxzsl3NixY8vDEL5bt27OnjRJ29IiXWRr1aqVKxfeqeWNvKBTxEn+IdLUy5NPPtmTaQ+PKgprY2jT6tat604lAGZfE2F5zyuZplMiXvtFlkaaq2/8PKo7Kkum+WaaATsDCIPXBQ+PQwPTo8qQaYgYOvmrX/1KjjvuOKej6PHEiRPdub/169d3xAEyTPxGmBs1aiTXXXedDBgwwNkB+jpIcePGjaVBgwaOqADaCcg45LBevXouLKQVoP8c3wRZxo00jZwgB9+n3X777a6dad68uSNUuGHmzp3r/CPHnXfe6Y4tMUyfPt3JcP311zvCA3ExQIwaNmzowkFUWRZsZYfMzM7fdNNN0rt37/IfESDOlIPl7UktA3bwJm+4QRyRn3gh2uSLjcSI+75290m9q+tLI01v4sRJ5XnbtGGj3HlHK7mmwTXSrFkzR4SxVw/u+K2bb77ZydiiRQv58ssvnRyA8cq1117r8gY5Xrx4cdZF3HujrChjCCmzKZY3lieStxtvvFG6dOnifkgBpMk38+SNVQqQcJt9xo0fI8gb8TIrY2MYPgmg/KgjyPPqq6+6tHAnXUgvYYiXH2ewB/xA0qRJEyc/+Z4zJzijG5Bv7DG8d47kMlAvKF/c+EGAvTeQD1nYKdzeKT8mMMgDyIPMkGzeG/WTeko4DPUX+ck39dpm43mnlBFu5IF3CsgD5QapJz3e0YQJE8p1AJmQGxnJN+/UwA8F2OFGOAag1P1TTz3Vk2kPjyoKdIs2AQ7HRBA/ptHmYFdTQf5BXsm0dSBcMcRtDa+HR3UG9ZmBRmXINN9h2ioN7InDFNPDw+PgYXpWmWXeECJ+bW/atKnb0fv3v/+925Bs0qRJzt2AjmIqWlFFXBiISC4gLvR3FYVjRhf9r6g/hMxUFI42hjAVDWSQz/pYwlkeAfe4E2duWOwsb7npWd6QJxeWt4rkj7AEXGWJJyvIm5YT30Vj3GHVWaQzOmBL7X+JdDhvPBvCecNPGOG85coZzhvXMH4qb7xn0sktK4BbReFMhp/Km/nhGsb+5OcZe1tuH4blDT+VzVtFaQGrk7l14UDzRtjc9wPBDi/zxp/JnmuAJ9MeHvmF6ST6bTpuzzUVlAnIK5mmwK1BtUYaO9/4eVR3UKcrS6bD50xjbw2Vh4fHL4Pp0YGQaXQVUsDMK5uNDRo0yNkzy8ls4+9+9zu3MRmzbsxKGyAb6KwZ+jTTYe6J0wYZXCE6ADcQDkf7QTiuFgZ77jH4o7+0dgI782t55d5kANbPmj8MsHTNnfBsoIUdz+QLWc0f6WK4ryhvzDpHIxXkLes3oaRYQzpCzQZjgLOkIcxptWPX7qSSaa6cL51JBvbETxzA5OAKkN3kxx/3wKWrJjdv5sfyxjNuxEleCFNh3tTe3hvh8WNp4NfSwM3ChGWyNCx+s7f0AW65ebO4w/FYutjhHzvLC37IG/cmE+AZwzP25A2/wMJztTQwpGEymJuFMZnCceKfe+zwZ26Aa0XvzfyYDgGWfvtl3h4eVRu0Geg0eozuosM1Wees/cormWbp2ahRo350NBZXD4/qDBqWypBpvpM89thjy5d5m0J6eHj8cpieHejMNPoHUeac6fDRWLjRF/IdMkvA+aZ63Lhx+yx5RvetLyMe7IARBdoCIyG2CzT35mb+jMRZnIQhfa4WJ8AP9mZ4tj7U3ICFNXfSsDDEb2ngzr0RK3vGDTuT02TEjxE35zeh+U6lJVqiecvG58KoicbVX5kOuDR9jr6KafhkWssrRTxaDuQtqoMxNiCDSKdUxrTKyH02DjejnZWLtC1vyIjd/vJmBj/hfGBH3uwHBJ4JZ3mz94CblU/4vZlbRe8N/xiL1waaGOww4Xtk59niNFhauHO1OEx2uxIm9x2ZDMw627J9SwcZCcs9fghD3uze4sjNG+EtXkvrp/LG1dI0NwPpE6/FbW4sefe7eXt4VF2gW+gr/R9cjj0reEaPayqs/cormeY7InZHtbN1aVRr+ovwODpAXa4smT7mmGPcd5oAPcCNqymnh4fHwcH0rDLLvBkg1KlTx30fDMJ6C9BVNk2iw7zkkktk4cKFzt6IheltOJzpNSas2zwbqQn7wYCK7AD35hb2Y/Ha1eyB2QELY2ljwv2v2YXjARbOnkHYjm+mXZjss8UPGWZ2Wf/DlYNwSq41BbULjFve7Uw2XfVo8REH/l043BSWJjA/dg9+Lm9mFw5nboawHffh51/y3sw9fAV2DYczP3YPcvNm7mYHgbVwDO7sG3LzB8wdw70ZEM5b2B+w+7Ad4D7s3+LKvYbDYYf8pGfunkx7eFRtmG6xvwFcbujQoe4ZPa6psPYrr2SazU7Y2MUGNjT81nh7eFRnUI8rS6b/+Mc/7nPONMj17+HhUXmYDlVmAzJm8piZZvMlYAN+rsyiGdhxuVevXm4DMPTeSIHvyzyqAqwOsvFZeLO5qgRkRK/C+uLPmfbwqNow4sgpF2wWaGTa7GsiLO95JdPvvfee2xGS70SJFyEYiLB0yMOjOuNgyPTf/vY3p4Ag7Dfs38PDo/IwHToYMv3EE0+4Z+IwPaavslm/MHDD3ki3112PIwWrp1wxLN8uKCioknUyLKvBk2kPj6oNdAu9hcPB5ehfwzpZE2FjgrySaQgH55PxjY+RaATxZNqjuqOyZJoNyNi5NHcDMg8Pj18O07NDQaatn+KZe5Z0o+8Ae/zY96EeHkcK1ofYtSojLKshl0ybe0UGeDLt4ZFfoFv0dazUor+kL7T+sabC8p53Mg14AUY2sOPew6M642DINDuXGpkGuX49PDwODqZHv5RMY+gsGTBYnFwZTKDz1qfh7vsxjyMNq7OAukm9rIowvTJZgZ+Z9vCo2qCPQ2+t37N7e66JOCJkGtiv+rY7JsY3fh7VHdTjypJpBvm2mzfI9evh4XFwMD36JWQaHeZXeGC6ab/CG3nmiqloCbiHR74R7kPYyXvTpk3uvqoBGdEXkxXkkmlg+ck1wJNpD4/8At2yyVDrH21X/pqKI0Km2bhlwIAB7ggS4rUXUpNfhMfRgYMh0yeccEL5zvYg16+Hh8fBwfToUM1M28AfPece/bZO1J5N5z08jgSsvhoY3HF0TVVEWKcMRqbZ2A/wI5XlCZOrY23atJEWLVrs4weTG6+Hh8ehgekYHG7QoEEyd+5c94xe1lTYOCCvZJrdvNl0yQY2Nit9KNPw8DgSqCyZZgOy3//+9+W7eWNvShn27+HhUXmYDlWWTF9++eX7kGkPj+oE6qzVW+p8VdzN22QMG7Bu3Tqnq2EyTT9q5Ng+rTD/d999t9xxxx3lcRjZtjAeHh6HFqZ77OZ9yimnuLOmATpXU3FEyPS4cePkL3/5S/l3otbo0UB6eFRn/FIyDQ6lrnl41GSYLv3SmWkPj+oE6qzVW5ZjcnZ6VYURX5N3w4YNTlenT5/unrGnX80lxua/ffv20rJly/KBPPZGvD08PA4fII6srBw5cmTWpubiiJBpGsnmzZu7pa3W6GGsMfTwqK44GDLND0u5y7w9PDx+OUyXPJn2qCmgvobHVVUd9JnhiRTGnOjqnDlzsjY/jY4dO8o999zj8hweQxKn110Pj0MPa2PY6wfde/fdd8vtaios73kl0zRyJSUl5Q1oTX8JHkcPqNMH8820bUBm9mG/Hh4eBwfTI0+mPWoKqK+Mp+xKn8QxpFW1HlsfaWDMecwxx7h+9N5775W77rrLXVu3bu2WdPONNJuOcX3wwQfl9NNPd36MSBMXhuXhNsb08PA4dEC/wvoW3oyspuKIkGlDeGMJ7j2h9qjuOBgyzTcnuUdjeXh4/HKYLlWWTF966aXy5JNPZm08qius3c01+UB5WlnjnvlXkT33hxDhOHft2uWWTldFmJwYG//xHeajjz7qlm7zLTSkuVWrVnLnnXc6Qs2qRmbDeMb9vvvuc99sspSd/pZ4LC4rAw8Pj0ML01uAvoWfayKszckrmabBo+GzRs8Ih4dHdcfBkOkTTzxxn5lpU0oPD49fBtOzypLpK664Qrp06eJOnvjkk0/cZkhHwnzyyWzXKa9YsaL8eK6KYW2LXrkl32ZVDueQNfkFLdphTdlF/OPYrd3dawK7/eFHLuUW3JCLUNu8j+cct4w6quHCCc+YMpzTaqFGh56SypoyHGjzXXz6rP9w3xsbd+Z+YCCP4cHdokWL3H1VQ/jdIC9X6jn9phFjg21Ehh+bdTZ/HLHK7Bgz8IBwFp+Hh8ehh+kpeuhXgQRtDsgrmWZw0qNHD/eLKbBG0zd8HtUdlSXTud9Mm38bDHh4eBw8TM8OhEybXwbmDRo0cEtHmzZtKscdd5w7fSL/5jg5/vgT5T//87dywgknyYb1wVnBmTRGZYVfqcyQsYzQbkDNlLZldFCj7Yg2IFn3wE9ZmdpljbPTuDC0Mhh7NqORZI35CIzFmYu94RTZB/xpiCxx1PZRDbGEYfHlmoqwj202jcAE+XNloGEdl6X91GdMuV3WBPlQdycMEpZleS7yBnHhkQt+iDcjCTV6xQ92uGXjcmngRkzYJfVPQi/qxNZfJXgl83G111eU0kup+o6oSfO+Umrp2n4dmGqZxzSupIsNAZOaPTVp+gSXYAi4k372Vq/Wb9iYatu2be64qTDKy3jfQqmScHIqOHe6Z8+e5Ueqmr2Hh0d+YcS5sLDQ6aRtFliTCbW1u3kl06+99pobLGzZssUJwAuwht/DozrjYMg034fZMjzsTSk9PDx+GUzPKkOm2c+jTp067ptpiMiqVatcP3gkzIYNG2XEiFFy+ulnqhxrnHyplPaZSZicQduWLOlypixLqLN9qjOOcEEQ9Wr2LqQ+Zq9m9gKXHxuLMxcWl0M2MvxpCKWGe8l0WHJg8eWairCPbTaNwJJYiZ0yUNKpdkEc2AdS7eMdO8i0e8A9KEFtrd0/F85IpvODCzQ3rVbIp1ZBsOCmIjKtonCpiExjb2Q6hQNkWvsOyHRK04ipSRCXSyRLpjP0JUGSmADckX72Vo2VnY2pmLFltUUYVsZhU5WA7DbrZbI999xzbhUXkzDMitlMNfdVTX4Pj6MZ6B2gP+VM+Oeff949ezKdZzL9yiuvyB/+8Af3nSjx8gKMUHt4VGccDJn+4x//uM/RWF4PPDwODUzPKkOmIR7hc6aPNObNm78PmWZ2kn+OPDnwRJvBQCZrIM7M1uLXtT0QLgiiXs3Ohfyx2Qvi/LEJ4tvXJ9gnvD1oWrlkOjekxZdrKsI+tpaGkyuUd5ci/0C5p/K74AmE8xX4R05COztkgEw7N2zd/H/Wt/0BQRxlEG18EI6pZxUFag+RZvGxm8mGTGftIdLRIITaQaYJqwRSbZQ6O1mC1CDSCX11EMtAJCeWAzfImr1VY+VHPxLuS3LL1Pzl2lcVmPycK42Mw4YNc2S6oKCgvF/FzZZ2e3h45Bdbt251xJEfumo6rK3N+zJvNpjgV3/ihYDQOIYbfg+P6oiDIdN//etf9zkay/+w5OFxaGB6VplvphmcMzPdr18/98zMXliH82UMn3zyqZx66umybl3wg5ubFMC53As3tBc/NvvEZyxMjbNTH7kmAHcVxRf4CMsWxj5x2IOmFdBMTDiWvQjLGDYV4Ue2zoKYoaeYfcm0pZdrAli4IH9ICJXlLoDau+lkpIf0BiHK87A3Ir0nPci0El/C8JL0f0CalUPjhbLHQu2JNaaG2WdmuiWtsaoh36RmOQlyQZzMvtKXaPpZg0uQTyTaF1Z+XCGcLI1OKVn/Mcpz8yPs7x3kA0akzYBp06bJww8/LHv27HF29K0Y3196eOQftA8s8+7cubPTzZoOa4PySqZJlKU5XDG2rfqRbLw9PA4FKkumKzoaC50I+/Xw8Dg4mB5Vhkwz81W7du3ymWmWkxLPkTBg5syZcsopp+7TF+/77Sz3Roo0XPZf+b3euqiMhamxuAF3QXoaB8bFpcTL+QmbvQiect1DxhINycmdSRmG5TXXVAR1yd4ZeFbaWRbXO0xAjvGXdcmSUmyxtzly0uXqaK4zhIUMQ4kd3Ow+dBf7gEwTYm/sFjL4E8SNDEqTWWqvdoQJpKJs9cF9mB3EQ8pOWsKqvTMunsCbs3dPzFMHZDqMoCz5h0QBuNq4yspwx/btWnfWal9kJRGYIO69byT4G8CFNQuuYcc8IEyS+TGAfQxsFtrckNF008PDI38wHQTooPE57msqyD/IK5k2WKMfNh4e1RkHQ6Y5Giv3nGkPD49fDtOnypDp3bt3u5np/v37Z22OLD766CM588wzyzeR+nFbQr8Z9J1soMUKY54c+dM+Fa/OOySaGVC9Zrhm4wg2J8NoCIz73loN4QjjfAXgPjDIQNtGKsTFNfuMvRI3vvElLdrE9Rs3SDFnHeO7PN0gH2bo/y1fYXtDQBpJJ0DGfUPMgI60YuoW0FbyAhHFhaFdnLj1OZjzjem9+uOZ75Mzkax/4maDMcg0suABwhZVN8LwbXMQH/PXQekSB0b/uOInJF9CF+tdvNwXcqQduQ7GOC4MdsGrCMB9lkwDc1cbtWMXd3bOTciW77+TVWvWyLpN3wa8XAMgG3Dfcrs7tdd+x8rz+y1bZNnSRYGcCt5RhnekiXJNu7wHaW7b9oNs2pRdJaUWLupspLnv43AC+RmYU3fs3sAzg3fcyKNdPTw88gP0zfTQYG1OTYXlPa9kmoaR79LsWxgaw3w21B4ehwvU5cqS6ZNPPrn8nGnsUcqwXw8Pj4OD6VFlyHTuN9NHWhdnzJghp556qqxbt849Iw9EKBZXcqpsJ6kDmmQimKGLa/sTTaWlWPvWuLYjsQRUbi8SMSUh6jcWIWzQ96ZS2e9xIb/MXqrJpJTIaNiEGnLv/EJq1C2q6aYz6p7UdLNhM5BnJWYJdSN8QsswHQu+ZX1q4EC5ptG1slblT6tMcQ1ngzHStzaSK4YBmpElxgjWHqZVvlgi6sYPaZUvFotIPFaqbko0UxGVZd9NthIqOJ8oR5JpKY0oIU6zXL9E0yjVuJWEpZPqVqjypCQSTWo6CS2/iBJsZIDIxdUoMS7TvCjrjWmEMS3bWDKqYZQ0q6z8KAHxTie1fFS2THqP+i9Q6huTIk03QjpaPtFYUVBmGiamcRPOzUTD0BUswY7F4poHykTLQfOc0ngTWr7xeKHKzLFPpXL/Aw/IqaedLv0HPKVyJCWhska1PCkbfjhJZDemszJLad4K9+yRLd9u0joS07KjrijR5xtspfmJjNYTLQerJa++Ok7OO+8CWb50hXuGTKfJg8pEPuNx6plzOqxAdqsjGMB7Z3NAs7M82tXDwyM/MN2knUYnbXUx9jUVlve8kmkGBw8++KA7nB8Qd01/ER5HBypLpvlmGj1jZ3uQ68/Dw+PgYbpUWTJ92WWXVSkyzeqVdeusL2ZGUQmakjcAsUwriYpGY24WFmJUrIMcvsktVTL6zLPPSYf2HWTOzNkuL3EllpCsKEtn3SAIYqyklU2wALOWSuKSECcIX7ZbDoh0zJHYWDyiAylSoM1TQpZQu0ixxqEEVN3Smq46aFwZeevNCbJx8yYmX10cCZtl1GKlz6fNtMEZhvLHjiW9RqqRG7eYppmAPKodzwlNN5mA2MaVsBbKoMED3Nhi9pxP3Y8AMZU/ElPSXBJR2dQkd2u6AemOppWoui3AVFT9k0jF1G+x5k/tlDgmlTTHYuwcXeD8w1OjMX6gKFUZCzS/Ec2exl+ickZVFiX2mfRujW+XKM2ViApQnEDmuMpcqkRcU9NyLypRcq7kNBnRMsqWLeQdUk+6EX2PhYXFTn590/qO9mhZBDL88MN2WbEyWKGQVEIOzUy6HxmYldd4NA7isnJz5ap2vFPec0TfUTKp71zJtNJvFw9IaPkmVCbw+efzZOGCr13egrqismqcSY0nzY8AJHSYgez23u3KCg2+md6xY4d79+SNfPpxo4dHfoH+AThcu3btZOrUqe7Z7GsirB3KK5l+/fXX5dhjj3U7wQGEOJTxe3gcKdDxV5ZM/+53vys/Gsv8c63JDZOHx6GA6Vn1JtPTs2Tazgouk6LiQrnv/nulS5dHnQ2EiVnNIiXHbdo/JH0GDXQ7SBdoXubMmSO3Nb1NGtSpLzu3K9FLKFEtjahRsqiE1RFpJbnfK+F9+MEHZP2alZqE9slKRCF9nR7pLC1btpKCPXvczGpxaZESLyXNSs4mTHhNXhg1XONUcq0kWpSgZpTkx4uVWKvfmR99qGk3kSeffEJl5pAokZ27d8lbE96UbVu3lff9GNpOZh8xdk8baFf8QBqTSvrjsbibDWGpNmknk8HM9PQZH8oNN9woN9/SVEqV7CoflGhcw0MGS3dLWWq3rF21UMaPn6QEMi0L1y6Stu27y4Yte5RcMt+fcCQ+rgTczXini+T5EYPl+utvkc2bdqqdtvHpqJSU7lAZ+QFCyXVpUmIlGr+SaZFCWbP+M3m0Tyf5as3agOwyy6/EPKqkt0TL0y291ytl+/TjA+XN1ye4coloPplt3lNYJPF4Qt6Y9LaMeHGElqOSdJXl283r5f772sndd7eVJUuXKyHmB4CAEDObzjLvJPJo2ZSXm6aRgQRTbonghxN+DPh2y0aZ99UX0uaBtvLuB++rnZJ/LaO5X8yTW5s0k4ceaC+7d+52qxMg1cxOU2/cLDwJH2ZQL5Cfd26D1GeffdYNUivagOxI66iHR02C6RubSNM3DR8+3D2brtZEWN7zSqbHjBkjv//973+0tLUmvwiPowMHS6btaCzzbwMFDw+Pg4fp2dFEppmZTmdSMmXqZDn++OPkbc2boUuvXnLBlXVk0do1Sgv3otXtd8gTvR/PPu1FMs5S5mBWetXypXLReWfLogXzsq4i323aqmS6iyxV8gbi2iYFy4KZXS5TMt9JHmjXxt2nlTAamNnes/0H6dbpUXlt3KvSt29veWfyu85t2Yrl0rDBtVrOSna1z2d2EQJrBPrnwOsIlldb+8gsZTBLDh584CF57bWgTBKpoC1NRkulLM7sblqGDOwhHR/p6dw/XTpfTjjzSvlmC3tu70WMZd8p8lOicUflmaeHyrIlmwK3WInmlgOvVJbssuq9KJJFSz+UWvUuktnLgqXSAdJSpGUc0ZAs3VbWq1Zl0rZZS+ndNZDFEFUyHInH3A8je0oLNa+aVllc3npjnAx8coC8NHqsdOvaSyLR4DM5vnkGSVd+odlmJeQpNWX0Jcxcp4MawXfl/R7vLY2uv1b+32/+Sc4+/1zZ9N13sr1gj/Tu20/eGD9BHn2ks7z8wkuOjANmpyHWbnl81u5wgnpBXeBKvQDPPPOMHHfccW5PA5t5t37ySOuoh0dNgnE1yDQ6OXToUPdckzmc5T2vZHrevHnSs2dP1yiGG03fIHpUdxwMmUbPUECQ68/Dw+PgYbp0VJFpJWa2RPe5556R3//ut7JF248ZM2bKObUuknkrVjq3Nd9/L+98MFW2bQ0+p0pGEvLm62/Koi+/ltEvjJYli5YEM9N856xY/NWXckPD+vLV55/J2xMmyDcr1kgsEldCVSZbv98q414fL6VK8lLM32bY5TolA57sK507dXDhIYxP9ukpY0eNUCHTEisqkCEDBkgvJfhPPTVQtu/cIcUlxfJQh/byp2P+JL169nKftzDDzBJ1CBLgO+khQ4ZIx44dZfz48a6NXPfNOvfu3n7nXdmxY5fzxzfE414dI18t+EKfyqSoaLf01vS7de2m5H2Axv2D2iqpjCUkHVGyXBaTeZ9OlssuOl8uuaSOvPrGmzJ76QK5qF5zGTNhtnR45BHp3K2TfKXloFlRJGXP7nXy9KCe0qtHTyWYT8iqFQGh3rJllUyeNEHWLF0pAzStrp27ycqFX6lLTJaumCaNWt4gIya+J736D3J9wfx5c93u3UUqUSyllDqq8igx7XrfQ9KtU2cZOHiwPPBwB3lt4kT33TvfTM/5cp7M/OxjKcsExH3Ca69Ity5dpUePXvL53AVaXgGpnfLBB7LgK575vjohc+d+LhPemOCW8bOMPKPxpfS9gYI9O/R9dJeuXbvIiNHD5Pa7bpO3p77n3BKZMhn76jg3Nnt2yLOyZvlqySiJjpcGM/DRCO+IWWDn/bDCSDKwseGsWbNcXWK3fesn7VtNDw+P/MF0jlUivXv3dscdg5qsi0eETBsoeASgE7DG0cOjOqOyZNpvQObhcfhgenR0zUwnlSOlJJ7k++Wo3Nr4Fjnj9NPlpJNOk1FjXnE8EFo69dNP5fKr6smK5QG5LlASetZpZ8ikNycpQRwio0e/7OzL0sFs8Mqli6T+lZfLciWTrVu0kM4dOjl70L//ALn2hhvdcuJkWUoSZVDDtPTt10169giWmj94X2s57i9/klkzZkhCSXrbVq2ktZpRo0bJAw/cLw+1b++WeD/+RH858aST5SVNf/uO7a6NTCiB5kf1nUq4b7zpZrmnbTsX7q5WLeTv//7v5b2pShgXL5FLa9eRpcuDWfLdu3Zrvs+UV18ZI9u+3ywtWt4qXbt3lVdeeUUeatdRbmvaXPYUsTRdBzrM0MYKZcWi6XJNw8vkyquulXdnzJIlW1bLn068VBrd2sGl16nLQ3L1NVdpfLtk9/Zt0uaextKt20PyyqtKZLsNkMa3tpA9hTvlm9Vfy2/+37/KIw89LK+Pe13ub32fXH7++bJl02pZv3munHzBidKiQ2cZOe4N6aXktPYVF8vXq9cIC8HZ9CvDkvBUUnq0bit/+d0f3IqCFzT9RtdfL88+GyyZ7DXocWnetqnexeXVMSOl7pVXyoiRI+WppwbJ1fUbyYIvlzh/zRo3ke5K9q2ePvVkf6lzxeVSWhLMtvNdvL5lV0aNb75e7mzVUvP6grRq00r+etJf5f2Pp8K55bHuPeXOu9q4cuj8yCPS6OprZfWK1ZLUsouXJtxqgDRL/92A+fDrhPWFpBekGQxYbQUD7mZ/pHXUw6MmAT00A0xX7bkmwvJ+RMg0jWLwaypLzYIlOx4e1Rm/lEybQtb0hsnD41DA9KyyZDr/u3mj6xXrOzPOp5xympLp7G7eSmLTSshK44Xuef26b+T//b9/ltp16jkiHdFomLeeM3+eNLrxenVfo09p2VOwXS688DwlXj1k4qTJ8vWixe47Wzb1wn3NqqVy1eWXyObVK2XGu+8pOawlRbsLtE1LS9PbWshoJeognk4ooWY2Oy79nnhMevZ+WPo93l1OP/002bBuo/PzgYa/5IILgt29s6hXv548P2KkbP5um9Sp10BK2IBLwaZZfGdN/t8aP05qXXal7IwEM6nrli+Wk/72J3l3ziyZs2q11LvpJlm6arG6lEnJzmK56OK68uG0j+Wjd96UPn2DNpfvqd8Z/4acf9p/y+wvZ0iRtqNRLZCyGDO822TQsw9Il359nN9l6xfJ3866SN6Z9qV7jpR8Kw1vvFze/miafDrrM+nyyMPOvqioSD748CM55/ILZPacqbJ17To55bgL5f33P3LuyT075NLzL5MPpkyTTZu/lLOuOFNenhHM1vDTRt2Lz5MX33lfeGPpRFoipXqXLpaeLW6VO2+93W0WB7765DNpcHED2bC9UB5/YbC063q7/LB9kdS+7AJ5Y8LkrC+R4c+8IA0bNZeE5rXd7Y2lz4ABAnWmpr743FNyQ73a7rtvdgSPJflpJS4vDH1CrqlzsaSyKwDWbFgn51x0usyYO0XmL5knF11aV7Zs2encqEFXX1VX+vd+0j2x63iZlmMwRqOe2jUwwTFpFdffgwF9H2NDrvSpGAP2GGSBVOPm+0oPj/zBdA/uBugjbaxbU2FtUF7JNEtzdu7cKcXFxS5eGsbwi/HwqK44GDKN4oV387Zr2L+Hh0flYTpU9WemjZj8GDNmfJwl08G+Cmy6xXev0XiwK3WvXj3lL3/9q/z3iafKp/MWOJqDxJ/N/0IaXFtf1q4JZnKLinfIeRecqQT0Innvg2D31ai2T3G+4VXytHz5QiXTF8uG5UslXlgkjRs1kjma9rpvNkitiy+XdZu3OAmZmU6moW4JGfb8QPnrsb+VX/3qV9Kjx95vf/v16i3nn322DFSSN/CJx2XgwAFy9jlnS4eHO8r8hYvk6kY3yrff/+A20Yonkpp1lSEZkT6PdZbW97d38qc4Nqq0WJpqHl54Z6LMUDJ91c23yMq1y9Q1LTs3bJOLL7tG3nznAxWlVNvS8dLr8b5ydZ0G0vymG+WcE/8k0z9/X9j2bI8OLTLFRXr3nfR6sqW07fSA3oss/2aBnH1lfVmxsYCV6bJ750qpd90F8vy4V9zz6y+Pk56P95IrlVje0qSxnH7pGTL3s6mybtFKaXBlS1m5ZqMkU4VS8sN6aVj3eiW8H8l3mxfJdS2ukynLV7hN4NKxnXLNZbWk/wtjhK+2UwmIokqV2CmD7r1DRj87Qoq1HJQiSmSr+r3wGvng04XSd/RT8lDv22X+l2/J2WeeKg+27yq9+/eXvv36yQP3PiQnnnKxFG3fJY/d00yeeGqQkDve/QtPPy431b9SCosiUqRpORpaFpH77r5Jej4a5Jty363l0fr+ljJl5gR5c/JrSs6bOHt27gZ9e/eUB9p0kHQ0W//ZlM6RZmI0E5DqQ02mbbCO7tGnMjZkSSmb1jJ+DDafC9zCRNvDw+PwA+KI/kUiEfe5Ljvso4f56SurJo4ImZ4yZYq0aNFCCguDX9aJm8bRw6O6o7Jkmu8B//znP8vGjcGMDvC/snt4HBqYnlV/Mn1q+cw0/iJRKGKZ5ut1OfOsM2TOZ3OlfcfOcuEll8mOXbudr4/nzpFbbr1JyTDLvMukpGSnXKZk+f0Ppjj3knjSncUMOSbOdetWSO1LL5RlX8137o936yZdOz0qzw8fKW3a3u+ki+vfeDo46imTKZF+T3SVOlddJM8OHyxnnnmmfDxzdhC2T1+pc/nlMuTpp+XpQQPdN9PPPfecEvYV8vmXC+TyuvXlu63bHHljZjqupFmSMU2zq9zSrIVbpu6g76JJw/ry4rtvyfQVK+Tqm26RZasWOafIzlK59IpGMn7iZJn8+lipX+8K6dm3t3zwvpLrokK5ueElMnXOZNmteS8mixFmpr+T3k/eIw917eTys3jNPLm40Q2y5JudjjwXFKyVeo1qycjXX5ePP5ojZ59yhvQb0E9mzJolkXRSbr6niXw4bZJsXrVOrrq8qSxd+Y22+UUS2bFZ6tduKKNeHC8b1y+Q+o3rywdLl7p8JCM7pFGdS+SJUS85wptJlUkirvnNRKRXq6Yy6ulhbjs3pYUS+WG3NK7fRN7/eJ4MHjdU7ut+u8ye84bUOv8c6d7zcXly0CAZNHiwlulgeXvyNCqntG3cUMn0YEfcwdhhQ+Tmq+u7ci3VfMc5AzxTLA+0biID+3Zzfij3XVpG97RrIZPef1XGv/2KNLjuJomXF7zIoAFPSvv7Hg7INP85Js2R5kDaw0mmjSDbDDSYOHGiNGvWzE3CAOtbufo+08Mjf7A+kR+47rrrLnn//ffdc376yqqJI0KmORoLAmFHY9mvi9aAenhUVxwMmf7jH/9Yvps3sMGDh4fHL4Pp2dFEpo20LFz8pRx//LEyYkTwje13236QU888V+5r39E9z10wX66+pp6sX7faPS9aNF+O/e//knHjXw+OjEqmJaZtDbtzgzWrl0rdKy6RlYsXuudPPpoqV9WuLbVr15FZs+e62eKk/k1lkho+LrF4ofTp96gS6s7Of7/H+0mdK+u7NvCdSe9IHQ0rSuQMbFQzadLbKvdSqV2vgewqCEhRXAlTKhpssjV54ltyae26snln8EP7pmXL5aT/+ou88eH7MmfVKql7zXWyZl3wDfiK+UvlpJPPlcnvT5OObVrLnXc1d/bg0w+myGn//UeZNW+G+065CJIYhW7uUDJ9n3Tu1wtv8vWKuXLu5bVlYXZjsV07V7tl3i+8/pr06f643HHb3jg/m/e5/PdZx8usT6bIhuWr5KrLmsiiJciSltId38p119woL415U1aunCvXNmso73+10G06VrBjkxL7ujLghYBMu028kjEtzELp1bal3NH4tvI3P//j2XLleXVl/ebtMmD009KuRyv5YfsqaajkePKUmVlfItOmfCSdu2oetHxbN7lG+j45MOsicv/dLeSmq6+SWDSh71fckVcQ39HPD5DaF5/jjkUDy7U8zzzvFJk6821ZtPIrOf3s82TR4mAVQ5m+4wb160m/Htkd4FVAZqwhzeQ3INJWZw/PMm/rO22Q+vzzz7tBKpMw2Jkb1/zoqIeHRxjfffed00l+KK3pOCJkmqOxjjnmGHfgNyBuW7bj4VGdcTBkuqKZaa8LHh6/HKZHVZ9Mk0bF6QTfTIdnpstk06aNctoZp8itt96i8tFeBC5zvpgvf/+P/yR9nnxCoom4tG17j9x+260ydOgwefCBtvKb3/yLvPPeZEkqmy5VcsRRV0lHgspkxcrFcs5Zp8oitzu2krDSYrnp+uuk1kUXKfEtdNLhP6PEKRovlmQyKt16dJD7H7zL+d+oMl188WXy8MOPuDOs2z/4oLRq2cIdm/Jwh/Zyb9u28u2W7xzpr3XZFfJQ+w6y5dstEtW+n6OrIIaR4kJ59LGuclOzIFy7Fi3lP37zG3lv1nQpUvc777lXbrutiXPr1r6L/NM//qtMnzFHPnz3XTn/grOld9++zq393a3lD//+rzJmwitSou1psbLa5B6obKG8+fYIOemsM+W9D6fK0tUL5MTzzpPFq4xMr5PzLz5FRugYZfbHc6TO5VdI/0FPyHPDhqpcneVff/dreWXcC7Jh5Vo5/8y6smTpKheueOd3cuG5F6m/F2Xt2gVyUd2LZMbXXzu3aNEOqXX26TJw5Itu9pgZ4zTfiCdLpeNdzeSY//iD9OjZz8nd+Iab5NkBwcD0sYHdpfE9jfQuJW9OmCC161wjg559Tp4cMECa3HyzTHp7svYvCfno7Vfkoksvk/5DhslzmsalF54t11x5hZLOiCT01cbTvLmkFBZsk6a3NJK2bdpoWsPloYcflj/89bfy7tQ31b1MevbuLTfecLOTo9MjHaTFbbfLxm82srpbUslgoBicM713RtrMoSbT6JwZ+3GZATv7i/CJIH1keBMyG8h6eHjkD0yIHnvssTJs2DD3XJP18IiQ6YULF7odIxm0EC9EmnMmPTyqOw6GTP/tb39zCgiwRykxYf8eHh6Vh+lQ1SfT+8eMGTOUTLObt81Mi6xes0qefW6I7NgR5Id2JpXWdkPv33j7bXnxlbGO/P6wfas89+zT0q3rY/LpnI81ro9kzTdr1W9aYqmMm7WMZzhqKy0FBTvl7YkT5IfvN4vt8N3mnruk4yMd3Uw2Rycl1G88oeRXiXQyWSwLFn4ms+ZM1fiC/U5mzZotY8a8InHOQNY2bPSLL0j37t1l8KCnpKSkRNIaR1zJ5IxZn0jPXr1kzZpvJKnkLBYp1gSiUpZMuLQ4oql71+7y3rg35Lbrr5dXJ44P8vPDTnn66YHSvctj8vm0OfLRBzOVvAY/RH44bYp01bS6d+kuS76YL598PFVmfT5HCpNK/jU7qdKIlKWKpLD4O3l84FMy+tWxsm7LGhk78S3ZtjvYv6WoeKu89c44Wb4mmM3/WMu+S88u0qdfH1m8dIlMnTNNPvviEynYvkveem2y7Ni5S9vqhET27JBJb74rK5Rk796xUca/M17WqVs0lZSS4l3qNk7mLVvuvt+Oqzzux4NUTD6dNllmz5wlQ4c9L926PSafaLmAZCItXyyeJ9O+mKLvNphJ/vyLhfJY9x7ymOZ99Qq+G6fIWNJf6lYvdO7aU54ZPlKWLf7KzfBHSlk9oGRe33Emw/spk107vnPfsXdVv1M/+khmfjpDVn6zTOtNMBCcOGmSOzZr2HNDlXzvcUvS00qkIdMJjSfYFGxfIo05HDPTtpcOfSr1++uvv3bjRr7RxM6WgFsf6+HhkR+Y3tFXvvjiizJ/fvBpEPpaU3FEyLSBBtEaSw+PowGVJdNsQHbSSSftczSWHxx4eBwamB7lkmn0NGzwZxtg8k1m7dq1ZYCSDoMNHsL6bJ3n4UYumc5NN5iZDvIZbjXSWYJUEdIaJqVhoEVJvSYdQbLQadm1c4fM/WyW3H1PK/ls7mfONqLkBZPU8tISVGMDJ+KKaehgBtEBRpyVyeDKjWvwWA6O23IfLGc0Ts1bsJR4L66tU0/GvDbmR+H2gb6X/YFPfmNOXP2TZDk5DwGUsrlrXP0gbsbtiZ2Fm9HdD0JO6UxUowzv+RLEiU1U8wbZBqSKHT8opGPMTAfL3HNBcSSVcAOtZSpGUsqyM8P7QsuKM6hTbGtWAVRGfhNJQojZtE7f0T6Ch5BWmdnULhecM13m3qX60TIO6h5xcA2biuM9GFBPTC8ZH5Lm3rQ1Nb1izB9uHh4e+YPpoAEdrOm6aOVxRMh0uOBtyY6HR3UGDcrBkGm+PTHYQMHDw+OXwfQol0yjlxgINH2PPQN+bb/00kulX79+7pk4cAsP8Hk+/DoaxF8RmYaWBrOJ+FETEgVXlc5dy+lr9mIIQgf0F5IX1zxFlOBllGRHIkXy/nvvSOPGN8mUKSwlTkvMze6mpDQWUzJIKAxfUPMDBNuSKVlzdtl2DgKm90iz1+wVA+PgbmjvNCyDEU0/rcQ0Ho9IKpGUWFFM+nTrJR/NmKpRqh/z7xinXhFe7fhBwf0jXXZVS/F+lCqrLEjIxuBlKSWL6bizh5vygwIkMqGyE00gJWd4K/l18pCeDhDJG3kiWv2TUjf3DpzIEFUth1RwDnOQbWLU8iI+94wsWm80bDA/jIMGdrKoDZ40/jJNl6PKXLIZzvLWcsjalWm9yzCDr35TZLp8EzDeWZFLG+6vQfWqdVn9Ix9eKdagdJBAw/GjhXPk5xYz5JsfRPjcjtqDjGrId1a+veA+KK2sJzWHHpR5WN8MpnsY3oPvLz088g/0kNUhhvB9TQTtEMgrmWYHuA0bNpTv4E3cNJgeHtUdlSXTLPNG8YxMY+8HBx4ehwamR0am2acDO/TSDM9hgmzLvNkwC9iA3fyg4+b38CLonGfMmJ5DpgMXlcA9ay7VYBMYiDL0iDvngz9mHLAPSBQUhe+n05oXnDlzOulmWR0tU5ORqJLsqOadDcuCyVr+QOS0z1bi6Eigew7aLTOBv5BcLmwI5XHhbo4qd5ol5KWSiCpJZ1igzhDLWKpY74knkBwCyQ7TkE2lmqTg3pMkNS7IpT5zC4V0JZKxJcoajdqTY8glhJqwgSTcqZ8sEyVmjBOectInl1uVIUhbY4aUKtGF5FKqkFWIvxtakpALF8gTpK7QcEHZ2biH1BNu1jpDvJmY+o27cLgwxVym/glB2nvJdECA8YSIwVtR+bTgINKIQ13lbHBXZqRHoWLUg8uvC4t0pWoipBCIh3H2lIE+7AOeMU66Qw7rA8Nm165dsnr1aqd/PJteenh45B/oHj9Gr1271u1jgE7WZFhblFcy/e6778pNN93kziYz2CDFw6M642DINHq2efNm9wxy/Xp4eBwcTI/CZBqEiXEusEeHn3766axNxTj8Ohp0zhWSaU26nJg5QoPfwEB8oE3cOQn5Y8YBl4AkQQRjWgaUAsu+EynKJSElkT1aNlGJJyOSUCLHUnDIdDyRTVXDOerGrGxA3/QZArTXBPJYorRptIVmp8aVHyaQNPCZJZKpUklpWrFSlVGDRDMlShAh00lNKaWkEuKq8SlxZUOsOFfiSKlcCWZxs0RaDTPLOuxTV6WiFBwJOUOaEEXoMaGzErsbjcexUfJHPtVSHQkeUGB90HLJkK7mCZLOUmpKHU/UDRcj/9VQWi4Nl3+sg3eArTqr4S9kX11U9nRZVP0yQ+7+qzcIc9S9B2bZg/InBWSHHGNnNmwqByFWC7UvKS6V77dvlYS+K/eeiJel51qWe8k0chSrKVGjec7GF0gOcQ/k3hfOw2GBDUy5hnX49ttvd99MA7NHhz2p9vDIH0zf6E9vuOEGt8IS1GQ9tLznlUy//PLLbjdvfs0ARji4enhUZxwMmeZoLFZqGCry7+HhUXmYDuUu84ZM2yAc3XvjjTdcv/Taa6+5I3j+8pe/yPXXX+/Otn3llVdk9OjR7kjHSZMmOT+EMd0+fAg65wMn00awgjlI6JGTjj/mxQEXSGQw48gO3SzhTiiJi8UTkkzHJZ5SMpuGTJfqc1JiymijSm4T5d/QamQQuiyZdoSTtB1hDkwoQVdO+9oT3oQKSCgxIHEyWaJkuli5qpLpeJnbjTpaVqJy7FHvLHxOCfO2kGoIZzIdk1Ilh44a8l00G25pmOAMbc1hGUS6VF3jeq8pIIIrE1IjVdyRwf08EIjFjtVu9pe8kU8c1KgnlmpDYSUN+Q3IvnsnrtTVLxG5Zw2gV+IL4iVOHIM35dy5Om+BHI6IQ6aZJYb0kjQRlHHAV4nzhbHyh0jzMwLpEJY3z3w238CXIVgiIzu2bpdlq1dKRMtIXdSjEnNHzrM/IhB9OZnG5JJp5ti55hfkO0yUn3vuOTdI5WgsYBuQ4X549dDDw6MibNu2TY4//ngZMWJE1qbm4oiQaQYjbKfOiwC+QfQ4WnAwZPp3v/td+UA57Dfs38PDo/IwHcol0+gpugkYCPzTP/2TnH/++XLBBRdIrVq15OKLL3ZLvXnGHoM9cfzzP/+zjB071oU9vDoadM77JdPlSeuNYz/kB4KsbY6G1RYEF+fsDF6cBW5GgJVAKwEtjkQlkcq4Weq4ktOYEtpkCkKnRDqZcDtwk2ZCCTXLq/eSaQhtQMpdvFnCHCbTe9uzHDfKjmeVBVqING5mV8leKlkoSTY700foX1zJZbpMiR5EX2WKqu+k/ss4Mh2VYiXZ5MiR6SS0WsMgrxYWG4RllIjyLXTw/XGQPAjKKiDTSOXmYMko31cr+QxmfjWAkzW4sAgewlqmaRqZxp48hMm0qxsal4uOtEhY/WPPMynz330nrTakFYQlnhKNX58Jou5lZWyctpdM2w8ahKP0giIlN/r+9G+CctW0sNu1faes27hJXUiXHEbVHkN54I+w1InszDTvEztNIkgtS6bd84EgWwD7mMqB8SA6SlmZnnL8DmNSPhPEnR/EINQ2iPXw8MgPXNumoD89/fTT3Q/QoCbrouU9r2SaOBncsGsqDSYI/wLp4VFdUVkyzfIYftnLXebt4eHxy2G6lEum6WtskD5kyBA599xzXSeIOyumWEpaUFDgPkXiLE2eGcQvX77cEetx48a5sBWBNC1u7k2G8P2BIfD746Oxsu2JezLwhKEPtfv9ATfkw+yNh+912anbEXElWRnHOiGD5Ae7wF95gH3S2p8JoyI3rgGFttggcGkl9G62VC2wZ0bVkU2VCdIKESUU9BE5k05ezQtjCCcrLmqwgzBq2MBGYUk7BLGHZXDubiwS2OeWdOCCnf7Nygi4uNvym71XF697CO74G9wFIDdBekEAfmBwDFmtg/QhwRD7rA/+kDf95+LJOvBE+bBDekbrYDqZkkhpqZSo4Ti08nSIGxMEUsMfSDPpZO0csv73WhwAXIQ5pnIor+NqbJf9lStXupUh7LUDkcaN/ramb3zk4ZFvuPZV2xOOO2T11ooVK8rtaiqOCJk2kLgZXoIRaw+P6oqDIdMM8u1oLHA4dM3DoybCdCmXTGNvnR/LR5l1PhBAqs866yy39PunEB7kcyW9g9Xrisi0Rw60SKyMw6YmgnzT71jfQz3X0qhW5WF5sKvpKrBnM+hadcqbh0d1h+ldWC/NrqbCyuKIkGl+cUQAfmnkGn4xHh7VEQdDphkoh8m01wMPj0MD07OfI9MXXnhh+QzYT4FPkw6ETDNzZvFxpR3A7mDgybRHZUF9w4CioqJ9NnutDjD95IqxvADubdBubr7P9PDIL9A96+Po22q6Hlre80qmWUa3ePHi8gaRa03+RcPj6MHBkOkTTjihnExjb4MIDw+PXwbTo58j03wbfajINHHzAzG6z5VnDM8HA0+mPSoD6gf9kNVv6ixLpKsTrI7bIJ1njo+cN2+e01MbL2Lv+0sPj/wirJ8LFy50bYzpYk2F5T2vZJrvXq666irZsmVL+QCDxtE3iB7VHZUl07lHY4X9hv17eHhUHqZD+ZyZtrjR/WiUI45+mT57Mu1RGeTWN775X7ZsWbWqN8iKDqGTJvf48eOlYcOG7rxpQF8b7l89PDzyA9M32pbatWs73QQ1WQ+PCJnmiBGOHrGBDQ0ixm8k4VHdcTBkmmPi1q9f757NPte/h4dH5WE6lO9l3pDoVatWuXTo12gXMAcDT6Y9Dgb0PYDv/JnVrU71BtnDqzrAM8884wapRqbRX3OvTnnz8KjusL6T/vDkk08uPxrL7GsijgiZ5liRU0891b0IwCCDAYc1/h4e1RUHQ6b//Oc/y6ZNm9xzrj8PD4+Dh+nSLyXTFg+/xJ999tnuTGpgcYR1du7cuXLzzTdLnz59nD1L4TAH+2MxZPqkk06StWvXuueaPGDx+HlQ56x+c6UPqm5jK/pRW+JtsnP8Drvub9++3T2HybbXCQ+P/AGdA/SH6OTIkSPds9nXRFgblFcyzZLWjz/+uHwJHIMYT6Y9jgYcDJlG8fjkAWDvBwYeHocGpme/lEzbrDI/AEOmbWba+iz6L/rMpk2byr/927/Jr371K7nzzjudG2kZKeC+MgZ8+umn7izP1atXu2eTxcNjf6DuWP02YlqdgOzIzNXGhoxFp0yZ4o5UxY18mfHw8MgfrH+Cw/FjL31TuM+qibD2Nq9kGlh8NJK+QfQ4WkA9ruwGZCyTYRmeIdevh4fHwcH06JeQafyix/hHT8877zwZM2ZM1jUguy1atJB/+Id/cCTazP333+/cCcvg/2AJzaxZs5zsRqaRw7cPHj8F6oiNqTgfnRmk6gTqt+lo7vgQfUJXzZ1nDw+P/MJOYTIc7MqrowVWFnkl0xaXLdOhoaRxDL8YD4/qiIMh0wyUc8+ZDvv18PA4OJge/RyZ/qndvI0Mc92wYYOcccYZ8uqrr7o+smXLlvIv//Iv5QT67/7u7+Tv//7v3X27du2yMfwyzJ49281M247MJouHR0WgXpsBrKZYunSpu68uoB+ljlse7Blgh/5ih/F9pYdHfoHO0Q9Zn4lOooumrzURlve8kmmIAwmVlJS4eHkhfoDgcTSABqWyZPrEE090CmioyL+Hh0flYTr0S5d5FxYWul/e2QTs4osvdpuQ/eY3vykn0RDo//W//pf87//9v53B7g9/+IPUr1/fnVyBufrqq6VevXrlzwdi6tat6+Rm9Yr1xTV90OLx0wj3OYBvjFesWFGt6gyyIj91nbEh9xs3bnSrQLAD2JFXrw8eHvmFtS+lpaXuuDr2/EEHa7IeWt7zSqbZzZulcrYrIw0ia+99g+hR3VFZMs030+xsz4yXoSL/HvuHKyv+aXHtLbusYwUo9+PC7DUHAxfO4tB/3DvjUSVg7/WXkmmINP4ZNPDNdJs2bdys9K9//etyQv0//+f/lP/zf/6P/I//8T/c8znnnCOdO3eW7t27uyttAvddu3Y9YEM4ruPGjXOEPiy3h0dFsDqC4T4Sibil3tWp3iA3fSc6yQpG8NJLL8mll17q8gKMZHP1OuHhkT+gd4Af6i655JKfPd2iJsDaoLyTaXYwtt28aSztF8ajD5Rb2BwoDkV5Ewcv2MyByhH2FzYeP4eDIdPMYIWPvTFTswYIFdUz7ikDLUP9l6Jc9DmTjkkyUep8ZNJq1Esqk1T3tGQ0SJk+Z9IsC0zovV7jSfVAWJG4xoE/ydDmlOh9RsPynlguqIOysrj6U+Kk9pk0kWVnAjVsMpWUtBrRtJIabyLFplIZSWfi6h7V+4iUaRiXvvpnnY0OZzWOvStukCEAeYK84VPtcSjjm6OoGtpBjVd9pDUd5Emloi5evDmXvRHhK2sAaanBg4szqEvl9llfNQWmZ7+UTBtYVcWScPowwOYrrVq12odUG5k+VMu8c2Htg4fH/kDdDpvqBtpcJlgAfSgYPny4nHDCCVJUVFSuvxhz9/DwyA+sTYHDHX/88TJkyBD3XJNhZZJXMv3mm2+6X/dt0yVrFPmF8egCZUYBh81e4JprAnC3r9+DA3EwMDdjA+ofx20DtOA9m6y5Zq+EYN8wHuBgyDQ/LLGELYxc/0cd9skaD8yiUFbBbArtAc9BvVUyqaQypqw3mYFYFkoyXiDxEiWwcWYwyiSSiEg0WSrKbyWd0PBKpJNpVrskHJkui5RJLFkmxRpvXMmwlBVKJrVDEsrGY1q1k8m4I8PJdKGmFZDsZCItqUhCEvGYFBQXqVtKUtFiKUuWSEQJdFQTSyZTEk+rW2aHpJO7JRVLSzyq4VRq5lOU3mvWIOf8DKC3mtWAFEPAVQaBwKs9WS3jB4Ldeo2pu8atruQ7U1aisuyRlHK9pKYZU8Kf1kBUD2LNUD5lSvQpR706Q8NOgkr2My5yawOwpLz3Xo5mmA4dKjLN4OHMM89030wb0HG+a77tttvkH//xH8tJ9X333Zf1weuonqTGo/rB+g6r+4yrqtvmQMiOXtGfWj44UpUfsnbu3OmejUS7Hzu9bnl45A2mb8xMo5O2IWdN1kPLe17JNMu7WWcf3oAMQY6+F0GZkaew+THwZSaAhfulsDTDA2kz+4L3YGZff2GzV0KwbxgPUFkybd9M29FYAD046st0n+zxwKBp/2TazQRrFUyX6X1SSaiaRGlUUjpGjMfVLR1Xsq3kWaNKKwlOJqJSXLpH4rEStdCAypNKleSWqIeEI5sFSqa3S6kSqIiS75Qy1Vi8UCUpVXJcKKX6nEypfZS9HFKya0+BEnWVKRaRjPqLZGIS03fL7Ek0XSzJsp2SSu5S4k7aGs5JrUmjNyozZDoY+hmYAS9SE8x6Q7CV8eufQudfa4vmVWVNxdQUOLnIaxSyniXnVBFihUyny4gHC005S6aDOhcuR2sD9in8oxqmR4eSTPO9tJHpcBhIC990NmnSxO3sfe+99zp72oCjs3/zqIoI9H5v/S4oKHDHkVYnWL+JTtGngvXr15ePG+24LNMr03MPD4/DD3QO/aP/W7hwoesXTRdrKizveSXTligvwxrNo3Nbdcos1+SCYTP/wq7781tZUM4YBtMYew7KPxe8h+A9427XsNlXJvMfhPEAB0Om2anXdvPGvkb80r5PlSGvlFPFZNotu1Z3ZqZZzp2I71bCrKQzi3iMWeuoxJMRSSjZTESCb+zSSjrLIJcQnpgOzJQcl2j8SseVSO9WHwXOXwTyreQ5kSxRUhpRklzqiHBCg6aTKkP2XUXiOoBTkp5JFktE02LZeSwWl6IsCTfoKy+nrpoT/RPMGpObvYAwl6rhRwT1wq8Abok38QTv3s3GJ0r0DnvNV0xlN+5GGDWUi5vd5urKjvRwID4zxBeUcWCC+GsCTM9+jkz/1G7eYRiZtm/EiAN9DesscaPX06dPL38G1hZ4eBxOWN2mvgH6lsWLF7v76oKg/Q9mp80Y2PTInhk3Hn0rGj08qjbC+ml9mj3XVFj/n1cybQVOI2imJrwEStBMAO54AZhDV757EY4/1xwIcsMcDhmPLhwMmT711FP3IdPhBuqoxT7Zo26RZ0zFZJqZ15j7PplNZ6ISLd0hLwwfJTM++kTLXIl2MqqmVCKlcSndXSAjhw+ReQvnOXttYJSPBqQ1pvElyiBNxbLo86myctUqR4rLiFfTiWeUJOu/lRs3y/RP5jkyvfirRfLMc0NlR8EefY5JJh2RSCoi0XhU0hAplW3ewjnSpvXt8tZrr7usuVlpbjKaJyW7Sc1X8Kx/3Cyy5snNTpN3BXl130xDsrPaxg8BKsvSZV/KF19+rvWiTL7fvE0GPNFfdmsegSPP6gfCzvfhbjk5SZAnV37Z+MtjJc6jv601mB4drplp01X03jYpM/BsPxLXiB/IPKoEAt3fW7937Ngha9eudffVCciPQccw6BBX0yvLn+XXw8MjfwivEEH/bKVxTYW1R3kl08QJiWCJJPEyiLHBSPWGDVj3lhV39mT32vTrX/xVZKoawrJaTjz2h8qSab6ZPu6448r3Dwj7OaqxTzapW5QTpmIyndErpNfNNosS2ZLtUveyOvJ4nyHqj1njInWLSDqhpCUSkdXLFsqmrd9KIv3jNiXlSGtGut7fQkaNfNHZQaYzah9Xog6eGvmCPNZngLufNuUjOefs8ySS3Fc/k0qs06m4bFGC1eyO26VLlw5y2y03ybQZM3+Srpax+ZkS7P0B0u0mll0sGen46AMy7IWRWEjJ7lJZs3z1T7aViKklqSGDvw7EVx5nIJ17PMph+nSoybTNTBMPxgb63PNueMbwQzHp2A/GJo+Hx+GC1UmrawxyOYa0OgFdQX/QHTvpZfXq1TJ58mSXFxvEm555vfLwyB/QN/SOVSLvvvuurFy50ukjpqbCxhN5JdPshHrRRRe5RAEvpSq/CAoJ2ayw7IodxZLBjY1+0gyQ+c6HzYxYdhmUGb7dADl7r91c9q4i82NYxeWKsXJCDrPj3uQ09zD2lTmQy+IKZreCOEhnXxB/4G7XypkANvgPy2vPwOSv7qD8KkumjznmmPINyCiDivwfddgna7x3yimoi+Q7KAfqcUCmtaZKPJGUFGQ6XSLpZJHcfN0t8tSAYS6GNLtwl8XUu8ZRWijLF30uG7cGP1CsX7VKxo5+SV544QX5Yv5napORpV/NllpnnChNm9wmS5evVIKr4ZTgEv+CpQul9rXXST01X3w+Xz6eOkOurnu1zFu4WF4c/YKMHz9WCov2BLPZKuPOolIZPnqUvPzyKHl9zGjZtXuPo6sF23fIiiWL5JuN6+W1t96UsWNfka0b+XYxqOfRZEpJ3kQZ/eJIWfL157J4yWL59vsdrq0IiiclS5d8Lmefe4bc0KSxfPn1EonsjsryL5e5GfGNm76Vtau/kaWLF8vLGsfbb46XSIwl5TqA1vaIHw2SaS2XsNo6V4zWLx6PcpgOHS4yDcI6bnFihwGm09aGe3gcblhdNFPdgO4wZiAfpkcjR450R6ryDTjgyC9zNz8eHh6HH9aPbd26VWrVqiXPP/+8e/4xf6g5sHY2r2SagQibLjEwAfZL/qFM41DBGmvkY3bBrhyJE4sFS40SibjaxXQwFlX3hEQjJXpl2eheUMWg2lADHVrpXUAWAsLASzCjaXKn6ZJWRWlzDd/zy7P9eosd5ck99mG/gCtu5CuTwY2yT6jfqPPPgNKuhLOOijDBrsBhWQ/EBGWIfMRnvyib7LhhV5XrQGVAHipLpv/4xz+WH41lCMo7KL+jEvu8ZvIZ6IKR6cBQ39CYgEy75ctOi2JKqEvlRiXTg58KGvFgV+yIetC4infLNXVqyeg3Xpcly5ZJ05tvlo4PtZdOnR6RK2tfItNmfiCzpr4pZ55wrNS/+jqZMedzjUH1QcmnlrpMnz1DTq91sZxx7oXy7tvvyeczZsspx58sDz36mDzyyCNyS5MbpL3GV1K4W0pLCtW+p1zfpKl07vyY3HpDQ+ndp49EEylZ/MUX8pff/lbaa7hu/R6Xa+pfI00bXCt7dm2X3QW75c572kuL5q00zk5yR/Mb5T//83cy+cO5QX7cu0/K7FmT5fQzTpNLateVKdNnyeaV38qVp9WSH7Zuk6efeUb+6y//Jc8OGiKdNY7TTvib9Ov/nJTEtZS0fUqkYxJLlLLSPDidy5W5lWnQCh3tMD07nGTaw6OqwfoPjPXppgvVAchtfSdXgJ6ecsop7mgsgB/c6XO59/DwyA9M3/iEhNMthg0LJjVqsh5a3vNKpidMmCDnn3/+Pkdj0WDSKFZFIJ8NvpCTZUbRKJ1TQE5TSSWIqbjbnCgZ59fSgHzu3r1btmzdKqu+WS8R/GlcYTJdvvOucykf7TpApokbEya3XJEBwxILs4OMki7PuEFKCMs9smSUiSAzPwIgN/nBTzqdlIiSf34ISGo+IL3Ea3Ea+TX/Tu4DNnuXPBLeZOceO/LFM+VpsuJWnUG+Kkum0TPbbTXsN+z/qMM+WaOuUE6YvbpWIZl2+hIm0yOIQF35AalEo1L3oh1yS8PaMu7dd2Xw8BHS+MabNGAwIPt283pZuWaZ3iXk4TuayiuvveXsk+mElEb26DVY5t1z8BDpOehZdz/r3Q/l3FPOlrkLvnbPXy35Umpp+7X5m6UyZbK2ZZfVk10FwYZoG9cskRNOPkmmzporm1atkmP+7d/lzcnvO7fSghKpfca58tUXM2XcG+PllNNqS0lxsFnae++Mlt/8f7+VSe9/4VqDBDqTLNa7MmnT5i559uXXnL9vl2+ShudeLt9//60MfX6onH7yGfLD5q3Obcq7r8tZ59aRzTvYYq1MYpmolqzqX1LLk2KjmF07g2vQCh3tMB3yZNqjpiDc5wCOkmIch311AbrpxlbaDgZ9QZk7Gqtu3bpuAG95Y3zBmMXDwyN/sPYFDsdqEfpDs6upsPFEXsk0y3PYEIMrDTyNpjWeVQ3kGxkxNNo8BzPRzOqmlRDGJRZVAs0Sb3YEjkXcubTgpZfHyHHH/bfcfsfd8u227W4seyBk2rlqOpBMiC1lw9XujeRyj1z2DBFh9jjBclhHYOlY6Yi4QmAh22xnH3RQHPkTjbIzJoQ9om5JN6AsLeXHgmAmGX9cMVnJKmECMg1pNnlN4XjXGNLhanmo7qCcKrsB2QknnLDPN9OU01GPvUWhIL8HQqYpQ/RFn1NKphs1LifTGc6+yij55Bvpwq1ya6MrZfyUqfL5wiVyxaWXyWmnniivjxsr8z+f4/yz2Ve7po3lyaeHS4nKEte6n0yWqimWhBL1B3p0l059+zuvn7wzVa69ooGUqgog0cp1q+SiCy6UOdPelsf7dpZHuvd39uk0eh+T21o0l0HPvSirvpgv19e9SpZt+M5peNGOQmlc+2p5f9Kr0vreB6RL10FqqyjbI4W7V8mll18tU2Ysl4jKE0tqHpN7NE+7pXWbe6TXkJEujS3LNsi1p18uW7dskmeGPSf33tlOMhyUnYnJoi9myIWXXCert5RKVMsxVhbVfEUkGdeQ5WQaSQIyTXz7vIajEKZnP0emD3Y3bw+PqoZwnwNYislu3vZcHcCYwH5sN7nR3eXLl5e7ob+YYOxztLdkHh5VB+gbesf4nWNdCwsLnV7WZD208UReyXRAzHTAmG0QiXsvYataCDfmVoEgm1ScbNkph9ZBmPOjQ3632y+DMoarInPmfiEFJewQzDA7NCfELC/EwBlc9w5t+Zu2yBXhzoJ0MdhRduFfZeOcgcuOvmoPaTakktrp8CGmIpGAQAfLv+NK+iEsiQTPpEGYvekSj6VHOge7zNvkJz6T2xDuMMP5rK44GDJ98sknl+/mDXL9HpXYJ3vUB8oJs38yHZRLLpkONuZKo12ZIr3Ra+H30uSay2To2HHOrWDHLnm0U0e599428uc//FYeH9BPbRNyz403yEvjJgqnO0eMTCf4Hi8mHfv2lvY9exNc5kz6QK69rJ4UxJJQdlm4comcecrpMnfGOzLgyS7yYOd+TreRlaOt2tx3r/QdOEzWzP9Kbql/jSxav8XlsGDrLmmqpPyNl5+XO+5sK50eDWa+y1LbZPfOJVL3qhtkwuRFUqhZjKv+pqM71HW33Hn3ndJzyIuuhdiwYI3cfOZVsmPb9/L8yBHSunkbiRdp6qkSmT/rPTnt7Ktl3vIfXHrRjOaH3ckTWpYJLXCndsRCeabc3VFey1ydAZ5Me9QkULdtPLVr167yPTmqC8LyM/5g4gXQn9q4EXv8cG+67OHhcfiBHoZ1lHvs7LkmwtqgvJJpYAVPI8kVc6jTOBRgefTMmR87crR9+3bXgCM7hHTp0uXySMeOUlxYKF989qkMeKKvJKMlkkkxc52UocOHy003N5GZc+ZKUvPGUC2gBdBpLXglBmWZhF6pgPsObZmF+/DDD2XBggXuJbFp29ChQ10ZueN4ksFOepTbqzqwwzDTDJkOlmOL7NlTKO+8/b5s3vSdi3rkiBdl/OtvaGfEZk3Ek5TCwgLNCzPewSz1iBHDpX79evLRRx+5dMkH6XAN4t1rAvITEKCwfdidsiItwpMfdv3j+dVxr8ro0aOd/FamVhmrM8hPZck0R2PZzDTI9XtUYp/s8d731iXyTl34KTKdSZfKDdc1lqHPvUwEWWTrT+F30uzaK+SFCZOkgB+Oonsb+FHDnpW//vd/ye5tW6T1zTfJ82MmuJOdY5oWs9KREpZMJ6Xz433l0cefcGE+f2+a3Fi7gewojsiedEIWrloiZ5x4qsyb+Y5MmjhKLqjdSIoQS1FSsFlqXXKRjH7tHflm/kK56sJLZcmGb512F20rkFsuVt16+3XpP2CIXNeoU7AwRdNb9NU7ctJJ58mUj7+RQhWXM63LEkqm0z9I02bNZODoN/Eom79eJzedXke+37JRnhr8lLS+vbWkY8QeVzI9Wc46r5F8vWaPO3SrKFEg6bKYJGLaLrDoA2/uD64Bma7+GvfTMD3yy7w9ahLC9Zt6Hf7RvaoD2cMTLYwP+KHdxoy4Ybgnb6bjHh4e+YHpKDoJTBftuSbC2tu8kmmOOBgzZowjaQjACzBTJUBWXXYpnIySvhFywQWXSEFBqTbqEFYd2qusb096S0464UTZ9v0m7ayKdKC2Tcsp48j00q8XSqdHOsmLL4+VDl26y4qNm5QCVAxLzhUxH4bqUzReKnfc1ULmzJmlzyI9u/eUxk2auXtDXAfciWSp7Ny9U3YV7JEUS7w5rsfNkIl89+0Wua1ZC1m9KniHzW+7U3r17OPuDdF4RBJKwnm/U6dOlQ4Pt5fRL70kd7duIxvWbSqvID+GEps08+wVD0DVVbOipN/NZiNrVJq3ai4fzZjmngt2F8rOnbvVT8XxQ6H4AYIfFfYifF81cTBkmk1VfopM8w7sPYTtjx6QJwZOZoxMk2dXE9QE7UPGffyrNTwZkbp1GmidvlumT58hMz7+UD766F35euE8ie/aIg3rXCRj3npHXp/4rupAc3nv/ffU33R5+KH7pcMjHSSpg7PHHnxQbmraSr5YtlxiWpdZpp1Wkl5WlpCnRw6XKxpcI0uXLpUP33hbLjnrAvmhoEhTLpOvli2SP/7n7+SLOVPl++/XSt0GN0nnXk86OXo89qDcqCR9++5iWTJ7jlxxfi1ZsjaYFSrYtksuO+1cmfDqi7JqzTq5/LJmMnjAUA33oTzQ7jb553/+vcz7eovTqBRHdSV2a9FEpEv3blLnulvlq6XLZNPS9XLp386V77/dLE89PUhub9xckhHKJCOfzZwi/33ihTJ/aRBHAiKt5RSLMmvvvCjQx2B9DHcVa9/RA9MXT6Y9agqo22bsubqBtp6+lB8BINJgyZIlTu8g17hh0GHrYz08PPID9A3d41PUV199VRYtWlSuizUVNp7IK5mm8NnN2wY2wSA5GEQfKTC4DIyC+uDqBIOrAiXTg6V2nRulONhEMosy+WzWFPfx/fffrdQCXCrvTPtYShyPLZOVX8+XwU/2lwEDn5Kxb02SrSWlbjnpnK8WyKLFX8rUd8ZL3z49ZPyE8W5mrERJNBsFxUsiGjoiz40aIKeeeZLcfXcL+XbTJh10D5Y7735AJr4zRXr36ycvjh0nBUVFKnFC5n41V2bP/9qR4mQm7gbRxUUF0r1LZ/fNdudHu0nBrkK5964HpG+//vLKuFf02ksmqAwJF0OA9Ws3yYAnn5QnBw6Ut9//QAp2FEtGO6xPP5spX65cIW9/8KH07d1XXnvhRR2pa2fHIJ1ZtUWzpXeP7jJowECZN3+BfPjxbCkuLZF4MipxfacsJx/94nA54YwT5JY7bpflK1fLooXLZcFXi6RUCczMT6fLitVLZNy4MdKvb1/5cNo0V/IlSqaifOedCMg+w39IlT5QxFUSlSXTtpv3Jn3HwPQgbGxgARhY2H3NAOUUlBWDKDbJ4/t+iM8zzzwnd9xxh7RseYfceWcradGipdbf/lK4e5eMGjFc5n25wJUfZKlFixbSrFkz6d27l8SypIkjpVre0UqGjRgpMfeJAY1h0BmsWbtW427lwi5auFCe0rodiwefKGz7YZt069ZVVq9a7vxu+2GHdHj4Ebntttuke7cuKh8aLbJuzSqtz73lu61bNRyrcIqk/+N9ZO7c2c5969Yd8nD7jir7XTJs2FBp0lh1Y8XeXd35/ALwneBdd7WWocNGyA/fb5enBwyR3bv2yPQZM2XMyzq4jAd7TqxZvUp69Owt32zY5OpIMrV30BmqeVljf49u8P6BJ9MeNQVW553e631xcbFb6m321QHoJvJzpd0HL774otNh8kNeqsK40cOjJsJ0js0AzzjjDHfsKPBkOs9k+rXXXpO//vWvbmACrFE8ki9iHzJdPqZmMLtdxr4yWC669Fr5bkuRREuj2piX6MB4j0z74E05//wLZcf2tfLmxGFy9mV1JK48Z+3a1dKkUQN5qG0bGTx4sNS/6RYZ8dobbr74znb3yTnnnCavjn5GBg3qL6eddbo889IYiSuZ3l0YkSTLm6RERmqap511gtxzT0v5Tl/OiKGj5Jg//Zd07T1Yww2S2vWvkf4DBqi8cWnRtpXc1S4gbzp0VpuElBTvkSf69JSTTjpJiV0v2bO7SB5+4FF9ycdLP02XOC6/+koZ+vKLLs+Lli6Xxjc3U+LdUWUeKFdfc5W8MDz4HrVFk1vktPPOl2dGjZInBzwhp59wnLz24hjn9ubEN6Revcvl8T59ZcDj/TS9U+WyK6/VMiqVtBKIGBIqmR437kU5/qzjpcW9d8uq1d/IA+0ekfsfaC+psrTUv66eXHN9fXnppZHSs1t3OfnUU2XSjGmuvCJKphMxiE5AprWLVVt9QQh96KrkIQMDgMqS6d///vflR2OZPxtEmD+e+STCfpWvabAyYUO94Pv9oOGqCNkiU1D3fkyQKmprmKmmXNHt/ZUvewawtMmWTBIH76Oidosl6qzGcPeqB4mkyhys6XaYPPldGTr0ueyTyNgxr0nbNvc7khxsbMiqkx/HzUaCQKPcB8Gyx71+kZGwGJvZqYkw/fFk2qOmgLptBrAB2YoVK36yzaxqMNm5Wvv17LPPunEjp6Rg79s3D48jC1ZUsuePkWnT25oIa1/zSqbfe+89ufrqq92mGAhA3JgjSRICIp3tbBiTunFpXAfA2+SDD1+Vf/3NH+Wqq26WaxveIDffcpNcc3V9Of+8s+XMM8+SnTs2yAcfvCKX1rte4jrYv6tVC2l7R3MicPjkq6/k7CuvkuWbNkv7Lh3ltuY3qm0w0H7iqcfl6lubSqkmndKw8WhM0mUR2R35TprdeaPMXxCcO/vk44Pl4kuukiJ25lW8/f4Uuebaq2V30bfSvtMj0qnr01qGLO1MSyTDjwAZ+WbtSmmsRPjbzcHmVu3aPiQ3Nb7V3YP+Q56Wlkru48m43N/hIXnwoQ5ZF5Fp0ydILSX6u9ZvlLaNm0vre9RftnwGDX5CGmk5JFIZuarBLTLk2WBHZdCmdVu57IoblPgxME1JxM32sYP7brnututkRnY35YcffEwJZzf1kZEbbr1euvUOyCe499575b7Oj7jZaWa2IyVsDMV3sxn9Rx2hDDSzVVBvD4ZM//nPf3afPhjCJBrg1qZNG2nSpIls2LAha1uzQHkYCQ7f86kIgymzp/wx5m4/PjCbAcwdN/NnfojH3C1O3MPPdg/xCofFLSCwtGeEwT/vEftgx3zsOMuao+g2bFjnZsobNGjg2sI2rdu5vQ3SqlPER9zx+N64yRtxp5Iqk1Z/1Cqlfq0sjNTjH2NlgRumpoJyAH4DMo+aAuq16T6gzi5bxnGA1QvoaNiMHz9ebrzxRkemAe0dhvbYw8MjfzCdZEXl9ddf73TT7GsqrL3NK5lmho1fS2kEiRchTJAjBXJXnkO4morDrC+76b762rNy/iVXyjfrvneD8uKSPVJUuF3ef2e8nH32ebLjh03y4dQJUrdRM/l2Z1yuuPRyaXFrE3l+2DB5dtiz0qNvH/nzqafIxOnT5NHenWXg4J4aL5solcjzLz0vDZrd5o7niTGtrekqBZBvtq+WaxrXk8nvT0Ii6f+4Et87Hgg4vuLDGR/K5VdcJDsLNknXHn3kgfaDRMfWSj5TUpJiQXlavvh8lpLpm2TZ8mA5arvWD8jgZ4Y6Aguee+FlJbgtZeuu7+S6WxrJy6+OVVtS2KX5Wy3X1q0ly+fMlUdb3Cv9e/V3oWJSKi+OGanxtpDFy7fLORfeIPO+NCKY1rIaJ1fWaSp79kBe4uo/SOuHrRvlumaNZNKHwZm7Hdt3UcLZXWJKLlq1bSmvvP6Sswddu3aTZm3vUbeMJDJlkmQzJr1XeqTm6CLTfDPNJw8cL2CDAwMkulOnTu7orIYNG8rEiRPLyVtNBG2EtRe2AQ3lRXti5BZCSxnhz8rT7sOEGD8Ys+OeOPDLPfFjsOPZ/GCAxYsfrsRJXFxNvmSSs+EDUs0ybzYIZIk6BhBXQcEe1ZUiKSnhW23sOHedDf+CeCxONg1kvwbcSRtinXB+gpkb4jL/VhaWH5O1JsLy7cm0R02CtY0A8skArzoh3GbRttGuMfain7Q21oDf8LOHh8fhBbppeug4kZpgXLJ3/FrTYG1QXsm0gUaSeDE2GDzScLmkPuggNSDTe+TlMYPl0rp1paAw+IZRuyo1Mfn80+ly8SWXyJ6dW2XKO29I/RtayHe7UnLFZXWlZfPm0qdnd+nRq5v0eqKfPPfSi7L+++/ksT6dpVffhyWTKlQyHZXnRj4rV954vRToQDkSVaLENRWVDTuVfN7WUCZPfcel2L/fELmj1YPCCTdg8gdvS506F8m3W5bLI517SPuOz2k5QqaVUGSQOyPz5s+WhtfVl2Urg1+l27V9QHr2e9zdg6eeHyUNmzSTktgeqXftVTJ2PEcJkfk9UrBzpTRqcIksnj5T+t79kDwzYIgUKUnX4bwMH/G8NLy2sSxe8YOcW+s6WbzUOuqEjHltrNRr0EqVi5n3qBQroQBbt6yTpnc2kXemT3XPnR7uKg891MGVd/O7bpOXXhnl7EH79h2kebu2Uqh5YRMyMlam7+NoJ9MGdjx/+OGH3S7fzFpOmhT8oAKID12piSDf1mBTflyNOFLudm8nBODOlWfAgMzIKXbEYaTc3g/hLR2IOXHibm0VCD/j3+LFYMcV98DwnTXyQvRZpg8557vv7BLwbJycDc+nETxClEtLg2XbxGWyQKjZdJB4mZHnOZgJD+QwWYzgA/xa/moiLN9+mbdHTQF1mzYDA6wdrE4I54F75EdfuUdPw/rLvYeHR/5humd6WpN10dqjvJNpBofhBtKuhv3dH264lCiTcjIdkbGvPCeX1Llcdu0plrK0ylqGfUI+mTVVzrvwAtnx/bcyZdJEqdPwNokmM3LPXW1l+JDgDFmwdc8Oadf5Ydn8w3fSudcj0rtvRyWHzNymZMiwwXJ5wwZSEAuWKkVKIlKSiMo3SqavubWBfPL5J86+f79npOUd9yOWylUm702dqETrMtm6dZV07NRdOnQc6mSPstFRlkwvWDBHrr3xaln37XoXx12tWiuZfsJlDwwcOlRubn67pJTU33Vva7n7/nZZF5Hp0yfKueedJttWr5YuLe+SQQMHabxBhzx86Ci56spGsrswKZdcea28MPo1Z68qJQ898qBcevktUhqD8CWkRAfzYOf2b6VRk2vlo0+D3ck7d+jmlnnHyxLS8p7bZdRLw5096PBwR2na+h4p0joRYSkr7+IoI9OmeO+++66bed65c6c7a7pr165yzjnnuKUzfA6xvwG+ha8IP+X2U9hfuION72BBehXpvA0KKxoY4kY4rrmAUAZk1H4M2wv8G/kNg7jM5AI7i7MiEGdFckCojUzngiXdNvucC/JLWEwuqB+kVVF5IeP+8nA4kFvHw0CG/bn9FPYne2Xje//99+X0008vJ9NhPP/881KrVq0K60cuPJn2qOpAL6wNou2gXtuPctUFpt/Ib21zOE+WH/xV1B94eHgcXtjYA5iu1mTYWCWvZHrhwoUyZMgQKSgocALQWIYbRms0Mfl+SS6XlIkjbwx64zL65WflrFpny47duyWtZDkg02mZPHmiHKuFtmXDepny1ttydq36EtOwy5aulFuuv0EJcB836Lrl9lulQ9fOEk8lpO2Dd0vnrve7eCGbg557Sk6rpYS8qERS2mek48zGZmRnvEhubd1MmjVvJuvWbZAe3R6XW265Q8MEeGPiWLnkojPlh21rpO297aV12ye1rJRMaydTmoqpjFHZsmWt1Gt4pXR4tIPsUtlbtbxbOnbuko1B5IkhA+WKq+u4M6vnfjFfLq/XQAYO6C9jx451x/s88dRALZCM3HVjI+nap2f2K2+RUYNfkkvPuUIS8Zi8+vpYqVv/Snlh1CgZNnygnH7uGXJj03slqeWXUJJeqnmWsrTEIoXS4p7bpFmrFrJq9Rq5v00Had++o5ZASm689XoZPmrvjw/33tdOrr2tqZTo+48ltQ5k68bRQqa5MhgALN3mm+nOnTu7jRwg1uhGeGDP+eaLFy92esM305QFDRlpbd68Wb7++mt3hBN7EBA3JI9016xZI1999ZU7tsBIhIVdu3atO2oEw46M6CD2hGUzNDasISwk32Y6i4qK3NJz0iJOO9oON5YSEhdy8n2e5Q83CAjxYc+sO2kZ0SNvxIfBDVje2NzC8oZM5AlZCEe7hHykx48QAHvSXb9+vbNHHvJt4ZiNxo10CEvaFh/LlCgv0iJNni1vhYWFzt7iNBJt8hMfO25jTHbMjh3bXZ6XLl3i3Kiw5s5nLgsXBnnjXWBnM80bNmyUBQsWurRsxQJ5oMxwo+wJR77tvWF4/5QzZ9MTv+WN90QayELe9uzZU5438om95Q2/BnYAJm/ESXrkGzkJS9tNOPJFOOSj7JGHMiEd3KkvJiPh6GiQjzzYDvaEJV7qMnKQli3ntLzhZu+NekHeCGf1lbTQD2S2vCEP9YRwbLjIChBkA/hDduRD9y655JLy9/pT8GTao6qDuo8OoB/c04ZXt2XelgeutAPgiy++kKFDh7p+iDbF2g3z5+HhkR9Y28LRWMOHD5e5c+e6Z+xrKmiHQF7JtB2NxcDGBkQAYWgcww1o3kD21CjlUUH0Xskg3y6nUlH56uvZMvKV4bK7UBvxOA04y0aTsmbtShn+/HDZqYPab5auktGvTpSS7ATX5o2b5MH775N27e6VES8ES5hLE1GZPutDmfPZNCXlDGijMnfBXBk25iUpLI1KmWa5LF7mvhUu1YdPvvxMOnZ6RD7/bL4smL9Qidd7ktaygeYvWfaVTBj/smzf8Y3M/HimfDB1vg4elcxpeRbHSySRLFaSXCKvT3hF2j/cXpYsXS6fzJwj0z7+REk9Qmbky8VfyIS3x0u8NCBuazZsloceekjuv/8hee/DWa5I0rGITHvndZk8c5oUu52PRBbPXirjnn9FoiUMTJOanw+k86OPyKDBj0u/AY/LXfc/JimVM5Iq1fKIK+mOqimRz76cLQ936iSffPqFzPzoE/n449lSqoSbI7q+WjxPyzUhmURS3p/6oYx9e5IUptIS0ee0dpxlWjeqO5kGpnAGGqK/+7u/k1/96lfyL//yL+7bzRtuuMGRFcLiv2/fvvK3v/3NkW42IYMAAQYVjzzyiNvh9A9/+IPWtXbl8UO02OAKe/S4e/fu5fFBtJj5PuaYY9yxXMzMWSMIcapdu7YLQ3rsvG+gTWDWnPSQZ968eeXpzZw50+0cT5wclQC5MbBM/fjjj5e//OUvbgYQ0meykDbpIMfNN9/sSA6A+Pbo0cOlQx5atmxZ3iYwOLz77rvL89ahQwdHnIiT8E2bNnXx4T5gwIDyvPFDBBt+IT9ykrYBcnfRRRc5GZFnxowZ5XljEEeeCEO7Rb4NH330kfsRhDjPPPNMR9wIx/t++eUxav9f8qc//Vnq1auv5R6cXsCS7iefHKAN7nEuzptuuqm8DeSdPvTQwyr7MRr2b9K6desQ4S/SfN+lbr93huO5LG8QTMoP2Ylz4MCBzh6sWrVKrrzySpc3yoRPC6w+QoTPP/98F4ay5j0a6AzIE2VMHiGyyIHhRyA6DMr5iiuucGVLnMjDrru87z/96U/uMwWrrxD1Ll26uDDEefvtt7vOmDDkn7YH+XB/8MEH93nfzZs3L68n1GUDP46wnwBpsSs+fYvlDVJOvpHl17/+tRx77LEuLvDpp5+6vPHj1b//+7+7s94PpM/xZNqjqsPaH9MDflCkXbfn6gDyQLuATprcEGnaIXQYMm1tPvfVKW8eHtUd1lfStvA54siRwck/6GJNBW0WyCuZZoDOoIgBIOAFMJgKN5yAQSSk4EAGOb8YJOuS1j9KpLVklLKlJKlkWumt2iuxLlObREZi0WKVOSKpTHb5UVzdmZJWRPQSj6ckk963UkUSKSnJficJ0kp00+kSSZYFM3gxdU9FNN24VlS97EnFHKHORUwJZtzt1h2grKxAJkx6XZ55fowOVhOOTMfUHcKfTu6dZeIsWkMEgpvALZCZpevFxWoXjMsdSDmi9ml31m3SzaMX831mVD1lky/YtUW6975PJr39kpZJVL77fr00uvl6GTLqZUemtbuTWFrzlUxIorRAQ7gC3gfBzuO4JCUSLcqeXU2KOvguy7hyi8fiWp4Q6aOHTNuVVQD/+q//6hqk//t//68b3EPyGCgAwjODxpJvCB7EDn0hHWbsIAzTpk1zpI5ZPdIhbkgKs4OQI3OzQQe6xi+J06dPd252LBfhIPEQjalTpzo3ZgQtHLPPn3zyicyaNUs++OADR8oJgxv3pEWcyMOAh3QIyywjcX344Yfy8ccflxMo5Kd9mTJlinMnbgiX5Y0BIHFhmHW0vEG0ybfljXxSXrgTDrJrZcLMo+UNokq+kR03iJjljdnaOXPmOPlwp0G0vPGjH/aUP+EgVLRNhOWetMgbebdZXwjz+vUbNa4PNRzlMlPTL1E39odIqVxrnH/M/PnzXTqUCWW2bNkKzdvHGu8M+fLLL11auHPu9JdfzlMZkH+q1oul5MylR5mSb2RHFmairUzINw275Y18Y4/hxwfKnbwRzmZ9Ccs7tDxjbNbXZoqpI+SdPNiPP7w73qnljX4Ee8IRL8QeOXCjLtu364TjPZIOcVJf7b3hh9lsyxs/WNh7o74QD3UBd1YXEAY36ivykx4kPrzMGzfqOe733HOP+2badO6n4Mm0R1WH1X8MQI9pB9Gx6gJkJx8Y2huehw0b5sg0bSx5wQ432kwPD4/8g/6QH6vZd6Smg7YK5JVMT548WVq0aFG+hNEaRUuDewZbderUkUaNGu2z9PCwgaRd8krUlDSzvDnNPy2gdJk22GV7pEgHdSlllUklzxx3k8yklSAXSbSwUERJZmky45ZCRyIMRiNqiiSu18ISJQjkUYlhjNnXTEKJbkQJovpLxpT86uBbCXha48goG4dY6xBTinTAWFCscSjBTPGtpQ7QS5VYxpWoRyJRiRQX6kB1h2zduVk2bN2u6TFo1QG5xp1IlEgiqmRdiWw0Rnoqd4RfcdOaD40zVqzlzSLrhMTxEyV+HeintPPSvMe0LIpKkxIrUUmU2O9RUlyiRKBM0yhT0p6JKKFTUjBz9hSp3+BSuaZBfbn+unpuA7IizQsbhyU0f1Ht9DJaXhklyvF0qZZjUoqKoxovhFDLS2VIlCkxUZNOBzPTHBFWkEnKbh3cQqrjKhud59FEpiEDAJLMjCEEge+nmTlllozjwSCM+wPhiTsXpIMMFn8YkCqTIxc2aIG45AKSQXwmu8FIHm6EDcOIFSYXhMF/RfKTBvFVJD9u+8ubLcuuCKRDmIraEfJGnBXlzdLjPgzsLX+5CPJGnD/OmzvaSus8ZDoXHKHFbt+55QhYZh6k9eN3Fxy5pbqpZDoXxIVbbjmTZ+wwuQNR5N9f3oDFmQsrk4oIKXHiXlHeeG/7S8tkp97mwuTIDct7NnvCGvjBhh+s6PxzwSCdVQm577kieDLtUR1g+gho0/mxCz2sLrA2I5wP+kfGjZYX7DHoOv48PDzyB3SQH6XvvPNOd8RrTYe1QXkl0zR+DOKsQTRwT4MJGWHZ3n333edmDg5l2vsFSbhkVJ4smYa+QexSSqYjZbuUaOoATcdbUR2UR2JKrFWuaEpJdUQH6VElnip/iQ6IIdmZjJLeRKEO4ItcHNFYQGRjDPQ4KkdNMs7uvhBGJZ4aPlmgg82o3qu/UrXbo4PyUmZqVZ5EpEDSSmqJO5pKKvlWO3WLxb5TOQuDL7DdQDImcWal1USL90hM4+Adk6VYEcfmaPpKaMXNXiekWGWIpaPue27IdILje8qU7KpJ66C/DLlL4hLVOEo1v0nNr6hJx9Sf3ibo7Eg9oxJnSiSWiLtJelc+WljkLa3lU5ZUIp0skpJk1BF2REjy4wPllNH0maVX/+m45k2JSJGWf7GmF1EZ2JSNOqPd61FDpq3es+QW8myDfMKzhJblqSxbvf/++8tn6QDhIBIWJ+QhHDfhscOfmfCAhKu5W3h7tniNYIbdzI4rfozMcG9XyEg4fksDdyOnhDM/GAtraeOGP+5x5wp+Km/YA4uXq4W3Z4ufZ/xjjFSG8wYsb8DiQn7sCG/liT1X2jLsgngY3CEHVwaDmreY5kOvqZT6V0OWINRB3hg0Ik/wgwWEOyDdDBCDsjM5gqO2yIfmwf0QR7oBAScu0rf8cb9Xpp/Om9lZWWEsj/vmbW+d4N7S5IofDPe4cw+4WvoWr4Xlan7CcZp/7MPvzfyYm8VpMnDFD8CesNiBN954w32GwAoK/FqagGXpzEx7Mu1xtIA6jg4A6rrdVxcgr7UH6DDtED+8sToGe3NDh7l6eHjkD2H95MduJipoZ7CrqSD/IK9kOhc0lPyyUa9ePUcg2rRp45Y+GkzIXFRWJvNfYThnxR9NSwkrO+dSLXRcqwPXhJSkdklcB7NslM0MMX61KkmM5d6xqJuxjevANqYmqUQ5oeQxlVLSqWHTbmmnxq3/yQkzVwnIBaSajk7d00qOHQuNa7xKMiMMwtW/I/NKeCG/bmk5y6YZZKsfyG6mbI+mu1tKIaLM7GaYaVZ/OtAmnJtZ16gzDOJ1XEnWIfOJWDCTVxJT8lumpD6jA2kd/EO0Y2VKbKVIMizxjmhZxMokqmFLVVESmWL1V6Bxx6SkiPxrfBppOq3KBAnXMGQ16siHDtK1HBOREiXfJUqmS9ysOqQipXHGlDhzLrbGqvSYwboOnJWIJDSdgmRCilTwqOYxnZ3l05w4w93hrI8V4UDTozHZH5nGWANkgxvINEu77ZMHAzrBbBobI6GHDzzwgPsOmXdmBMPVHY3HroD4GWCE7cNXBibmx+QJu3HFzdx5xg9pWrzYG3Hh3vyF47Y4ubc4uNq9xWF+LF4LF77nejB5w76itLjHzsIa6eIee/xYHGbCcVt6PIfTD+yMUEJKCReQYki0M2qnzqE4SAe/lCdpcI99EN7SQEYIN0u906xsUf88E/an8sZzbt7MjxmeScf8BXIF9cKezc7iCPvBzvxybzKbf+wtjNlzNf+4YWd+sDc/JhPPJrf54TksczhvwOzAm2++6b57tx+tLB7wzDPPuL0K0LmfgyfTHlUdVv+5YkzPqhOQOdwu0P4ZTPdx455rdcufh0d1hvXB1r8CnjE1FTaeyBuZJh4SxbA0kSNL2PCIDXzYbMe+cQT2sip6QcQTfpEG7DEVNbAWFw0xCLubTFYgYbD8MqUsmpnfXGSUDKZ1EAyx3RfEzcCRDuHH8vMNsArg5PwR1J6l1zqWziK4yejAOch30MEACDbuUUisphVjRlgH2c4NMqxgcE64RCwY2Iexp0hJsxLUSFSJd7actftVOx3YQvaVHLgfAbLBkmk6NcpRB7d8Gx44K/bmMQGh0H/k3UEJNaCs+DEAWZDJoDVC4+HXZiUx+m74sQHXqJYBsI7TzeJn823lxvsivtz3jX1uh4sd93YNyjIgTcAII+5h/9ybv3A6uFl84Th+ikybP7tCpvkOzMg09qRhQEdYrcEyVJaAV7TkNRzvT+FA/B1IPIaK/Oba/VR85hYuv1xg/1NxGA7E34HEY6jIb67dgcRn+laRV8IfSBxhf8E1HCZsf2CoyG+u3U/FZ25c9+fvp9xy8VNxhK8VIdct/Mw9dQtAplnmbd9Mh938zLTH0QSr21a/2fPBxnHVBZYH6z8Bz9Y/h/tdrhgPD4/8wHQQfWS8ijGdrKmwvOd1ZppE2PTl2muvdcu5mXWbPXu22wgJMs2yVr6LYaaAAQ5LCNiMCMMGNrY7LC+PzSjYZRY3wkI+jPhw5A/fneLGrF74u0I7hgV7dqIljDXcHNnCN6zsdItMECRb5rlu/ToXpx1bg50jYXpFNuLEneWEgDjJh+WL9CBEFDxp8j0TaZkhP4B4ySfh2ITthx+2O/9WeYmTeJCLASJ5wx6DPXkv1GtRUaFLyxmWThcXOb8YvsUkPuJi9pdn0seQJ+Ky5Rv4Z4kVfpydlhN5g1RjhzvfT5Af4iQ8ZJZn3HFDVsKYO++4QO2JD3+kx0w6bsUqO1fyZt9V8o026VAWxInBHvlMVvuhBLj4NL2wncHKsiI34sOesLnAzcJWBOx/ikwb7B4yzS7D4f0DzI0r6QHkoX7tL10PD48fw3TprbfektNOO61CMs3mKZBp2pufgyfTHlUd1ida3WcswnjFnqsDgrFFMDinz0N2No/kdAbGErluHh4e+YONjeEEffr0cZu3ArOvibDxRF7J9ODBg91RQBjO/wQQq/POO8/t8s3xM+PGjXP2gF1XkYWjWxgQsdsr4MUxs81xKrgxIGJHW3uhDJKY8T7uuOPc7Dc7vRp69uzpwrDElhk/CsAKg2N4SA+i36pVK0fgGGhhOJrIjs/h+BZIDvYQOZapE4Z4+/Xr5+IiTmYdWa5LGNIbNWqU6wSQkyN5sCMM3/RBrgAdIi+DWctzzz1X6tevX76TM++CZfGXX365yxdHAUHEAW7ET1kym8ls/97zXFNOrssuu8wZfsTgV2tILoYdby+++GLnxtmrRozJG0vviQ83lkWaHBBayoT8Ic/o0aNdeZA3fqTgBxPi5PgcvgU28MPCpZde6sLhh47SwPtl8znyxnE/7PJrYCf4888/38nCewrv3stGQnXr1nWb1kFmyRv25kY5cVxUr169yncERU46aPJw6623ulkqW+7JLqiUCfaYl19+2bkRjh8rOIqK+IiXJdmAvFOfDpRM8x75tIGyAuafPBEX91yN9JO2h4fHgcH07OfINMu80bOfgyfTHlUd9CHWJwIGvEwK2HN1AHmwMYbpKX0zYyXyg735oU+sTnnz8KjuMJ3khzr2/OGIV4BO1lRYmeSVTEP2ONeUXeAgZxAVCBTHnzCrixAQUHsxEG1mriHVfEsNyYHg0ohyz/Ex/DKCGySJcBjigIByNArkzcKQacgLBI5jYUgT4mgNNDPZuBEWksovoQb8EgbDTCHkinA06hzfg5yY8Gw3gzTyRnzEixv2EFhmXckveeOHAAgg5JWwEFWOIZowYYJb6gspxh75yQ9HKFGJOV6JSo09svDuII9DhgyR119/vfyXXNyIjzPhCMuu6qSBG+XCztL8uMHgkmNmkI/0uCIDaREvcVi+ceOHD86AJBxpW555Ny+99JILgzukmDAY5B0xYoRL78UXX3TH9QDCUuYmI+GpnNgDyhE5yBsDWkitzSIjV//+/aVTp07uxxLcjHzSEUN6qXNPPPGEyzfvnHCEgZhzli1xIzv2zPBDpvlBhTNx2cSI+EiP90Q6rLDAjfcDKJfKkunf/va3++QfN94lZY8spGnvnWs4Hg8Pj/3DdMWTaY+aBBsLAOo1Y4rqBGSn36M/pM8D9OFMjNB30wfjTj6tz/Tw8MgPTN/oTzkaizE+sD61JsLynlcyDblt27atIzOQwrvvvtv9usEsangW0mYBc18QshjhrOjlYV9ROCMi2FeUH8LYDGAYyAFp3F8Y3CqSA7uK5KDxxw55uA/D8laRHAD/4Q7GQDgzuWHNP27cczWYf4s3DHsmD7kgHHHmymEwEpgL/FuZhUF8lInJGgb2JnNF6Vk5h4F/7PBPWtxbHMDybLIQh6VDGN45V/yZPf65x87yZ8bixq0yy7wh06yeQAGBpYUhLOnYPemYnB4eHj8P0zO/zNujJiHcj1TH/oL+DgMsL/zYz5GRNjONvY0RPTw88gfTTXQRLmcrM2uyLlo7mzcybfFQ6JAVE4BZXc4QJE1mqpmlNTDIscYV/xbGyI6RobAfrriTDgY/PGOPDDxjIPRGrMyEn4kLf0aoTW6uuHEfJl7IasbSxh9XixdgZ1fcLD1zt/gsTWDyID8mHBd+sLO4CG9+zB67itIlHdyA2ZEn7HkmL7ibG9dwnNwbwjKYP9Iyw7O5WZrhMBZXWE7zh3v4mXvseDZDeIuPssOdK3kxEM6euVpaFhdhsTNZgcVvebJ7KyMDaVVmZppl/Szv57t4gL3JwxVj5Y8Jx+Hh4fHTMH05EDIdbiP2B8J7Mu1R1WF1m/7H+ijry6oL0FEMcpthvEZerC+sbnny8DgaYP0nhvYFfeQe+5oKa3PzOjMN7GXwEiAgBpZqs9yW5TwsyUUOgwlrslgchvDLzLU35ObDiFA4TrvavTXY4XgMZhf2zxX7XP9mH/ZrCNubyY0bE0bY3tzsmtvJ5PrFVCSfwTork6siv2H/hor8grC9hUVGu8+F2Yfd7WrhDHZP/LlpVEbucLzhcGH/4fC5ZQxoWCq7ARmrMoxMk675NRly8+vh4XFgML2piEybG3tAQKYPBHz6wR4WY8aMydp4eFQt0G/QZ1i/Qd/CJ2nVqQ8hD4xByIP9EGDyY29udg331x4eHocXpnvhH6DDOloTYW1QXsk0hc4vjHzDjADhmU+AHemzMRVLwPHr4VEdQB2uLJnmm5Pw0Vh2Dfv38PCoPEyHcsk0fYx1fuy/wKcWXNnPg70a2COC/RrY6+GFF15w+ztwZQNHNplknwrgddSjqoE6Sd2m7wH0LWx0Wp3qKrIzUEdm+lTGiIwD2WOGyRdWzplbTR/Ee3jkG9Z/opPoIntVweFqsh7aeCLv30x37NjR/coPiJvG0hpHXorBjsjy8KgOqCyZ5ptpdoffuHGjewamlB4eHr8Mpme5ZDrcz0yaNMmdxMCpA5wwUKtWLfmHf/gHd7LElVdeWW7H7DUblbFp5owZM1xYD4+qCKv39D9MWtgxntUFJqstUSc/fJfJCSS2mZr1rbj7PtPDI3+w9oUftzj5Z+bMme65JuvhESHT7P4MgWAzF0BjGG40EYqG0hrJQ5m2h8fhBHW2smSaQbvt5g0I4+Hh8cthepZLpoHpGZuocOIBv64zOIB4cLQg52fyyzv2uPPDLn4xtpoqrNMeHlUB1tdgrI5aP1RdgLwYxn82SGV1CINU9NHsw3n18PDIL1j1wspKVnDVdFg7lVcyzeYtnA0d/n4NMh1uQO0KOWHg4uFRHXAwZJplo3bONLBBgoeHxy+D6VGYTGOHjoV/wA2DlVDMSHNs30/BOk8Pj6oG6jQml5BWF5j8GJPdzpnmhy3sbLLF8ujh4ZFfcMQtPNHINPpaU2FtUF7JNOcwcw4wswDEa9/DIIwZa0TNeHhUBxiZ5nxqcCBkGj1DAQ1hHfDw8Dh4mA4ZmeZ8eHTLBuLM3NkPudbPsIyUpd3MTAPTRzP4Nb328KiKoJ5a/aQ+79ixw91XFyA7uokxXZ0zZ4707dtXdu7c6ewYN3pd9PDIP6wv5Mx3+kk+3QXoa00F5QF+RKa/+OKLw0amDTaAsc0kuLd0uIbvPTyqA6jTkOkOHTq4Z1Mw6/B5NjsAmUbxbAMyBgn4s0GCh4fHLwffRXMEnX1aBNAviLTppekbP+xeccUV8uSTT7pn010z4X7Kw6OqIVxXAbt5L1u2zN1XF6Bj6Kb1l9Yf2rJ1+kmeueLPw8MjfzC9NKCLpqc1DbRH4bxv3rzZnUZVTqY//fRTZ7F27VrnwQb5h8IYbDYaO2s4c/3Yvdl7401VNYDOHjLdtWtX9/xzeP/99925tXynaYMF0zWQm4Y33nhzYIb+BF0CzEyjZ7bp5c+BZd7MggHiqgi56XnjTVUw4XEUhpmS8G7eYbeqamxwDtDh8PGpzLTzbH4qCu+NN94cXoNehsnzoeSI1c3AX+1HPcbyHHfLbP2vcGQp9t/+9jdZvXp1eYBDBWbhpk6d6hpEixsSEX4xHh7VEdTj+vXryznnnCMDBw50s1s9evSQ7t27u08bunXr5gbpvXr1coaz1NmMDwUE6AJ6cKh1zsOjpiE8CH/ttdfkP/7jP6R9+/by+OOPO11EL5944gmnozyjl7h16tRJfv/738uAAQNcWBvUe3hUBzCosw3yqLv8gMTnDdWlP0FOk5++0MaFnJX9wQcfuJWMtsSbvNoPZh4eHvkB7Qr6Sf/KTt5soIs+1kRdpL0i3zZOYP8jVsHxWYoj0/PmzZNjjz12n42RDhWYJeCYEY5s8PA42jB48GBp2rSp3HLLLdKwYUO5/vrr3XOTJk2kWbNm0rhxY7n55pulefPmctFFF8mf//znavdNm4dHdcLChQudvt1www1O/26//XZ3Tx/37//+7+7+1ltvdTrLFT2dPn16NrSHh8eRBhvXXnLJJW5Fo4eHx5EHJ1twbOSECROyNh5skHjqqae61d1umTcz0+wy/O6777ql3sxQ88sg119iiIvzAocMGSKLFy9232Rjv3z5clmzZs2P/HvjTXUy6MjXX3/tvlFbsWKFq+OYpUuXugE9dtxT37lHF3r37u3CoBuHQse88cabwKBTmK+++soZdG/JkiXlejh27Fh55plnnL7yjMENXcWgj14nvalOxvqRlStXumfGWOvWrfuRv6psyAN6SB4YF2IYi7KKBP3lGV21MaPXUW+8yZ9B72hX+HyEySN0kzYGva3I/9FsaKPC7dS0adPccbezZs0KyDTrvZmqZtaMDZLYjIxl31x/qeFbbJg795xRhmGGINefN95UN4OOcHwHdRxz8sknO/3hnnrOPe7Uf+7RMa5W///617+W3x8qffPGm5po0CV0yHTK9BKdw6CPPPN9E27ooemo6STuhK8ofm+8qYqGOm/1nvrMZ0SM48y+ojBVzYT7QDPoJHqKPffkD4OOYsLhvfHGm8Nn0EfrP+lLufJcXdqXw2FoZ8k/k9C/+93v3I99jkzzXTPHYzFDvWDBApk7d65b+j1//vxDYtgtHMNUOOmQRkX+vPGmuhnqMnXa6rXVddyszqNPZodesfMfz9h/+eWXh1TXvPGmJhrTO3SKZ/SRe35N5x6dMz0N66OF4You4h6O1xtvqrKxvsPq/eTJk2XcuHHVqk9B58L6aPbWN5I39NfySD/r+0xvvMmfsX6Se9PJXD81xdh4gnvKhfJgo0RHpj08PDw8PDw8PKovOAv2cOx94+Hh4eGxP4j8/03TyFu/0v0CAAAAAElFTkSuQmCC;" vertex="1" parent="1">
          <mxGeometry x="120" y="120" width="979" height="314" as="geometry" />
        </mxCell>
        <mxCell id="jT0Mf4S58ZT9GU4pF-9o-2" value="MySQL" style="rounded=0;whiteSpace=wrap;html=1;fillColor=default;strokeWidth=0;strokeColor=none;" vertex="1" parent="1">
          <mxGeometry x="990" y="160" width="80" height="30" as="geometry" />
        </mxCell>
      </root>
    </mxGraphModel>
  </diagram>
</mxfile>
